<?xml version="1.0" encoding="utf-8"?>
<!-- Generator: Adobe Illustrator 25.4.1, SVG Export Plug-In . SVG Version: 6.00 Build 0)  -->
<svg version="1.0" id="Layer_1" xmlns="http://www.w3.org/2000/svg" xmlns:xlink="http://www.w3.org/1999/xlink" x="0px" y="0px"
	 viewBox="0 0 1187 870.9" style="enable-background:new 0 0 1187 870.9;" xml:space="preserve">
<style type="text/css">
	.st0{fill:#FFFFFF;}
	.st1{fill:#100C08;}
	.st2{fill:#E30613;}
	.st3{fill:#1D1D1B;}
</style>
<g id="Calque_2">
	<g id="Calque_1-2">
		<path class="st0" d="M589.6,126.6c165.4-0.7,300,132.9,300.7,298.3S757.4,724.8,592,725.5S292,592.6,291.4,427.2l0,0
			C290.7,261.9,424.2,127.2,589.6,126.6L589.6,126.6"/>
		<path class="st1" d="M802.5,595.2c-2.8,3.1-6.4,1.8-8-2.7c-0.4,2.5-1.1,5-2,7.4c-1.1,2.5-2.3,5-3.7,7.3c-0.7,1.2-1.5,2.5-2.3,3.7
			s-1.8,2.4-2.7,3.6c-1.9,2.4-3.8,4.8-5.8,7.2c-8.4,9.3-18,18.2-25.2,27l-3.3-6.8c-0.5,1.8-1.3,3.6-2.4,5.1
			c-1.3,1.7-2.8,3.3-4.4,4.7c-1.8,1.6-3.7,3.1-5.7,4.5l-6.4,4.1c-8.6,5.5-17.2,10.5-19.3,17.5l-2.8-2l-2.5,3c-1.5,1.8-3.6,4-5.8,6.4
			s-4.3,4.7-6,6.4c-1.7,1.7-2.8,2.8-2.8,2.8c-4.2,1.5-8.8-0.7-10.3-4.9c0,0,0,0,0,0c-0.1-0.2-0.1-0.4-0.2-0.6
			c-5.1,2.4-10.2,4.4-14.9,6.3c-4.8,1.6-9.5,3.1-13.9,4.2c-4.2,1-8.5,1.7-12.8,2.2c-3.9,0.3-7.8,0.3-11.8,0
			c-0.9,5.1-6.9,8.9-15,12.1c-12.4,1.1-24.9,1.6-37.8,1.5l-7.7-0.2c-57-1.8-112.2-20.3-158.8-53.3c-12.1-8.5-32.2-21-41-27.1
			l-24.3-17.8l-18.3-15.4c-2.5-2.5-5.6-5.4-8.8-8.3s-5.7-5-9.6-8.3c-3.7-3.2-7.3-6.7-11.1-10c-3.6-3.3-7-6.8-10.1-10.6l8.8,19
			c2.7,5.2,5.8,10.2,9.2,14.9c2.6,2.6,5.1,5.2,7.4,7.4c1.2,2.9,2.1,5.8,2.6,8.9c0.3,1.7,0.5,3.4,0.7,5l30.3,37.5l22.4,22.7
			c1,1.7,0.5,8.3,1.4,9.8l2.8,4.2c1.8,2.7,3.3,5.2,4.6,7.5l7.2,5.8c0.7,3.9,12.9,11.7,22.4,18.2l84.3,34.9c1.2-0.5,2.5-0.8,3.9-1
			c1.7-0.3,3.4-0.4,5.1-0.4c5,0.2,10,0.7,14.9,1.7l71.7,5.6c4.8,0.4,9.8,0.5,14.7,0.7c4.9,0.2,9.8,0,14.6-0.3
			c4.6-0.3,9.2-1,13.7-2.1c2.1-0.5,4.2-1,6.2-1.8c1.9-0.7,3.8-1.6,5.6-2.6c3.2-0.9,6.5-1.2,9.8-0.9c3.6,0.1,7.6,0.4,12,0.7
			l25.9-11.5c18.4-0.1,36.7-2.8,54.3-8.2l51.9-16c4.7-5.6,9.9-10.6,15.6-15.2c3.7-2.8,7.8-5.1,12.2-6.7l31.5-29.9
			c0.9-1.9,1.7-3.8,2.5-5.8s1.6-3.9,2.7-6s2.3-4.3,3.8-6.8c4.4-6.6,9.4-12.7,15-18.3L952.9,397c-0.2-4.2-0.3-8.3-0.5-12.4
			c-0.1-2.1-0.1-4.1-0.3-6.2s-0.3-4.1-0.5-6.1c-0.3-4.1-0.7-8.1-1-12.1c-0.5-4-0.9-7.9-1.3-11.8L946,348c0.1-1.7,0.2-3.4,0.2-5
			s-0.2-3.3-0.4-5c-0.4-3.3-0.9-6.6-1.7-9.9c-0.7-3.3-1.7-6.6-2.8-9.8c-1.1-3.2-2.3-6.5-3.6-9.8s-2.8-6.5-4.3-9.7
			c-1.4-3.3-2.9-6.6-4.4-9.9c-1.5-3.3-3.1-6.6-4.5-10l-4.2-10.4l0.4,2.4c0.3,1.4,0.6,3.3,0.9,5.2c0.5,3.8,1.1,7.6,1.1,7.6
			c-5.4-6.3-10.2-13.2-14.2-20.5c-1.8-3.2-3.7-6.4-5.8-9.7c-2.1-3.6-4.6-7-7.3-10.2c0,0,0.5-3.4,0.9-6.7l-22.8-18.1
			c-2.2-5.1-5-9.8-8.5-14.1c-4-5-8.4-9.7-13-14.1c-4.7-4.3-9.2-8.3-13.1-11.4c-3.9-3.1-7-5.5-8.5-7c-1.6-7.1,9.2,0.6,13.1,0.8
			c-3.8-2.7-7.9-5-12.2-6.9c-3.5-1.4-6.6-2.1-9.7-3c-3.5-1-6.8-2.3-10.1-3.9c-5.5-2-10.8-4.6-15.8-7.8l-46-24.3
			c-17.3-7.1-35-13.1-53.1-18.2c-44.9-10-91-13-136.8-9l-38.7,9.2c-10,3.6-22.9,7.9-28.3,10c-2.2,0.9-4.5,1.5-6.7,2.3l-6.5,2.7
			c-4.3,1.8-8.6,3.6-12.8,5.6c-4.1,2-8.2,4.2-12.1,6.3c-2,1.1-4,2.1-5.9,3.3c-1.9,1.2-3.7,2.4-5.6,3.7c-3.7,2.4-7.3,4.8-10.7,7.3
			c-8.8,6.7-16.9,14.2-24.3,22.4c-15.6,10.8-30.1,23.1-43.4,36.7l-2.9,3c-1.8,1.9-3.5,3.7-5.3,5.7l-10.7,12.9
			c-2.8,3.7-5.4,7.6-7.8,11.5c-0.6,1.3-1.1,2.6-1.6,3.8c-0.5,1.3-1,2.6-1.4,3.9c-0.2,0.6-0.4,1.1-0.6,1.7l-1.9,5.7l-7.4,30.4
			l12.6-17.4c1.1-1.8,2.5-3.4,3.7-5.2l7.5-10.2c5.4-6.5,10.5-13.3,16.3-19.4c5.5-6.5,11.6-12.3,17.5-18.3l9.4-8.5
			c1.6-1.4,3.1-2.9,4.7-4.2l4.9-4l4.9-4c1.6-1.3,3.3-2.7,5-3.9l10.3-7.4c1.7-1.3,3.5-2.4,5.3-3.5l5.4-3.4l5.4-3.4
			c1.8-1.1,3.7-2.1,5.6-3.1l11.2-6.1l11.5-5.4c1.9-0.9,3.8-1.9,5.8-2.6l6-2.3l5.9-2.3c2-0.8,4-1.6,6-2.1l1.5-0.7
			c3.3-1.5,6.9-3.1,10.8-4.7c1-0.4,1.9-0.8,2.9-1.2l3.1-1l6.4-2l6.7-2.1c2.3-0.7,4.6-1.1,7-1.7c4.8-1.1,9.6-2.3,14.5-3.2
			c11.3-2.2,23.1-3.6,34.5-4.7c2.5,0,5,0,7.3,0c-6.4,0.5-12.7,1.5-19,2.9c-3.6,0.9-9,1.4-14.9,2.5l-9,1.4c-3,0.6-5.8,1.3-8.5,1.9
			l-6.9,2.1c-1.2,0.4-2.4,0.7-3.6,1.1c-1.2,0.4-5.5,2.2-6.7,2.7l-8.2,3.4c-2.5,1.2-5.2,2.1-7.8,3.1s-4.2,1.8-6.9,2.8l-4,1.5
			c-1.3,0.6-2.6,1.2-3.9,1.7c-2.5,1.2-5,2.3-7.5,3.4c-4.4,2-8.6,4.1-12.8,6.5l-14.1,8.6c0,0.1,4.7-2,6.6-3.1l8.5-4.1l5.9-2.9
			c2.1-1.1,4.5-2,7-3.1c5-2.1,10.6-4.6,16.8-6.6c27.2-9.9,55.7-15.6,84.5-17c5.4,0.6,3.1,2.8-1.3,5c-2.2,1.1-4.9,2.1-7.5,3
			c-2.2,0.9-4.5,1.5-6.8,2c-0.8,0.2-1.6,0.4-2.4,0.7c4-0.3,7.9-0.7,11.9-0.9l11.8-0.4c33.2-2.2,66.6,1.3,98.6,10.4l-8.2-1.7
			c-2.7-0.6-5.5-1.2-8.2-1.5c-2.8-0.3-5.3-0.7-8.1-1.1s-5.5-0.7-8.4-1.1l-8.6-1.2c-3-0.3-6-0.6-9-1c-1.5-0.2-3-0.4-4.5-0.6l-4.7-0.4
			c-3.1-0.3-6.2-0.6-9.4-0.9l-9.6-0.5c-1.6-0.1-3.2-0.2-4.9-0.3l-4.9-0.1c-3.3,0-6.6-0.2-9.9-0.1c-14,1.1-28,3.1-41.7,6l-1,0.3
			c17.5-2.9,35.3-4.1,53.1-3.5c32.9-1.2,65.8,3.5,97.1,13.7l-8-2.1c-2.7-0.7-5.4-1.1-8.1-1.7c-26.7-5.4-53.8-8.8-81-10l-5.7,0.2
			c-1.9,0.1-3.8,0.1-5.7,0.4l-11.4,1.1c-7.5,1.1-15,2-22.3,3.6l-5.5,1.1c-1.8,0.4-3.6,0.9-5.4,1.3l-10.8,2.8c-1.8,0.4-3.5,1-5.3,1.6
			l-5.2,1.7l-5.2,1.7l-2.6,0.8l-2.5,1c19.6-5.8,39.7-9.8,60.1-12.1c37.8-4.7,76.1-1.8,112.8,8.4c35.8,10,69.3,26.9,98.5,49.8
			c3.8,2.5,7.7,4.9,11.2,7.7c3.6,2.8,7.1,5.7,10.4,8.8c16,15.4,29.9,32.8,41.4,51.8c-0.7-3.7,4.4,5.6,4.9,5.3
			c6.4,9.4,11.8,19.5,16,30c4.5,11.4,8.2,23.1,11.1,35.1c0.8,3.4-0.5,3.5,0.4,7.1c2.3,14.9,3.5,29.9,3.8,45c0-0.5,0.1-1.1,0.1-1.4
			c0-0.2,0-0.4,0-0.5l3-7.3c-0.5-3.8-0.8-7.6-1.6-11.5s-1.3-7.6-2-11.4s-1.8-7.6-2.7-11.4c-0.1-0.4-0.2-0.9-0.3-1.3
			c-3.9-14.9-9-29.5-15.2-43.5c-1.3-2.8-2.6-5.6-3.9-8.4v-0.8c0,0-0.3-0.6-1-1.6l-0.1-0.1c-1.7-3.1-3.3-6.2-5-9.3
			c-0.8-1.7-1.8-3.3-2.8-4.9l-2.9-4.8c-1-1.6-1.9-3.2-2.9-4.7l-3.1-4.6c-4-6.2-8.5-12-12.9-17.8l-7-8.4c-2.3-2.8-4.9-5.4-7.3-8.1
			c-9.8-10.5-20.4-20.2-31.7-29.1c-2.3-1.6-4.8-2.9-7.2-4.2c28.6,23.6,53.3,51.6,73.3,82.8l2.3,3.5l4.5,8.3c1.3,1.8,2.2,3.3,2.8,4.4
			l1,1.7l-0.1-0.8c0.7,1.4,1.4,2.8,1.9,4c6.5,14.9,12,30.3,16.3,46c2.4,14.4,3.8,29,4.2,43.6c-2.7-0.3-1.7-1.4-3.9,1.1
			c-2-4-3.8-8.1-5.5-12.2c-1.8-4.1-3.5-8.2-5-12.1s-3.3-7.4-4.8-10.5c-0.7-1.5-1.5-3-2.2-4.2c-0.7-1.1-1.4-2.2-2.2-3.2l0.5,1.2
			c0.3,0.8,0.8,1.9,1.3,3.2c1,2.7,2.3,6.3,3.6,9.9c0.7,1.8,1.2,3.6,1.8,5.3s1,3.3,1.4,4.7l1.4,4.6c-1.3-0.2-2.2,1-3.1,2.7
			s-1.7,4-2.5,5.8c-1.7,3.6-3.6,5.2-7-2c-0.1,14.6,1,30.3,1.7,46.1c0.8,15.3,0.8,30.7-0.1,46c2.6-3.5,4.4-8.5,7.4-7.1
			c0.2,7.7-1.6,10.7-3.6,12.1s-4.5,1.1-6.6,2.2c0.1,1.3,0.3,2.6,0.7,3.8c0.2,1.1,0.6,2.1,1.1,3c0.9,1.7,2.1,3.3,3.5,4.7
			c3.2,2.7,5.9,6.1,8,9.8c-3.7,5.1-6.2,9.1-8.2,12.5c-2.2,3.4-3.8,6.2-5.5,8.9c-1.7,2.8-3.8,5.4-6.1,7.8c-3.1,3.2-6.5,6.1-10.3,8.5
			l8.2,2.9c-6,1.7-23.5,19.3-36.2,31.2L802.5,595.2z"/>
		<path class="st2" d="M328,624.9c-4.9-6.3-10.1-12.3-15.6-18c-0.5-0.5-9.6-9.5-10.2-9.9c0.9,2.4,10.4,15.1,10.8,17.4
			c0.3,1.7,0.5,3.4,0.7,5s0.3,3.3,0.4,4.9c0.2,3.3,0.2,6.6,0.5,10.2c0.4,3.7,1.1,7.4,2.1,11c0,0,0.4-2.8,0.8-5.6l1.2-8.6
			c6,3.9,10.6,9.7,13,16.5c3.4,6.2,8.9,11,15.6,13.4L332,664c6,1.4,11.1,5,14.4,10.2c4.3,6.4,8,13.2,11.2,20.2
			c0,0-0.2-13.9,2.5-14.7c2.7-0.8,4.9,5,4.9,5l2.9,4.7l2.8,4.2c1.8,2.7,3.3,5.2,4.6,7.5c3.6,5.3,6,11.3,6.8,17.6l0.4-11.8
			c0.7,3.9,12.9,11.7,22.4,18.2c9.5,6.4,17,12.1-0.3,13.9c2.4,0.2,10.3,0.4,13.4,0.5c3.8,0.2,7.4,1.4,10.6,3.5l-12.6,5
			c13.9,4.2,39.6,11.3,41.9,17.2c2.5,6-19.4,2.2-24,1.4c3.6,1.6,15.2,5.7,18.2,6.6c2.6,0.8,5.2,1.5,7.9,2c3.6,0.7,7.3,0.9,11,0.4
			c4.3-0.8,7.9-3.5,9.9-7.3c1.8-3.6,4.8-6.6,8.5-8.3c1.2-0.5,2.5-0.8,3.9-1c1.7-0.3,3.4-0.4,5.1-0.4c5,0.2,10,0.7,14.9,1.7
			l-11.4,5.9c0,0,10.9-1.3,16.8-2.2c2.3-0.4,4.6-1,6.9-1.9l6.2,4.5c1.6,1.2,3.2,2.2,4.4,3l2,1.3c10.4-8.2,27.6-6.4,47-5.1
			c4.8,0.4,9.8,0.5,14.7,0.7s9.8,0,14.6-0.3c4.6-0.3,9.2-1,13.7-2.1c2.1-0.5,4.2-1.1,6.2-1.8c1.9-0.7,3.8-1.6,5.6-2.6
			c3.2-0.9,6.5-1.2,9.8-0.9c3.6,0.1,7.6,0.4,12,0.7c2.2,0.1,4.5,0.2,6.8,0.3s4.8-0.2,7.3-0.5c9.1-1.6,18-4,26.8-7l-15-4.3
			c18.4-0.1,36.7-2.8,54.3-8.2c22.2-5.5,44-7.7,58.2-10c-18.6-1.2-9.5-3.2-6.2-6.2c4.7-5.6,9.9-10.7,15.6-15.2
			c3.7-2.8,7.8-5.1,12.2-6.7c3.8-1.4,7.6-2,11.4-3c4-1.5,7.7-3.5,11.2-5.9c5.4-4.2,9.9-9.4,13.4-15.2l-13.4,10
			c-6.7,3.5-14.1,7.6-9.4,2.9c5.7-3.3,10.7-7.7,14.7-12.9c1.4-1.8,2.6-3.7,3.6-5.7c0.9-1.9,1.7-3.8,2.5-5.8s1.6-3.9,2.7-6
			s2.3-4.3,3.8-6.8c4.4-6.6,9.4-12.7,15-18.3c4.1-4.2,2.3,2.4,0.5,5.9l23.9-42.1c11.8-20.3,21.4-41.8,28.6-64.2
			c2.4-6.6,3.8-12.3,6-19c1.1-3.3,2.3-6.8,3.4-10.3s2-7.2,3-10.9c0.5-1.9,1-3.7,1.5-5.6s0.8-3.8,1.2-5.7c0.8-3.9,1.6-7.8,2.4-11.7
			c0.6-4,1.2-8,1.9-12c0.3-2,0.6-4.1,0.9-6.1c0.2-2,0.4-4.1,0.6-6.2c0.4-4.1,0.8-8.3,1.2-12.5s0.4-8.4,0.7-12.6
			c0.1-2.1,0.2-4.2,0.2-6.3v-6.3c0-4.2,0.1-8.4,0-12.6s-0.3-8.3-0.5-12.5c-0.1-2.1-0.1-4.1-0.3-6.2s-0.3-4.1-0.5-6.1
			c-0.3-4.1-0.7-8.1-1-12.1c-0.5-4-1.4-15.5-1.8-19.4l-2.8,7.3c0.1-1.7,0.2-3.4,0.2-5s-0.2-3.3-0.4-5c-0.4-3.3-0.9-6.6-1.7-9.9
			c-0.7-3.3-1.7-6.6-2.8-9.8c-1.1-3.3-2.3-6.5-3.6-9.8c-1.3-3.3-2.8-6.5-4.3-9.7c-1.4-3.3-2.9-6.6-4.4-9.9c-1.5-3.3-3.1-6.6-4.5-10
			l-4.2-10.4l0.4,2.4c0.3,1.4,0.6,3.3,0.9,5.2c0.5,3.8,1,7.6,1,7.6c-5.4-6.3-10.1-13.2-14.2-20.5c-1.8-3.2-3.7-6.4-5.8-9.7
			c-2.2-3.6-4.6-7-7.3-10.2c0,0,0.3-2.3,0.7-5l0.1-0.6l0.2-1.1c0.4-3.4,7-0.8,7-0.8c-4.3-4.6-9.1-8.9-14.1-12.8
			c-1.4-0.8-3-1.2-4.6-1.2c-4,0.5-8-0.8-11.1-3.4c-2.2-5-5-9.8-8.4-14.1c-1.5-1.8-3-3.6-4.6-5.3l-0.7-0.8c-2.5-2.7-5.1-5.4-7.7-8
			c-4.7-4.3-9.2-8.3-13.1-11.4s-7-5.5-8.5-7c-1.6-7.1,9.2,0.6,13.1,0.8c-3.8-2.7-7.9-5-12.2-6.8c-3.5-1.4-6.6-2.1-9.7-3.1
			c-3.5-1-6.8-2.3-10.1-3.9c-1.8-0.9-3.6-1.8-5.3-2.9l-3.7-2.4c-0.5-0.3-2.4-1.4-2.9-1.6l-49.8-25.3c-17.3-7.1-35.1-13.1-53.1-18.1
			c-36.5-10.3-104.3-24.8-175.5,0.2c6.5-1.1,55-11.8,69.9-6.7c-2.3,0.1-6.8,0.1-9.2,0.2c-2.3,0.1-2.5,0.3-4.8,0.5l-7.1,0.5
			c-2.4,0.2-4.7,0.3-7.1,0.6l-14.2,1.7c-4.7,0.8-9.5,1.6-14.2,2.4l-7.1,1.3l-7,1.7c-4.7,1.2-9.3,2.3-13.9,3.5
			c-4.6,1.5-9.1,2.9-13.6,4.4c-2.2,0.8-4.5,1.5-6.7,2.3l-6.5,2.7c-4.3,1.8-8.6,3.6-12.8,5.6c-4.1,2-8.2,4.2-12.1,6.4
			c-2,1.1-4,2.1-5.9,3.3c-1.8,1.2-3.7,2.4-5.6,3.6c-3.7,2.4-7.3,4.8-10.7,7.3c-9.2,7.1-18.4,13.8-26.9,21.2
			c-14.3,12.1-27.4,24.1-40.8,37.9l-2.9,3c-1.8,1.9-3.5,3.7-5.3,5.7c-3.7,4.4-7.3,8.9-10.7,12.9c-2.8,3.7-5.4,7.6-7.8,11.5
			c-0.5,1.3-1.1,2.5-1.6,3.8l-0.1,0.2l-2.8,7.8c-0.4,1.1-0.8,2.3-1.1,3.4l-1.6,5.5c-0.5,1.7-0.8,3.5-1,5.3h0.1
			c3.1-4.6,6.2-9,9.5-13.5l3.4-4.4c6.9-9.1,14.3-18,22.1-26.4c2.8-2.9,5.7-5.8,8.6-8.6c3.4-3.4,6.8-6.8,10.1-10.2l10.1-9.2
			c1.7-1.5,3.3-3.1,5.1-4.5l5.3-4.3l5.3-4.3c1.8-1.4,3.5-2.9,5.4-4.2l11.1-8c1.8-1.4,3.8-2.5,5.7-3.8l5.8-3.6l5.8-3.6
			c1.9-1.2,4-2.2,6-3.3l12-6.5l12.4-5.8c2.1-0.9,4.1-2,6.2-2.8l6.4-2.5l6.4-2.5c2.1-0.8,4.2-1.7,6.4-2.3l1.6-0.7
			c3.6-1.6,7.5-3.3,11.6-5c1-0.4,2.1-0.9,3.2-1.2l3.3-1.1c2.2-0.7,4.5-1.4,6.9-2.2l7.2-2.2c2.4-0.8,5-1.2,7.5-1.8
			c5.1-1.1,10.3-2.5,15.6-3.4c10-2.2,20.2-3.8,30.4-4.8c3.6-0.3,12.3-0.4,14.5-0.3c-7,0.8-13.8,2.3-20.4,3.2
			c-3.9,0.5-9.7,1.6-16,2.7l-9.6,1.5c-3.2,0.7-6.3,1.4-9.1,2.1l-7.4,2.3c-1.3,0.4-2.6,0.7-3.8,1.2c-1.3,0.4-11.5,3.8-12.7,4.3
			l26.2-6.3c-4.4,1.8-8.9,3.2-13.5,4.1l-14.8,4.6c-2.8,0.8-5.5,1.9-8.3,2.9l-8.5,3.2l-4.3,1.6c-1.4,0.6-2.8,1.2-4.2,1.8
			c-2.7,1.3-5.4,2.5-8,3.7c-4.7,2.1-9.3,4.4-13.7,7l-25.2,15.3c0,0.1,15.1-8.3,17.2-9.4l9.1-4.4l6.4-3.2c2.3-1.2,4.9-2.1,7.6-3.3
			c5.4-2.2,11.3-5,18-7.1c29.2-10.6,59.8-16.8,90.8-18.3c5.8,0.7,12.7,0.3-1.4,5.3c-2.6,1.2-5.3,2-8.1,2.5
			c-5.2,0.5-10.5,1.2-15.6,2.4c-0.8,0.2,11.6,0.4,10.7,0.6c4.3-0.3,3.5-0.1,7.8-0.3c4.3-0.2,8.6-0.6,12.8-0.7
			c8.5-0.5,17-0.4,25.6-0.3l-10.9-0.8c-2.3-0.1-9.6,0-11.9-0.1c2.5-0.1,11.3-1.6,14.7-1.9c4.5-0.4,9-0.4,13.4-0.7
			c8.4,0.6,16.8,1.6,25.1,3c9.5,1.4,19.1,4,28.5,6.3c7.4,1.5,21.5,5.8,28.8,7.8l-15.5-3.7c-2.9-0.5-5.4-0.9-8.1-1.5
			c-0.5-0.1-13.2-3-16.8-3.5l-23.2-3.2l-7.3-0.6c-3.3-0.3-4.5-0.5-7.9-0.8c-3.4-0.3-4.9-0.4-8.3-0.6c-1.7-0.1-8-0.3-9.8-0.3
			c-1.8,0-3.5,0.2-5.2,0.1c-3.5,0-7.3,0.1-10.9,0.1l-25.3-0.7c-10.4,1.1-20.7,2.9-30.9,5.3c-4.3,1-8.3,2-14.1,3.7
			c-5.2,1.6-10.4,3.5-15.4,5.8L491,157.7c3.7-1.1,23.6-8.3,27.5-9.3c3.9-1.4,9.8-3.1,13.8-4.4l6.8-1.9c2.1-0.6,4.2-1.1,6.3-1.6
			c4.2-1.1,6.2-1.1,10.5-2c2.4-0.5,7.7-1.4,7.4-1.3c9.3-1.3,19.5-2.1,33-3l11.7-0.1c-2,0.1-4.1,0.2-6.1,0.4l-12.2,1.1
			c-8.1,1.2-16.1,2.2-24,3.9l-3,0.6c6.4-0.8,12.6-1.2,18.6-1.4c1,0,2.1,0.3,2.9,0.9l0.5-0.1c24-2.7,48.3-3.4,72.4-2.1l-15.2-1.8
			c-9-0.9-18.2-1.6-27.7-1.8c35.4-1.3,70.7,3.7,104.3,14.7l-8.6-2.2c-2.9-0.8-5.8-1.2-8.7-1.8c-11.2-2-23.5-4.2-36.4-6.1
			c6.9,1.4,13.7,2.9,20.8,4.7c6.9,1.8,13.5,3.6,20.2,5.5c38.5,10.7,74.4,28.9,105.8,53.5c4,2.7,8.2,5.3,12.1,8.3
			c3.9,3,7.6,6.1,11.2,9.4c15.4,13,28.8,28.2,39.8,45c4,5.9,6.5,9,10.3,15.3c6.7,10.5,12.4,21.7,16.8,33.4
			c4.5,11.7,8.1,23.7,10.8,35.9c0.9,3.7,1,5,1.9,9.5c5.5,14.6,9,29.8,10.4,45.4c-0.9-0.2-1.7-0.3-2.6-0.4c0-0.2,0-0.4,0-0.6
			l-0.7-6.1c-0.5-4.1-0.9-8.2-1.7-12.3s-1.4-8.2-2.2-12.3s-1.9-8.2-2.8-12.3c-0.1-0.5-0.2-0.9-0.3-1.4c-4.2-16-9.7-31.6-16.4-46.8
			l-5.5-11.6c-1.8-3.3-3.6-6.7-5.3-10c-0.9-1.8-1.9-3.5-3-5.2l-3.1-5.1c-1-1.7-2-3.4-3.1-5.1l-3.3-4.9c-4.3-6.6-9.1-12.9-13.8-19.1
			l-7.5-9c-2.5-3-5.2-5.8-7.8-8.7c-10.5-11.3-21.9-21.7-34-31.2c-2.5-1.7-5.2-3-7.8-4.5c30.7,25.4,57.3,55.4,78.8,88.9
			c0.7,1.1,1.6,2.4,2.4,3.8c-1.6-2.2-3.4-4.4-5.2-6.6s-3.7-4.5-5.4-6.6c-1.7-2.1-3.5-3.9-4.9-5.5l-4.8-5.3l4.9,5.8
			c1.5,1.8,3.3,3.7,5,6s3.6,4.7,5.5,7.2l2.8,3.7l2.5,3.7l4.5,6.5c1,1.6,1.9,3.2,2.7,4.8l4.7,9.3c6.3,14.8,11.7,30,16.3,45.4
			c3.9,14.8,6.7,29.9,8.5,45.2c-3-0.5-6.1,0.5-8.2,2.8c-2.2-4.3-4.1-8.6-5.9-13.1c-1.9-4.4-3.8-8.9-5.4-13s-3.6-8-5.1-11.3
			c-0.8-1.7-1.6-3.2-2.3-4.5c-0.7-1.2-1.5-2.3-2.4-3.5c0,0,0.2,0.5,0.5,1.3s0.9,2,1.4,3.4c1,2.9,2.4,6.7,3.8,10.6
			c0.7,1.9,1.3,3.9,1.9,5.7s1.1,3.6,1.5,5l1.5,4.9c-1.4-0.3-2.4,1-3.4,2.9s-1.8,4.3-2.7,6.2c-1.8,3.8-3.9,5.6-7.5-2.2
			c-0.1,15.7,1,32.6,1.8,49.6c0.9,16.5,0.9,33-0.1,49.4c2.8-3.8,4.8-9.1,8-7.6c0.2,8.2-1,12.6-2.8,14.4c-2.1,2.1-5.4,2.5-8,1
			c0.1,1.4,0.3,2.8,0.7,4.1c0.3,1.1,0.6,2.2,1.1,3.2c1,1.9,2.2,3.6,3.8,5.1c2.9,3,10.3,5,8.5,10.3c-3.9,5.5-6.7,9.8-8.8,13.5
			c-2.4,3.6-4.1,6.7-5.9,9.5c-1.9,3-4,5.8-6.5,8.4c-3.3,3.5-7,6.6-11,9.2l8.8,3.1c-2.7,1.8-4.9,4.3-6.3,7.3c-1,2.3-1.6,4.6-1.8,7.1
			c-0.2,2.6-0.8,5.1-1.7,7.5c-1.4,3.2-3.6,5.9-6.4,7.9c-2.2-0.4-0.6-6.8,0.1-12.2c-1.4,4.7-4.8,8.4-9.3,10.2
			c-4.4,1.7-7.8,5.2-9.3,9.7c0,0-0.5-3.7-1-7.4s-1.1-7.3-1.1-7.3c-1.5,2.2-3,4.7-4.5,7.2c-1.3,2.3-2.8,4.5-4.5,6.5
			c-3,3.4-5.7,4.4-7.4-0.4c-0.4,2.7-1.1,5.4-2.1,7.9c-1.2,2.7-2.5,5.3-4,7.9c-0.8,1.3-1.6,2.7-2.5,4s-1.9,2.6-2.9,3.9
			c-2,2.6-4.1,5.2-6.3,7.8c-9,10-19.3,19.6-27,29l-3.6-7.3c-0.5,2-1.4,3.8-2.6,5.5c-1.4,1.8-3,3.5-4.8,5c-1.9,1.7-4,3.3-6.1,4.8
			l-6.8,4.5c-9.3,5.9-18.5,11.2-20.8,18.8l-3.1-2.1l-2.7,3.2c-1.6,2-3.9,4.3-6.2,6.8s-4.6,5-6.4,6.8l-3,3c-4.5,1.6-9.4-0.8-11-5.3
			c-0.1-0.2-0.2-0.5-0.2-0.7c-5.5,2.6-10.9,4.7-16,6.8c-5.2,1.7-10.2,3.3-14.9,4.5c-4.8,1-9.4,1.8-13.8,2.4c-4.2,0.3-8.4,0.3-12.7,0
			c-1,5.5-7.4,9.6-16.2,13c-13.3,1.2-26.7,1.7-40.5,1.6l-8.3-0.2c-61.3-2-120.6-21.9-170.6-57.2c-13.1-9-25.6-18.9-37.2-29.8
			l-18.1-8.9c2.9,2.5,13.6,11.6,16.3,13.9l7.5,6.2c3.4,2.4,6.5,5.3,9.2,8.5c1.4,2.8-3.8-0.2-11.3-5.4c-7.3-5.3-16.9-12.9-24.2-19
			L328,624.9z M650.5,114c24.9,2,49.3,7.6,72.5,16.6c1.3,0.5,2.6,1,3.9,1.5c-0.5-0.2-1-0.3-1.5-0.4c-5.2-1.5-12.2-3.1-19.2-4.8
			c-3.5-0.9-7-1.6-10.3-2.2l-9-1.7c-2.6-0.5-4.8-0.9-6.3-1.2l-2.4-0.4l1.4,0.6c0.9,0.3,2.1,0.9,3.6,1.6l6.9,3.2
			c-3.7-1.3-7.4-2.6-11.2-3.9l-11.3-3.3l-6-1.7L650.5,114z M733.1,134.5c13,5.2,25.8,11.2,38,17.2c23.6,11.9,45.7,26.8,65.6,44.2
			c5,4.5,10.1,8.9,14.8,13.7c2.4,2.4,4.8,4.6,7.2,7.1l6.9,7.3c2.3,2.4,4.5,4.9,6.7,7.5s4.4,5,6.5,7.6l6.2,7.8l6.1,7.8
			c2.8,3.8,5.3,7.8,7.5,12c2.3,4.5,4.7,8.9,6.6,12.5c-7-11.5-14.8-22.4-23.5-32.6c-8.3-10.1-17.4-19.3-27.2-29.1
			c-17.1-16.1-35.5-30.7-55.1-43.8l-3.8-2.5c-1.3-0.8-2.6-1.6-3.9-2.4l-6.5-4c-6.3-4.1-12.8-7.9-19.5-11.9c-0.9-0.6-1.9-1-2.9-1.5
			L733.1,134.5z"/>
		<polygon class="st3" points="405.4,610.5 405.4,583.4 410.9,583.4 410.9,595.5 422,583.4 429.3,583.4 419.1,594 429.9,610.5 
			422.8,610.5 415.3,597.8 410.9,602.3 410.9,610.5 		"/>
		<rect x="432.6" y="583.4" class="st3" width="5.5" height="27.1"/>
		<polygon class="st3" points="443.2,610.5 443.2,583.4 451.4,583.4 456.3,601.9 461.2,583.4 469.4,583.4 469.4,610.5 464.3,610.5 
			464.3,589.2 458.9,610.5 453.6,610.5 448.3,589.2 448.3,610.5 		"/>
		<polygon class="st3" points="474.8,610.5 474.8,583.4 495,583.4 495,588 480.3,588 480.3,594 494,594 494,598.6 480.3,598.6 
			480.3,606 495.5,606 495.5,610.5 		"/>
		<polygon class="st3" points="506.2,610.5 506.2,588 498.2,588 498.2,583.4 519.8,583.4 519.8,588 511.7,588 511.7,610.5 		"/>
		<path class="st3" d="M521.9,601.7l5.3-0.5c0.2,1.5,0.9,2.9,2,4c1.1,0.9,2.6,1.3,4,1.3c1.4,0.1,2.8-0.3,4-1.1
			c0.8-0.6,1.3-1.6,1.3-2.6c0-0.6-0.2-1.2-0.6-1.7c-0.6-0.6-1.2-1-2-1.2c-0.6-0.2-2.1-0.6-4.4-1.2c-2.2-0.4-4.4-1.3-6.2-2.7
			c-2.7-2.3-3.3-6.3-1.3-9.3c0.8-1.2,2-2.2,3.4-2.7c1.7-0.7,3.5-1,5.3-1c2.7-0.2,5.5,0.6,7.7,2.2c1.7,1.5,2.7,3.7,2.7,6l-5.5,0.2
			c-0.1-1.2-0.6-2.2-1.5-3c-1-0.7-2.2-1-3.5-0.9c-1.3-0.1-2.6,0.3-3.8,1c-0.6,0.4-0.9,1-0.9,1.7c0,0.6,0.3,1.2,0.8,1.6
			c1.5,0.9,3.2,1.5,5,1.8c2,0.4,4,1.1,5.9,2c1.2,0.6,2.3,1.6,3,2.8c1.5,2.7,1.4,6-0.2,8.7c-0.9,1.4-2.2,2.4-3.7,3
			c-1.9,0.7-3.9,1.1-5.9,1c-2.8,0.2-5.6-0.7-7.9-2.4C523.2,606.9,522,604.4,521.9,601.7"/>
		<path class="st3" d="M548.5,583.5h5.5v14.7c0,1.5,0,3,0.2,4.5c0.2,1.1,0.8,2,1.7,2.7c1.1,0.7,2.3,1.1,3.6,1c1.3,0.1,2.5-0.3,3.5-1
			c0.7-0.6,1.3-1.4,1.4-2.3c0.2-1.5,0.3-3.1,0.2-4.6v-15h5.5v14.2c0.1,2.3-0.1,4.6-0.4,6.9c-0.3,1.3-0.8,2.4-1.6,3.4
			c-0.9,1-2,1.7-3.2,2.2c-1.7,0.6-3.4,0.9-5.2,0.8c-2,0.1-4-0.2-5.9-0.9c-1.2-0.5-2.3-1.3-3.2-2.3c-0.7-0.9-1.3-1.9-1.5-3
			c-0.4-2.3-0.6-4.6-0.5-6.9V583.5z"/>
		<polygon class="st3" points="587.5,608 587.5,586 591.8,586 600.8,600.7 600.8,586 604.9,586 604.9,608 600.5,608 591.6,593.6 
			591.6,608 		"/>
		<path class="st3" d="M608.7,597.1c-0.1-1.9,0.3-3.9,1-5.7c0.5-1.1,1.2-2.1,2-3c0.8-0.8,1.8-1.5,2.8-2c1.5-0.6,3.1-0.9,4.8-0.9
			c2.9-0.1,5.7,1,7.8,3c3.9,4.9,3.9,11.8,0,16.7c-4.4,4-11.1,4-15.6,0C609.6,603.1,608.5,600.1,608.7,597.1 M613.3,596.9
			c-0.2,2,0.5,4.1,1.7,5.7c1.1,1.3,2.7,2,4.4,1.9c1.7,0.1,3.3-0.6,4.4-1.9c1.3-1.6,1.9-3.7,1.7-5.8c0.2-2-0.4-4-1.6-5.7
			c-2.4-2.4-6.3-2.5-8.7-0.1c0,0-0.1,0.1-0.1,0.1C613.7,592.8,613.1,594.9,613.3,596.9"/>
		<polygon class="st3" points="651.6,610.5 651.6,599.1 641.7,583.4 648.1,583.4 654.5,594.1 660.7,583.4 667,583.4 657.1,599.2 
			657.1,610.5 		"/>
		<path class="st3" d="M690.8,610.5h-6l-2.4-6.2h-10.8l-2.2,6.2h-5.8l10.6-27.1h5.8L690.8,610.5z M680.7,599.8l-3.7-10.1l-3.7,10.1
			H680.7z"/>
		<rect x="693.5" y="583.4" class="st3" width="5.5" height="27.1"/>
		<path class="st3" d="M704.2,583.5H715c1.6,0,3.2,0.1,4.8,0.3c2.1,0.3,3.9,1.6,4.9,3.4c0.6,1,0.8,2.1,0.8,3.2c0,1.2-0.3,2.5-1,3.5
			c-0.7,1-1.6,1.9-2.8,2.4c1.5,0.4,2.8,1.2,3.8,2.5c0.9,1.2,1.4,2.6,1.3,4.1c0,1.2-0.3,2.5-0.9,3.6c-0.5,1.1-1.3,2.1-2.4,2.8
			c-1.1,0.7-2.4,1.2-3.7,1.3c-0.9,0.1-3.1,0.2-6.6,0.2h-9.2L704.2,583.5z M709.7,588v6.3h3.6c2.1,0,3.5,0,4-0.1
			c0.8-0.1,1.6-0.4,2.2-1c0.5-0.6,0.8-1.3,0.8-2.1c0-0.7-0.2-1.4-0.7-2c-0.5-0.6-1.3-0.9-2.1-1c-0.5-0.1-2.1-0.1-4.7-0.1L709.7,588z
			 M709.7,598.8v7.2h5.1c1.3,0,2.5,0,3.8-0.2c1.7-0.2,2.9-1.7,2.8-3.4c0-0.7-0.2-1.5-0.6-2.1c-0.4-0.6-1-1-1.7-1.2
			c-1.6-0.3-3.2-0.5-4.9-0.4H709.7z"/>
		<path class="st3" d="M756,610.5h-6l-2.4-6.2h-10.8l-2.2,6.2h-5.8l10.6-27.1h5.8L756,610.5z M745.9,599.8l-3.7-10.1l-3.7,10.1
			H745.9z"/>
		<path class="st3" d="M250.1,398.6c2-1.7,4.4-2.9,7-3.5c2.8-0.7,5.6-1.4,8.4-2c2.6-0.5,5.2-1.4,7.6-2.6c2.4-1.2,4.1-3.3,4.7-5.9
			c0.9-9.5,1.5-17.9,2-25.5c0.5-7.5,0.9-14.8,1.1-21.7c0.3-6.9,0.4-13.8,0.5-20.7s0.1-14.3,0.1-22.3c0-4.8,0.1-9.9,0.2-15.4
			s0.1-10.9-0.2-16.3c-0.3-5.3-1.1-10.5-2.2-15.7c-1-4.8-2.9-9.3-5.7-13.3l-3.8,9.6c-0.8-1.7-1.7-3.3-2.8-4.8
			c-1.4-2-2.8-4.1-4.3-6.3c-1.5-2.2-2.8-4.4-3.9-6.8c-1-2-1.6-4.2-1.6-6.5c9,0,17.6,0.4,25.9,1.2s16.5,1.6,24.7,2.4
			c8.2,0.8,16.6,1.5,25.3,2c9.2,0.5,18.4,0.4,27.6-0.1c1.7,3.9,4.6,7.2,8.1,9.5c3.3,2.1,6.8,3.8,10.5,5.1c3.6,1.3,7.3,2.5,11,3.6
			c3.6,1.1,7,2.9,9.9,5.3c1.4,1.8,2.4,3.8,2.9,6c1.1,3.2,2.3,7,3.6,11.5c1.3,4.4,2.5,9.2,3.7,14.3c1.2,5.1,2.2,10.1,3.2,14.8
			c0.9,4.7,1.7,8.9,2.3,12.5c0.5,2.5,0.8,5,0.9,7.5c0,3,0,5.9-0.1,8.6c-0.1,2.6-0.5,5.2-1.1,7.7c-0.7,2.4-1.9,4.7-3.7,6.5
			c-2.1,2.1-4.7,3.7-7.5,4.7l4.1,4.8c-0.5,1.2-1.5,3.3-3,6.3s-3.2,6.3-5,9.8c-1.8,3.5-3.4,6.9-5,10.1c-1.5,3.2-2.5,5.4-3.1,6.6
			c-1,1.4-1.8,3-2.3,4.7c-0.6,1.5-1.1,3.1-1.5,4.7c-2.1,0.4-4.3,1-6.4,1.7l-9.6,2.9l-9.5,2.9c-3,0.9-5.1,1.6-6.2,2
			c-0.7,0.4-2,1.3-3.9,2.7c-1.1,1-2.5,1.7-3.9,2.1c-1.5-0.3-2.9-1.1-4.1-2.1c-1.3-1-2.6-1.9-4.1-2.7h-3.8c-0.7,0.4-2,1.1-3.9,2.1
			c-1.4,0.7-2.8,1.6-3.9,2.7h-75.4L250.1,398.6z M317.4,318.7c0,4,0.2,8.7,0.6,14.2c0.4,5.5,1.1,11,2.1,16.7
			c1,5.7,2.3,11.3,3.8,16.7c1.2,4.7,3,9.3,5.3,13.6c0.3,0,1,0.1,2.2,0.2l3.5,0.3c1.3,0.1,2.5,0.2,3.6,0.3s1.9,0.1,2.4,0.1
			c6.5,0.3,12.7-2.2,17.3-6.8c4.6-4.8,8.1-10.6,10.4-16.9c2.6-7,4.5-14.3,5.6-21.7c1.2-7.7,2-14.8,2.5-21.3h5.6
			c0.1-3.7-0.2-7.4-0.6-11c-0.3-2.3-0.9-4.5-1.8-6.6c-0.7-1.5-1.5-3-2.4-4.4c-0.8-1.2-1.8-2.6-2.8-4.1c-1.2-1.9-2.2-3.9-3-6
			c-1.3-3.4-2.2-6.9-2.8-10.4c-1-5.2-2-10.2-2.9-14.8c-0.8-4.2-2.2-8.3-4.2-12.1c-1.8-3.4-4.6-6.2-7.9-8.1c-4.4-2.2-9.3-3.3-14.2-3
			c-3.4,0-6.6,0.1-9.8,0.1c-3.5,0.3-6.7,2.1-8.8,5c-0.3,3-0.7,8.3-1.1,15.8c-0.4,7.5-0.9,15.6-1.3,24.1c-0.4,8.6-0.8,16.6-1,24.1
			c-0.2,7.5-0.4,12.8-0.4,15.8"/>
		<path class="st0" d="M257.2,219.1c9,0,17.6,0.4,25.9,1.2l24.7,2.4c8.2,0.8,16.6,1.5,25.2,2c3.9,0.2,8,0.3,12.1,0.3
			c5,0,10.2-0.2,15.5-0.5c1.7,3.9,4.6,7.2,8.1,9.5c3.3,2.1,6.8,3.8,10.5,5.1c3.6,1.3,7.3,2.5,11,3.6c3.6,1.1,7,2.9,9.9,5.3
			c1.4,1.8,2.3,3.8,2.9,6c1.1,3.2,2.3,7,3.6,11.5c1.3,4.4,2.5,9.2,3.7,14.3c1.2,5.1,2.2,10.1,3.2,14.8c0.9,4.7,1.7,8.9,2.3,12.5
			c0.5,2.5,0.8,5,0.9,7.5c0,3,0,5.9-0.1,8.6c-0.1,2.6-0.5,5.2-1.1,7.7c-0.7,2.4-2,4.6-3.7,6.5c-2.1,2.1-4.7,3.7-7.5,4.7l4.1,4.8
			c-0.5,1.2-1.5,3.3-3,6.3l-5,9.8c-1.8,3.5-3.4,6.9-4.9,10.1c-1.5,3.2-2.5,5.4-3,6.6c-1,1.4-1.8,3-2.3,4.7c-0.6,1.5-1.1,3.1-1.5,4.7
			c-1.2,0.2-3.3,0.8-6.3,1.7l-9.7,2.9c-3.4,1-6.6,2-9.5,2.9s-5,1.6-6.2,2c-0.7,0.4-2,1.3-3.9,2.7c-1.1,1-2.5,1.7-4,2.1
			c-1.5-0.3-2.9-1-4.1-2.1c-1.3-1-2.6-1.9-4.1-2.7h-3.8c-0.7,0.4-2,1.1-3.9,2.1c-1.5,0.7-2.8,1.6-3.9,2.7h-75.4l-3.8-4.8
			c2-1.7,4.4-2.9,7-3.5c2.8-0.7,5.6-1.4,8.4-2c2.6-0.6,5.2-1.4,7.6-2.6c2.4-1.2,4.1-3.3,4.7-5.9c0.8-9.4,1.5-17.9,2-25.5
			c0.5-7.5,0.9-14.8,1.2-21.7c0.2-6.9,0.4-13.8,0.5-20.7c0.1-6.8,0.1-14.3,0.1-22.3c0-4.8,0.1-10,0.3-15.4
			c0.2-5.4,0.1-10.9-0.3-16.3c-0.3-5.3-1-10.5-2.2-15.7c-1-4.8-2.9-9.3-5.7-13.3l-3.8,9.6c-0.8-1.7-1.7-3.3-2.8-4.8
			c-1.3-2-2.8-4.1-4.3-6.3c-1.5-2.2-2.8-4.4-3.9-6.8C257.9,223.6,257.3,221.4,257.2,219.1 M341,380.8c6.4,0.3,12.7-2.2,17.2-6.8
			c4.6-4.8,8.2-10.6,10.4-16.9c2.6-7,4.5-14.3,5.6-21.7c1.2-7.7,2-14.8,2.5-21.3h5.6c0.1-3.7-0.2-7.4-0.6-11c-0.5-4-1.9-7.7-4.2-11
			c-0.9-1.2-1.8-2.6-2.8-4.1c-1.2-1.9-2.2-3.9-3.1-6c-1.3-3.4-2.2-6.9-2.8-10.4c-1-5.2-2-10.2-2.9-14.8c-0.8-4.2-2.2-8.3-4.2-12.1
			c-1.8-3.4-4.6-6.2-7.9-8.1c-4.4-2.2-9.3-3.3-14.2-3c-3.4,0-6.6,0.1-9.8,0.1c-3.5,0.3-6.7,2.1-8.8,5c-0.3,3-0.7,8.3-1.1,15.8
			c-0.4,7.5-0.9,15.6-1.3,24.1c-0.4,8.6-0.8,16.6-1,24.1c-0.2,7.5-0.4,12.8-0.4,15.8c0,4,0.2,8.7,0.6,14.2c0.4,5.5,1.1,11,2.2,16.7
			c1,5.6,2.3,11.2,3.8,16.7c1.2,4.7,3,9.3,5.3,13.6c0.3,0,1,0.1,2.2,0.1c1.1,0.1,2.3,0.2,3.6,0.3l3.5,0.3c1.1,0.1,1.9,0.2,2.4,0.2
			 M257.2,216.7c-1.3,0-2.4,1.1-2.4,2.4c0,0,0,0,0,0l0,0c0.1,2.6,0.7,5.2,1.9,7.5c1.2,2.5,2.6,4.9,4.1,7.1c1.5,2.2,3,4.3,4.3,6.3
			c1,1.4,1.8,2.9,2.6,4.4c0.4,0.9,1.3,1.5,2.2,1.5l0,0c1,0,1.9-0.6,2.3-1.6l2-5c1.3,2.6,2.2,5.4,2.9,8.3c1.1,5,1.8,10.2,2.1,15.3
			c0.3,5.3,0.4,10.7,0.2,16c-0.2,5.3-0.3,10.6-0.3,15.5c0,7.9,0,15.4-0.1,22.3s-0.3,13.8-0.5,20.6s-0.6,14.2-1.1,21.6
			c-0.5,7.5-1.2,15.9-2,25.2c-0.5,1.8-1.7,3.3-3.3,4.2c-2.3,1.1-4.6,1.9-7.1,2.4c-2.8,0.6-5.6,1.3-8.5,2c-2.9,0.7-5.7,2.1-8,4
			c-1,0.9-1.1,2.3-0.3,3.4l3.8,4.8c0.5,0.6,1.2,0.9,1.9,0.9h75.4c0.7,0,1.4-0.3,1.9-0.9c0.9-0.9,2-1.6,3.2-2.1
			c1.5-0.8,2.7-1.4,3.4-1.8h2.6c1.1,0.7,2.2,1.4,3.2,2.2c1.5,1.4,3.5,2.3,5.5,2.6c2-0.3,3.9-1.2,5.4-2.6c2-1.5,3-2.1,3.5-2.5
			c1.2-0.4,3.1-1,5.9-1.9c3-0.9,6.1-1.9,9.5-2.9l9.6-2.9c2-0.6,4-1.2,6.1-1.6c1-0.2,1.8-0.9,2-1.9c0.4-1.5,0.9-2.9,1.4-4.4
			c0.4-1.4,1-2.8,1.9-4c0.2-0.2,0.3-0.4,0.4-0.6c0.5-1.1,1.5-3.4,3-6.5c1.5-3.2,3.2-6.6,4.9-10l3.1-6.2l1.8-3.6
			c1.6-3.1,2.6-5.2,3.1-6.5c0.4-0.9,0.2-1.8-0.4-2.5l-2-2.3c2-1,3.8-2.3,5.3-3.9c2-2.1,3.4-4.7,4.2-7.5c0.7-2.7,1.1-5.5,1.2-8.3
			c0.1-2.8,0.1-5.7,0.1-8.7c-0.1-2.7-0.4-5.3-0.9-7.9c-0.6-3.6-1.4-7.9-2.3-12.6s-2-9.7-3.2-14.9s-2.4-10-3.7-14.5
			c-1.3-4.5-2.5-8.3-3.6-11.6c-0.7-2.6-1.9-5-3.5-7l-0.1-0.1c-3.1-2.6-6.8-4.6-10.7-5.8c-3.7-1.1-7.3-2.3-10.9-3.6
			c-3.5-1.3-6.9-2.9-10.1-4.9c-3.2-2.1-5.7-5-7.2-8.5c-0.4-0.8-1.3-1.4-2.2-1.4h-0.2c-5.3,0.3-10.5,0.5-15.4,0.5
			c-4.1,0-8.1-0.1-12-0.4c-8.6-0.5-17-1.1-25.2-1.9l-7-0.7l-17.8-1.7C274.9,217.1,266.1,216.7,257.2,216.7 M323.5,239.8
			c1.6-2,3.9-3.3,6.5-3.6c3.1-0.1,6.4-0.1,9.7-0.1c4.5-0.3,9,0.7,13,2.7c3,1.7,5.4,4.2,7,7.2c1.9,3.6,3.2,7.4,3.9,11.4
			c0.9,4.6,1.9,9.5,2.9,14.8c0.6,3.7,1.6,7.3,2.9,10.9c0.9,2.3,2,4.4,3.3,6.5c1,1.5,2,2.9,2.8,4.1c2.1,3,3.3,6.4,3.8,10
			c0.4,2.7,0.6,5.5,0.6,8.2h-3.1c-1.3,0-2.3,1-2.4,2.2c-0.5,6.3-1.3,13.4-2.5,21.1c-1.1,7.2-2.9,14.4-5.4,21.2
			c-2.2,6-5.5,11.4-9.9,16c-4.1,4.1-9.7,6.3-15.5,6c-0.3,0-0.9,0-2.2-0.1c-1.1-0.1-2.3-0.2-3.6-0.3l-3.5-0.3c-0.3,0-0.6-0.1-0.9-0.1
			c-1.9-3.8-3.4-7.8-4.5-11.9c-1.5-5.3-2.8-10.9-3.8-16.5c-1-5.6-1.7-11.2-2.1-16.5s-0.6-10-0.6-14c0-3,0.1-8.3,0.4-15.8
			c0.2-7.6,0.6-15.7,1-24.1c0.4-8.1,0.8-16.2,1.3-24.1C322.9,247.9,323.2,242.8,323.5,239.8"/>
		<path class="st3" d="M458.9,394c-13.2,0.9-26.4,0-39.4-2.6c0-0.2,0-0.5-0.1-0.7c-0.1-0.2-0.1-0.4-0.1-0.6c-0.1-1.7,0.8-3.3,2.4-4
			c1.6-0.8,3.4-1.3,5.1-1.8c1.8-0.4,3.5-1,5.1-1.9c1.6-0.8,2.5-2.5,2.4-4.3v-57.9c0.6-0.8,1.1-1.7,1.4-2.6c0.5-1.3,0.9-2.2,1-2.6
			v-1.3c0.2-3.2-0.4-6.4-1.8-9.2c-1.1-1.8-2.7-3.4-4.5-4.5c-1.8-1.1-3.7-2.2-5.7-3.3c-2.2-1.3-4-3.2-5.2-5.4
			c-0.3-0.4-0.5-0.8-0.4-1.3h7.8l66.5,1.3l7.4-13.2h2.5c0.5,0,1,0.6,1.3,1.8c0.4,1.4,0.7,2.8,0.8,4.2c0.2,1.6,0.3,3.3,0.4,5.1
			c0.1,1.8,0.1,3.5,0.1,4.9v3.7c0,0.7,0,2.3-0.1,4.6c-0.1,2.3-0.1,3.9-0.1,4.6c-1.7-0.1-3.3,0.6-4.3,1.9c-1,1.4-1.8,2.9-2.4,4.5
			c-0.6,1.8-1.2,3.5-1.8,5.3c-0.5,1.6-1.4,3.1-2.7,4.2v-15.8l-3.7,5.3l-4.9-10.5h-21.1c0.1,1.4,0.5,2.7,1,4c0.6,1.2,0.8,2.7,0.4,4
			c-0.1,0.5-0.3,0.9-0.7,1.2c-0.5,0.5-1,1.1-1.6,1.6c-0.6,0.6-1.2,1.1-1.6,1.5c-0.5,0.4-0.8,0.7-0.9,0.9c-1.1,1.6-1.9,3.4-2.2,5.4
			c-0.6,2.4-1.1,4.9-1.8,7.4c-0.5,2.2-1.3,4.3-2.2,6.4c-0.9,1.8-2.1,2.4-3.6,2l2.5,2.6c0.1,0.1,0.9,0.1,2.3,0s3-0.4,4.8-0.6
			s3.7-0.6,5.5-1s3.4-0.7,4.6-1c1.3-0.3,2.3-1.2,2.9-2.4c0.7-1.5,1.2-3,1.5-4.6c0.4-1.9,0.6-3.8,0.7-5.7c0.1-2,0.2-4,0.2-5.7v-5.4
			h4.5c0.3,0,0.5,0.6,0.8,1.8c0.3,1.2,0.5,2.6,0.8,4.3s0.5,3.4,0.6,5.3s0.2,3.3,0.2,4.5c0,0.9-0.1,1.8-0.3,2.7
			c-0.2,1.2-0.4,2.5-0.6,3.8c-0.2,1.3-0.5,2.6-0.8,3.8c-0.4,1.2-0.6,2.2-0.7,2.8l-2.5-2.6c-0.4,0-0.9,0.3-1.5,1
			c-0.5,0.4-0.8,1-0.9,1.6c0,1.9,0.3,3.7,0.7,5.5c0.5,1.9,1,3.9,1.6,5.9s1.2,4.1,1.7,6.1c0.5,2,0.8,4.1,0.8,6.1v5.3
			c-1.4-2.3-2.3-4.8-2.9-7.4c-0.7-3-1.4-5.9-2.3-8.8c-0.7-2.7-1.9-5.1-3.6-7.4c-1.7-2.1-4.4-3.3-7.1-3.1c-2-0.1-4,0.4-5.8,1.2
			c-1.7,0.8-3.6,1.2-5.4,1.2V365l4.9-2.6c-1.3,4.8-0.7,10,1.9,14.4c1.2,2.1,2.8,3.8,4.7,5.2c1.9,1.3,4.2,2,6.6,2
			c0.8,0,1.7-0.1,2.5-0.2c1-0.1,1.5-0.2,1.6-0.2l17.2-18.4c0,0.2,0,0.4,0.1,0.7c0.1,0.2,0.1,0.4,0.1,0.7c0,0.4-0.1,0.9-0.2,1.3
			c-1.3,2.8-2.8,5.4-4.6,7.9c-1.6,2.3-2.5,5.1-2.4,7.9h2c0.3,0,1.1-0.6,2.4-1.8s2.7-2.6,4.3-4.3s3.1-3.4,4.6-5.3s2.7-3.3,3.5-4.5
			c0.5-0.9,0.9-1.8,1.1-2.9c0.3-1.3,0.6-2.8,0.9-4.3s0.5-3.1,0.6-4.6s0.2-2.9,0.2-4.1h2.9c0,4.7-0.6,9.4-1.7,14
			c-1.1,4.5-1.7,9.2-1.7,13.9c0,1.2,0.1,2.5,0.2,3.7c0.1,1.3,1.1,2.4,2.5,2.6c-2.4,2.3-5.5,3.6-8.8,3.6c-4.1,0.4-8.5,0.6-13.3,0.8
			c-4.9,0.1-9.7,0.6-14.6,1.2c-4.5,0.5-8.9,2.2-12.5,4.9h2.5L458.9,394z"/>
		<path class="st0" d="M503.2,278.1c0.5,0,1,0.6,1.3,1.8c0.4,1.4,0.6,2.8,0.8,4.2c0.2,1.6,0.3,3.3,0.4,5.1c0.1,1.8,0.1,3.5,0.1,4.9
			v3.7c0,0.7,0,2.3-0.1,4.6c-0.1,2.3-0.1,3.9-0.1,4.6c-1.7-0.1-3.3,0.6-4.3,1.9c-1,1.4-1.8,2.9-2.4,4.5c-0.6,1.8-1.2,3.5-1.8,5.3
			c-0.4,1.6-1.4,3.1-2.7,4.2v-15.8l-3.7,5.3l-4.9-10.5h-21.1c0.1,1.4,0.5,2.7,1,4c0.7,1.2,0.8,2.7,0.4,4c-0.1,0.5-0.4,0.9-0.7,1.2
			c-0.5,0.5-1,1.1-1.6,1.6c-0.6,0.6-1.2,1.1-1.6,1.5c-0.5,0.4-0.8,0.7-0.9,0.9c-1.2,1.6-1.9,3.4-2.3,5.4c-0.6,2.4-1.1,4.9-1.8,7.4
			c-0.5,2.2-1.3,4.3-2.2,6.4c-0.4,1.2-1.5,2-2.7,2.1c-0.3,0-0.6-0.1-0.9-0.1l2.5,2.6c0.1,0.1,0.3,0.1,0.7,0.1c0.4,0,0.9,0,1.6-0.1
			c1.4-0.1,3-0.4,4.8-0.7s3.7-0.6,5.5-1s3.4-0.7,4.6-1c1.3-0.3,2.3-1.2,2.9-2.4c0.7-1.5,1.2-3,1.5-4.6c0.4-1.9,0.6-3.8,0.7-5.7
			c0.1-2,0.2-4,0.2-5.7v-5.3h4.5c0.3,0,0.5,0.6,0.8,1.8s0.5,2.6,0.8,4.3s0.5,3.4,0.6,5.3s0.2,3.3,0.2,4.5c0,0.9-0.1,1.8-0.3,2.7
			c-0.2,1.2-0.4,2.5-0.6,3.8c-0.2,1.3-0.5,2.6-0.8,3.8c-0.4,1.2-0.6,2.2-0.7,2.8l-2.5-2.6c-0.4,0-0.9,0.3-1.5,1
			c-0.5,0.4-0.8,1-0.9,1.6c0,1.9,0.3,3.7,0.7,5.5c0.5,1.9,1,3.9,1.6,5.9s1.2,4.1,1.8,6.1c0.5,2,0.8,4.1,0.8,6.1v5.3
			c-1.4-2.3-2.4-4.7-2.9-7.3c-0.7-3-1.4-5.9-2.2-8.8c-0.7-2.7-1.9-5.2-3.6-7.4c-1.7-2.1-4.4-3.3-7.1-3.1c-2-0.1-4,0.4-5.9,1.2
			c-1.7,0.8-3.5,1.2-5.4,1.2v18.9l4.9-2.6c-0.7,2.4-0.8,5-0.5,7.5c0.3,2.4,1.1,4.8,2.4,6.9c1.2,2.1,2.8,3.8,4.7,5.2
			c1.9,1.3,4.2,2,6.6,2c0.8,0,1.6-0.1,2.5-0.2c1-0.1,1.5-0.2,1.6-0.2l17.2-18.4c0,0.2,0,0.4,0.1,0.7c0,0.2,0.1,0.4,0.1,0.7
			c-0.1,0.4-0.1,0.9-0.2,1.3c-1.3,2.8-2.8,5.4-4.6,7.9c-1.6,2.3-2.5,5.1-2.4,7.9h2.1c0.3,0,1-0.6,2.4-1.8s2.7-2.6,4.3-4.3
			s3.1-3.4,4.6-5.3s2.7-3.3,3.5-4.5c0.5-0.9,0.9-1.8,1.1-2.9c0.3-1.3,0.7-2.8,0.9-4.3c0.3-1.5,0.5-3.1,0.6-4.6s0.2-2.9,0.2-4.1h2.9
			c0,4.7-0.6,9.4-1.8,14c-1.2,4.5-1.8,9.2-1.8,13.8c0,1.2,0.1,2.5,0.2,3.7c0.1,1.3,1.1,2.4,2.5,2.6c-2.4,2.3-5.5,3.6-8.8,3.6
			c-4.1,0.4-8.6,0.6-13.4,0.8c-4.9,0.2-9.7,0.6-14.6,1.2c-3.9,0.5-7.7,1.8-11,3.9l-1.5-1.6c-3.4,0.2-6.8,0.3-10.2,0.3
			c-9.8,0-19.7-1-29.3-3c0-0.2,0-0.5-0.1-0.7c-0.1-0.2-0.1-0.4-0.1-0.6c-0.1-1.7,0.8-3.3,2.4-4c1.6-0.8,3.4-1.3,5.1-1.8
			c1.8-0.4,3.5-1,5.1-1.9c1.6-0.8,2.5-2.5,2.4-4.3v-57.9c0.6-0.8,1.1-1.7,1.4-2.6c0.6-1.3,0.9-2.2,1-2.6v-1.3
			c0.2-3.2-0.4-6.4-1.8-9.2c-1.1-1.8-2.7-3.4-4.5-4.5c-1.8-1.1-3.7-2.2-5.6-3.3c-2.2-1.3-4-3.2-5.2-5.4c-0.3-0.4-0.4-0.8-0.4-1.3
			h7.8l66.5,1.3l7.4-13.2H503.2 M509,351.9L509,351.9 M458.9,362.5L458.9,362.5 M460.4,395.6l1,1h-2.5
			C459.4,396.3,459.9,396,460.4,395.6 M503.2,275.7h-2.5c-0.9,0-1.7,0.5-2.1,1.2l-6.7,11.9l-65-1.3h-7.9c-0.6,0-1.3,0.2-1.7,0.7
			c-0.5,0.5-0.7,1.1-0.7,1.7c0,1,0.3,2,0.9,2.8c1.4,2.5,3.5,4.6,6,6.1c1.9,1.1,3.8,2.2,5.5,3.2c1.5,1,2.8,2.2,3.7,3.7
			c1.2,2.5,1.7,5.2,1.5,7.9v0.9c-0.1,0.4-0.4,1-0.9,2.1c-0.3,0.7-0.6,1.3-1,1.9c-0.4,0.5-0.6,1-0.6,1.7v58c0,1.4-0.5,1.8-1,2.1
			c-1.5,0.7-3,1.3-4.6,1.7c-1.9,0.5-3.8,1.1-5.6,1.9c-2.4,1.1-3.9,3.5-3.8,6.2c0,0.4,0.1,0.8,0.2,1.2v0.2c0,1.1,0.8,2.1,1.9,2.3
			c9.8,2,19.8,3,29.8,3c2.5,0,5.1-0.1,7.7-0.2c0,0.3,0,0.6,0.1,0.8c0.3,1,1.3,1.7,2.3,1.6h2.5c1,0,1.9-0.6,2.2-1.5
			c0.2-0.4,0.2-0.8,0.2-1.2c2.5-1.2,5.2-2,7.9-2.3c4.8-0.6,9.6-1,14.3-1.2s9.3-0.4,13.5-0.8c3.9-0.1,7.7-1.7,10.5-4.5
			c0.9-1,0.8-2.5-0.2-3.4c0,0,0,0,0,0c-0.3-0.2-0.6-0.4-0.9-0.5c-0.7-0.2-0.7-0.4-0.7-0.5c-0.1-1.2-0.2-2.3-0.2-3.5
			c0-4.5,0.6-8.9,1.7-13.2c1.2-4.7,1.8-9.6,1.8-14.5v-0.2c0-1.3-1-2.4-2.4-2.5h-2.9c-1.3,0-2.4,1.1-2.5,2.4c0,1.1-0.1,2.4-0.2,3.9
			s-0.3,2.9-0.6,4.4s-0.6,2.8-0.9,4.1c-0.1,0.7-0.4,1.4-0.8,2.1c-0.8,1.1-1.9,2.6-3.4,4.4s-3,3.5-4.5,5.1s-2.8,2.9-4,4
			c0.3-1,0.7-1.9,1.4-2.7c1.9-2.6,3.6-5.4,4.9-8.4c0.1-0.2,0.2-0.4,0.2-0.6c0.1-0.6,0.2-1.2,0.2-1.8c0-0.4-0.1-0.8-0.2-1.2l0-0.2
			c0-1-0.6-1.9-1.5-2.2c-0.3-0.1-0.6-0.2-0.9-0.2c-0.7,0-1.4,0.3-1.8,0.8L475,381.2l-0.8,0.1c-0.7,0.1-1.4,0.2-2.1,0.2
			c-1.8,0-3.7-0.5-5.2-1.5c-1.6-1.1-3-2.6-4-4.4c-1.1-1.8-1.8-3.9-2.1-6c-0.3-2.1-0.2-4.3,0.4-6.3c0.4-1.3-0.2-2.7-1.5-3.1
			c-0.3-0.1-0.5-0.1-0.8-0.1h-0.1c-0.4,0-0.8,0.1-1.1,0.3l-1.3,0.7v-12.5c1.4-0.2,2.8-0.6,4.1-1.3c1.5-0.7,3.1-1,4.7-0.9
			c2-0.2,3.9,0.6,5.1,2.1c1.5,2,2.5,4.2,3.2,6.5c0.8,2.8,1.5,5.7,2.2,8.6c0.6,2.9,1.7,5.6,3.2,8.1c0.4,0.7,1.2,1.1,2,1.1
			c0.2,0,0.5,0,0.7-0.1c1-0.3,1.8-1.3,1.8-2.4v-5.3c0-2.3-0.3-4.6-0.9-6.8c-0.6-2.1-1.2-4.2-1.8-6.2s-1.1-4-1.6-5.8
			c-0.3-1.3-0.5-2.6-0.6-3.9l0.7,0.7c0.5,0.5,1.1,0.8,1.8,0.8c0.2,0,0.4,0,0.6-0.1c0.9-0.2,1.5-0.9,1.8-1.8c0.1-0.6,0.4-1.4,0.7-2.6
			c0.4-1.4,0.7-2.7,0.9-4.1c0.2-1.3,0.4-2.6,0.6-3.8c0.2-1,0.3-2.1,0.3-3.1c0-1.2-0.1-2.8-0.2-4.7s-0.4-3.7-0.6-5.5
			s-0.6-3.2-0.9-4.4s-0.9-3.6-3.2-3.6h-4.5c-1.3,0-2.4,1.1-2.4,2.4l0,0v5.3c0,1.7-0.1,3.5-0.2,5.5c-0.1,1.8-0.3,3.6-0.7,5.4
			c-0.2,1.4-0.7,2.7-1.3,3.9c-0.2,0.6-0.7,1-1.3,1.2c-1.2,0.3-2.7,0.6-4.5,1c-1.8,0.4-3.6,0.7-5.5,1c-1.5,0.2-2.8,0.4-4,0.5
			c0.2-0.3,0.4-0.7,0.6-1c1.1-2.2,1.9-4.5,2.4-6.9c0.6-2.5,1.2-5,1.8-7.4c0.3-1.5,0.8-3,1.7-4.3c0.2-0.2,0.5-0.5,0.7-0.7l1.7-1.6
			c0.7-0.6,1.2-1.2,1.7-1.8c0.6-0.6,1-1.3,1.3-2.1c0.5-1.8,0.3-3.8-0.5-5.5c-0.1-0.2-0.2-0.5-0.2-0.7h16.5l4.3,9.1
			c0.4,0.8,1.1,1.3,2,1.4h0.2c0.4,0,0.9-0.1,1.2-0.3v8.4c0,0.9,0.6,1.8,1.4,2.2c0.3,0.2,0.7,0.2,1,0.2c0.6,0,1.1-0.2,1.6-0.6
			c1.6-1.4,2.8-3.2,3.4-5.3c0.5-1.7,1.1-3.4,1.7-5.2c0.5-1.4,1.1-2.7,2-3.8c0.6-0.7,1.5-1,2.4-0.9c1.3,0,2.4-1.1,2.5-2.4l0,0
			c0-0.7,0-2.2,0.1-4.5s0.1-3.9,0.1-4.7v-3.7c0-1.5,0-3.1-0.1-5s-0.2-3.7-0.4-5.4c-0.2-1.5-0.5-3.1-0.9-4.5
			C506,276.4,504.4,275.8,503.2,275.7"/>
		<path class="st3" d="M577.2,365.2c-1.4-0.5-2.5-1.8-2.7-3.3c-0.3-1.5-0.2-3.1,0.2-4.6c-0.3,0.8-0.7,1.5-0.9,2.3
			c-0.4,0.9-0.8,1.9-1.2,2.8c-0.4,0.8-1,1.6-1.8,2.2c-0.6,0.6-1.4,0.9-2.3,0.9c-0.4,0-1.1-1.2-2.2-3.5c-1-2.3-2.3-5.3-3.7-8.8
			c-1.4-3.5-3-7.4-4.7-11.7s-3.4-8.4-5-12.3s-3.1-7.4-4.5-10.4c-0.9-2.2-2-4.2-3.3-6.1v52.7c0.1,2.4,0.5,4.8,1.2,7.1
			c0.8,2.7,2,5.3,3.4,7.8c1.4,2.4,3.2,4.5,5.3,6.2c2.1,1.7,4.6,2.6,7.3,2.5l-2.5,2.6H523c-0.4,0-0.8-0.3-1.2-1
			c-0.4-0.6-0.8-1.1-1.2-1.6c-0.1-0.4-0.2-0.9-0.2-1.3c-0.1-1.5,1-2.8,2.5-3.1c1.7-0.5,3.5-1,5.5-1.6c2.2-0.7,4.2-1.9,5.9-3.5
			c2.2-2.5,3.5-5.6,3.6-8.9v-5.3c0-2.5,0-5.1,0.1-7.9c0.1-2.8,0.1-5.4,0.1-7.9v-12.1c0-2.8,0-5.6-0.1-8.5c-0.1-2.9-0.1-5.3-0.1-7.4
			v-3.7c0-5-0.5-9.9-1.5-14.8c-0.3-2.1-1.7-4-3.6-4.9c-2.1-0.6-4.4-0.7-6.6-0.3c-3.5,0.3-7.1,0-10.5-1c-0.8-0.3-1.4-0.9-1.7-1.6
			c-0.5-0.6-0.8-1.5-0.7-2.3h22.2v-7.5c1.4,0.3,2.7,0.9,3.9,1.6c2,1.1,4.2,2.3,6.5,3.6s4.3,2.6,6.1,3.9c1.1,0.7,2.2,1.5,3.2,2.3
			c0.2-1.3,0.9-2.5,1.8-3.3c1.2-1.3,2.2-2,3.1-2c3.2-0.2,6.3,1.2,8.2,3.8c1.9,2.8,3.2,5.9,3.8,9.1c0.7,3.5,1.2,7,1.4,10.5
			c0.1,2.8,0.5,5.5,1.3,8.1c0.6,2.8,1.5,5.6,2.6,8.2c1.2,3,2.4,6,3.8,9.1c1.4,3.1,2.8,6.1,4.3,9.1c1.5,3,2.9,5.6,4.1,7.8
			c0.5-0.1,1.4-1.5,2.7-4.1c1.2-2.6,2.6-5.8,4.1-9.7c1.5-3.9,3-8.1,4.5-12.6c1.5-4.5,2.9-8.9,4.1-13.1c1.2-4.2,2.3-7.9,3.1-11.1
			c0.6-2.1,1-4.2,1.2-6.4v-1.1c-1-0.6-2.1-1.1-3.2-1.4c-1.1-0.3-2.2-0.7-3.3-1.2c-1-0.4-1.9-1-2.7-1.8c-0.8-1-1.3-2.2-1.1-3.5h2.9
			c0.5,0,1.9,0.1,4.1,0.4c2.2,0.3,4.5,0.6,7,0.9s4.8,0.6,7,0.9c2.2,0.3,3.5,0.4,4.1,0.4s2.2-0.1,4.8-0.4c2.7-0.3,5.5-0.6,8.6-0.9
			c3.1-0.3,6-0.6,8.6-0.9c2.7-0.3,4.3-0.4,5-0.4h4.5c0.2,1.9-0.5,3.7-1.8,5c-1.3,0.9-2.8,1.6-4.3,2c-1.7,0.4-3.3,1-4.8,1.8
			c-1.7,0.9-2.9,2.5-3.4,4.4c-1.9,5.4-3.1,10.9-3.8,16.6c-0.8,6.1-1.2,12.3-1.3,18.4c-0.1,6.2-0.1,12.2,0,18
			c0.1,5.8,0.2,10.9,0.2,15.5h3.7v10.1c1.2,0.4,2.4,0.5,3.7,0.4c0.7-0.1,2-0.5,3.8-1.1c1.3-0.3,2.5-0.8,3.6-1.5v7.7
			c-0.7,0-1.9,0-3.7,0.1c-1.8,0.1-3,0.1-3.7,0.1c-1.4,0-3.8,0.1-7.3,0.3s-7.2,0.4-11.2,0.7c-4,0.2-7.7,0.5-11.2,0.9
			c-3.5,0.4-5.9,0.6-7.3,0.8l-4.9-2.6c0.8-1.3,1.9-2.3,3.2-3c1.6-1,3.3-1.8,5-2.5c1.8-0.7,4-1.5,6.6-2.4c2.2-1,3.6-1.7,4.2-2
			c0.6-0.3,0.9-0.6,0.7-1s-0.5-1.1-0.9-2.1c-0.6-1.8-0.8-3.6-0.7-5.5h-1.2c0-0.6,0-1.9,0.1-4c0-1.3,0.1-2.6,0.3-4
			c0.1-0.9,0.2-1.7,0.4-2.5c0.3-1.2,0.5-2.6,0.8-4.1s0.5-2.8,0.8-4c0.2-0.8,0.3-1.5,0.4-2.3c0-0.1-0.3-0.5-0.8-1l-1.7-1.6l-1.6-1.5
			c-0.5-0.4-0.7-0.8-0.7-1.1s0.2-1.3,1.1-2.6c0.6-0.8,1.1-1.7,1.3-2.6c0-0.1,0-1.1,0.1-2.8s0.1-3,0.1-3.8c0-0.6,0-1.7-0.1-3.3
			s-0.1-2.7-0.1-3.3l-2.5,5.3c0.2-1,0.3-2,0.4-3.1c0.1-1.5,0.1-3-0.1-4.5c-0.2-1.4-0.6-2.8-1.2-4.1c-0.5-1.1-1.6-1.8-2.8-1.8
			c-0.2,0-0.4,0.1-0.6,0.1c-0.2,0.1-0.4,0.1-0.6,0.1c-1.8,3.5-3.3,7.1-4.5,10.8c-1.5,4.4-3,9.1-4.5,14.2s-3.1,10.2-4.7,15.6
			s-3.4,10.4-5.3,15.1c-1.7,4.3-3.7,8.6-6.1,12.6c-1.7,3.2-4,5.9-6.9,8.1c-0.6-0.8-1.1-1.6-1.5-2.5c-0.5-0.8-0.8-1.8-0.9-2.7
			c0-0.9,0-2.4-0.1-4.6c-0.1-2.2-0.1-4.5-0.1-7c0-2.6,0-5.1,0.1-7.4C577.2,367.7,577.2,366.1,577.2,365.2"/>
		<path class="st0" d="M535.3,285.3c1.4,0.3,2.7,0.9,3.9,1.6c2.1,1.1,4.2,2.3,6.5,3.6s4.3,2.6,6.2,3.8c1.1,0.7,2.2,1.5,3.2,2.3
			c0.2-1.3,0.9-2.5,1.9-3.3c1.2-1.3,2.2-2,3.1-2c3.2-0.2,6.3,1.2,8.2,3.8c1.9,2.8,3.2,5.8,3.8,9.1c0.8,3.5,1.2,7,1.4,10.5
			c0.1,2.8,0.5,5.5,1.3,8.1c0.6,2.8,1.5,5.6,2.6,8.2c1.2,3,2.4,6,3.8,9.1c1.4,3.1,2.8,6.1,4.3,9.1s2.9,5.6,4.1,7.8
			c0.5-0.1,1.4-1.5,2.7-4.1c1.2-2.6,2.6-5.8,4.1-9.6c1.5-3.9,3-8.1,4.5-12.6s2.9-8.9,4.1-13.1c1.2-4.2,2.2-7.9,3.1-11.1
			c0.6-2.1,1-4.2,1.2-6.4v-1.1c-1-0.6-2.1-1.1-3.2-1.4c-1.2-0.4-2.3-0.8-3.3-1.2c-1-0.4-1.9-1-2.7-1.8c-0.8-1-1.2-2.2-1.1-3.5h2.9
			c0.5,0,1.9,0.1,4.1,0.4c2.2,0.3,4.5,0.6,7,0.9c2.5,0.3,4.8,0.6,7,0.9s3.5,0.4,4.1,0.4c0.5,0,2.2-0.1,4.8-0.4s5.5-0.6,8.6-0.9
			c3.1-0.3,5.9-0.6,8.6-0.9c2.7-0.3,4.3-0.4,5-0.4h4.5c0.2,1.9-0.5,3.7-1.9,5c-1.3,0.9-2.8,1.6-4.3,2c-1.7,0.4-3.3,1-4.8,1.8
			c-1.7,0.9-3,2.5-3.4,4.4c-1.9,5.4-3.1,10.9-3.8,16.6c-0.8,6.1-1.2,12.3-1.3,18.5c-0.1,6.2-0.1,12.2,0,18
			c0.1,5.8,0.2,10.9,0.2,15.5h3.7v10.1c1,0.3,2,0.4,3.1,0.5c0.2,0,0.4,0,0.6-0.1c0.7-0.1,2-0.5,3.8-1.1c1.3-0.3,2.5-0.8,3.6-1.5v7.7
			c-0.7,0-1.9,0-3.7,0.1s-3,0.1-3.7,0.1c-1.4,0-3.8,0.1-7.3,0.3c-3.5,0.2-7.2,0.4-11.2,0.6c-4,0.2-7.7,0.5-11.2,0.9l-7.3,0.8
			l-4.9-2.6c0.8-1.3,1.9-2.3,3.2-3c1.6-1,3.3-1.8,5-2.5c1.8-0.7,4-1.5,6.6-2.4l4.2-2c0.6-0.3,0.8-0.6,0.7-1s-0.4-1-0.9-2.1
			c-0.6-1.8-0.8-3.6-0.7-5.5h-1.2c0-0.6,0-1.9,0.1-3.9c0-1.3,0.1-2.7,0.3-4c0.1-0.9,0.2-1.7,0.4-2.5c0.3-1.2,0.5-2.6,0.8-4.1
			s0.5-2.8,0.8-4.1c0.2-0.8,0.4-1.5,0.4-2.3c0-0.1-0.3-0.5-0.8-1s-1.1-1-1.7-1.6l-1.6-1.5c-0.5-0.4-0.7-0.8-0.7-1.1
			c-0.1-0.5,0.2-1.3,1.1-2.6c0.6-0.8,1.1-1.7,1.3-2.6c0-0.1,0-1.1,0.1-2.7s0.1-3,0.1-3.9c0-0.6,0-1.7-0.1-3.3s-0.1-2.7-0.1-3.3
			l-2.5,5.3c0.2-1,0.3-2,0.4-3.1c0.1-1.5,0.1-3-0.1-4.5c-0.2-1.4-0.6-2.8-1.2-4.1c-0.5-1.1-1.6-1.8-2.8-1.8c-0.2,0-0.4,0-0.6,0.1
			c-0.2,0.1-0.4,0.1-0.6,0.1c-1.8,3.5-3.3,7.1-4.5,10.8c-1.5,4.4-3,9.1-4.5,14.2c-1.5,5.1-3.1,10.2-4.7,15.6
			c-1.6,5.3-3.4,10.4-5.3,15.1c-1.7,4.3-3.7,8.5-6.1,12.6c-1.7,3.2-4,5.9-6.9,8.1c-0.6-0.8-1.1-1.6-1.5-2.5
			c-0.5-0.8-0.8-1.8-0.9-2.7c0-0.9,0-2.4-0.1-4.6c-0.1-2.2-0.1-4.5-0.1-7s0-5.1,0.1-7.3c0.1-2.3,0.1-3.8,0.1-4.7
			c-1.4-0.5-2.5-1.8-2.7-3.3c-0.3-1.5-0.2-3.1,0.2-4.6c-0.3,0.6-0.6,1.4-0.9,2.3c-0.3,0.9-0.8,1.9-1.2,2.7c-0.4,0.8-1,1.6-1.7,2.2
			c-0.6,0.6-1.5,0.9-2.3,0.8c-0.4,0-1.1-1.2-2.2-3.5c-1-2.3-2.3-5.3-3.7-8.8c-1.4-3.5-3-7.4-4.7-11.7s-3.4-8.4-5-12.3
			s-3.2-7.4-4.5-10.4c-0.9-2.2-2-4.2-3.3-6.1v52.7c0.1,2.4,0.5,4.8,1.2,7.1c0.8,2.7,2,5.3,3.4,7.8c1.4,2.4,3.2,4.5,5.3,6.3
			c2.1,1.7,4.6,2.6,7.3,2.5l-2.5,2.6H523c-0.4,0-0.8-0.3-1.2-1c-0.4-0.6-0.8-1.1-1.2-1.6c-0.1-0.4-0.2-0.9-0.2-1.3
			c-0.1-1.5,1-2.8,2.5-3.1c1.6-0.4,3.5-1,5.5-1.6c2.2-0.7,4.2-1.9,5.9-3.5c2.2-2.5,3.5-5.6,3.6-8.9v-5.3c0-2.5,0-5.1,0.1-7.9
			c0.1-2.8,0.1-5.4,0.1-7.9v-12.1c0-2.8,0-5.6-0.1-8.5s-0.1-5.3-0.1-7.4v-3.7c0-5-0.5-9.9-1.5-14.8c-0.3-2.1-1.7-4-3.6-4.9
			c-1.2-0.4-2.4-0.6-3.7-0.5c-1,0-1.9,0.1-2.9,0.2c-0.8,0.1-1.5,0.1-2.3,0.1c-2.8-0.1-5.5-0.4-8.2-1.1c-0.8-0.3-1.4-0.9-1.7-1.6
			c-0.5-0.6-0.8-1.5-0.7-2.3h22.2V285.3 M655.5,291.5L655.5,291.5 M535.3,282.9c-1.3,0-2.4,1.1-2.5,2.4l0,0v5h-19.7
			c-1.1,0-2.1,0.8-2.4,1.9c-0.3,1.5,0.1,3,1,4.2c0.7,1.3,1.8,2.2,3.2,2.7c2.9,0.7,5.8,1.1,8.8,1.2c0.9,0,1.8-0.1,2.7-0.2
			c0.9-0.1,1.7-0.2,2.6-0.2c1,0,1.9,0.1,2.8,0.4c1.1,0.4,1.8,2.2,2.1,3.3c1,4.7,1.4,9.5,1.5,14.2v3.6c0,2.2,0,4.7,0.1,7.4
			c0.1,2.8,0.1,5.7,0.1,8.4v12.1c0,2.4,0,5-0.1,7.8c-0.1,2.7-0.1,5.4-0.1,8v5.1c-0.1,2.6-1.1,5.2-2.8,7.2c-1.4,1.3-3.1,2.4-5,3
			c-2,0.6-3.8,1.2-5.4,1.6c-2.6,0.5-4.4,2.8-4.3,5.4c0,0.6,0.1,1.2,0.2,1.8c0.1,0.5,0.3,0.9,0.6,1.2c0.4,0.4,0.7,0.8,0.9,1.3
			c0.6,1.3,1.9,2.1,3.3,2.1h36.9c0.7,0,1.3-0.3,1.8-0.8l2.5-2.6c0.9-1,0.9-2.5-0.1-3.5c-0.5-0.4-1-0.7-1.7-0.7c-2.1,0-4.1-0.7-5.8-2
			c-1.9-1.5-3.5-3.4-4.8-5.6c-1.3-2.3-2.4-4.7-3.2-7.3c-0.7-2.1-1-4.2-1.1-6.4v-42.4c1,2.3,2,4.7,3.1,7.2c1.6,3.8,3.3,7.9,5,12.2
			c1.7,4.3,3.3,8.2,4.7,11.8s2.7,6.5,3.7,8.8c1.3,2.9,2.3,5,4.4,5c1.4,0,2.8-0.5,3.9-1.5c0.4-0.3,0.7-0.6,1-1
			c0.4,0.5,0.8,0.9,1.3,1.2c0,0.8,0,1.9-0.1,3.2c-0.1,2.2-0.1,4.7-0.1,7.4s0,5,0.1,7.1c0.1,2.1,0.1,3.7,0.1,4.5
			c0.1,1.3,0.5,2.7,1.2,3.8c0.5,1.1,1.2,2.2,2,3.1c0.8,0.9,2.2,1,3.2,0.3c3.1-2.4,5.7-5.4,7.6-8.9c2.4-4.2,4.5-8.5,6.2-12.9
			c1.9-4.8,3.8-10,5.4-15.3s3.2-10.5,4.7-15.6s3-9.8,4.5-14.1c1.1-3.2,2.3-6.2,3.8-9.2c0.1,0.1,0.2,0.2,0.3,0.4c0.5,1,0.9,2.1,1,3.2
			c0.2,1.3,0.2,2.6,0.1,3.9c-0.1,0.9-0.2,1.8-0.4,2.8c-0.3,1.2,0.4,2.5,1.6,2.9c0.3,0.1,0.5,0.1,0.8,0.1h0.2c0,0.7,0,1.6-0.1,2.6
			c-0.1,1.3-0.1,2.1-0.1,2.6c-0.3,0.5-0.6,1.1-0.9,1.5c-1,1.2-1.6,2.8-1.5,4.4c0.2,1,0.7,1.9,1.5,2.5c0.5,0.4,1,0.9,1.6,1.5l1.7,1.6
			c0,0.3-0.1,0.7-0.2,1.2c-0.3,1.3-0.6,2.6-0.8,4.1c-0.3,1.5-0.5,2.8-0.8,4c-0.2,0.9-0.4,1.8-0.5,2.8c-0.2,1.4-0.3,2.8-0.3,4.2
			c-0.1,2.1-0.1,3.4-0.1,4c0,0.9,0.5,1.7,1.3,2.2c0,1.5,0.3,3,0.9,4.4c0.1,0.1,0.1,0.3,0.2,0.4l-2.9,1.4c-2.6,0.9-4.8,1.7-6.6,2.4
			c-1.9,0.8-3.7,1.7-5.4,2.7c-1.7,0.9-3.1,2.3-4.1,3.9c-0.6,1.2-0.2,2.7,1,3.3l4.9,2.6c0.4,0.2,0.7,0.3,1.2,0.3h0.3l0.6-0.1l6.7-0.7
			c3.5-0.4,7.2-0.6,11.1-0.9c3.9-0.2,7.7-0.4,11.2-0.7s5.8-0.3,7.1-0.3c0.7,0,2,0,3.8-0.1s2.9-0.1,3.6-0.1c1.3,0,2.4-1.1,2.5-2.4
			V381c0-1.3-1.1-2.5-2.4-2.5c-0.6,0-1.1,0.2-1.6,0.6c-0.9,0.5-1.8,0.9-2.8,1.1c-2.2,0.7-3.1,1-3.6,1H643c-0.2,0-0.4,0-0.6,0v-8.1
			c0-1.3-1.1-2.4-2.4-2.4l0,0h-1.2c0-3.9-0.1-8.2-0.2-13.1c-0.1-5.7-0.1-11.7,0-17.9c0.1-6.1,0.6-12.1,1.3-18.2
			c0.6-5.5,1.9-10.9,3.7-16c0.2-1.3,1-2.3,2.1-3c1.4-0.7,2.9-1.2,4.4-1.6c1.8-0.5,3.5-1.3,5.1-2.4c2-1.7,3.1-4.2,2.9-6.9v-0.2
			c0-1.3-1.1-2.4-2.4-2.4H651c-0.5,0-1.6,0-5.3,0.5c-2.7,0.3-5.5,0.6-8.6,0.9c-3.1,0.3-6,0.6-8.7,0.9c-3.6,0.4-4.4,0.4-4.6,0.4
			c-1.3-0.1-2.5-0.2-3.8-0.4c-2.2-0.3-4.5-0.6-7-0.9c-2.5-0.3-4.8-0.6-6.9-0.9c-1.5-0.2-3-0.4-4.4-0.5h-2.9c-1.3,0-2.4,1.1-2.4,2.4
			c-0.1,1.9,0.6,3.8,1.9,5.3c1,1,2.1,1.7,3.4,2.2c1.1,0.5,2.3,0.9,3.5,1.3c0.5,0.2,1,0.3,1.4,0.6c-0.3,1.8-0.6,3.6-1.1,5.4
			c-0.8,3.2-1.8,6.9-3,11s-2.6,8.5-4.1,13c-1.5,4.5-3,8.7-4.5,12.5s-2.8,7-4,9.5c-0.1,0.1-0.2,0.3-0.2,0.4c-0.7-1.3-1.4-2.7-2.2-4.2
			c-1.5-2.9-2.9-6-4.3-9s-2.6-6.1-3.7-9c-1-2.6-1.8-5.2-2.5-7.9c0-0.1-0.1-0.2-0.1-0.3c-0.7-2.4-1.1-4.9-1.2-7.4
			c-0.2-3.7-0.7-7.3-1.5-10.9c-0.7-3.6-2.1-7-4.2-10c-2.3-3.3-6.2-5.1-10.2-4.9c-1.9,0.2-3.7,1.2-4.9,2.8c-0.4,0.4-0.7,0.8-1,1.2
			l-0.9-0.6c-1.9-1.3-4-2.6-6.3-3.9s-4.5-2.6-6.5-3.7c-1.5-1-3.2-1.7-5-1.9"/>
		<path class="st3" d="M651.3,360.3v-2.9c0-1.6,0-3.3-0.1-4.9s-0.1-3.3-0.1-4.9v-3.1c-0.1-6.7,0.6-13.4,2.2-20
			c1.3-5.4,3.5-10.5,6.6-15c3.1-4.5,7-8.4,11.5-11.4c5.3-3.5,11-6.5,16.9-8.8c1.1-0.5,2.6-1,4.4-1.6c1-0.4,2-0.7,3-1
			c7.4,0,14.8,1.3,21.8,4c6.7,2.5,12.8,6.3,18.1,11.2c5.3,5,9.5,11,12.3,17.8c3.1,7.5,4.6,15.6,4.5,23.7c0.1,5.9-1,11.8-3.4,17.2
			c-2.2,4.8-5.2,9.3-8.9,13.1c-3.8,3.9-8,7.3-12.6,10.1c-4.7,2.9-9.5,5.7-14.5,8.3h-1c-1.9-0.1-3.7-0.4-5.5-0.8
			c-2.7-0.5-5.9-1.2-9.5-2c-3.6-0.8-7.5-1.7-11.5-2.7c-4-1-7.8-2-11.3-3c-3.5-1-6.4-1.8-8.8-2.6s-3.7-1.5-4-2.1
			c-1-1.5-1.7-3.1-2.2-4.8c-0.5-1.7-1-3.5-1.6-5.2c-0.6-1.6-1.4-3.2-2.2-4.7C654.1,362.5,652.8,361.2,651.3,360.3 M678.2,332.5
			c0,1.2,0,3.1,0.1,5.9c0.1,2.8,0.2,5.9,0.5,9.3s0.7,7,1.2,10.6c0.5,3.4,1.2,6.7,2.2,10c0.7,2.7,1.9,5.2,3.4,7.5c1.1,1.8,3,3,5.1,3
			h22.2c0.7,0,1.8-1.5,3.5-4.4c1.7-2.9,3.3-6.2,4.9-9.9c1.6-3.7,3.1-7.2,4.4-10.6c0.9-2.1,1.6-4.4,2-6.7c0-0.7,0-2.1-0.1-4.1
			c-0.1-2-0.2-4.1-0.3-6.4s-0.3-4.4-0.4-6.5s-0.3-3.4-0.4-4.2v15.8c-0.5-3.9-1.2-8.6-1.8-14c-0.7-5.3-1.9-10.5-3.6-15.6
			c-1.6-4.7-4.1-9-7.4-12.7c-3.4-3.6-8.1-5.5-13-5.3c-4-0.1-7.9,1.3-10.9,4.1c-3,2.8-5.3,6.2-6.9,10c-1.7,4-2.9,8.2-3.6,12.5
			c-0.6,3.8-1,7.7-1,11.6"/>
		<path class="st0" d="M695.6,286.6c7.4,0,14.8,1.3,21.8,4c6.7,2.5,12.8,6.4,18,11.2c5.3,5,9.5,11.1,12.3,17.8
			c3.1,7.5,4.6,15.6,4.5,23.7c0.1,5.9-1,11.8-3.3,17.2c-2.2,4.8-5.2,9.2-8.9,13c-3.8,3.9-8,7.3-12.6,10.1c-4.7,2.9-9.5,5.7-14.5,8.4
			h-1c-1.9-0.1-3.7-0.4-5.5-0.8c-2.7-0.5-5.9-1.2-9.5-2s-7.5-1.7-11.5-2.7c-4.1-1-7.8-2-11.3-3s-6.4-1.9-8.8-2.6
			c-2.4-0.8-3.7-1.5-4-2.1c-1-1.5-1.7-3.1-2.2-4.8c-0.5-1.8-1-3.5-1.6-5.2c-0.6-1.6-1.4-3.2-2.2-4.7c-1-1.5-2.3-2.8-3.8-3.7v-2.8
			c0-1.6,0-3.2-0.1-4.9s-0.1-3.3-0.1-4.9v-3.1c-0.1-6.7,0.6-13.4,2.2-20c1.3-5.4,3.5-10.5,6.6-15.1c3.1-4.5,7-8.4,11.5-11.4
			c5.3-3.5,11-6.5,16.9-8.8c1.1-0.4,2.6-1,4.4-1.6C693.6,287.2,694.6,286.9,695.6,286.6 M690.7,378.8h22.2c0.7,0,1.9-1.5,3.5-4.4
			s3.3-6.2,4.9-9.9c1.6-3.7,3.1-7.2,4.4-10.6c0.9-2.1,1.6-4.4,1.9-6.7c0-0.7,0-2.1-0.1-4.1c-0.1-2-0.2-4.1-0.3-6.4s-0.3-4.4-0.4-6.5
			s-0.3-3.4-0.4-4.2v15.8c-0.6-4-1.2-8.6-1.9-14.1c-0.7-5.3-1.9-10.5-3.6-15.6c-1.6-4.7-4.1-9.1-7.4-12.7c-3.4-3.6-8.1-5.5-13-5.3
			c-4-0.1-7.9,1.3-10.9,4.1c-3,2.8-5.3,6.2-6.9,10c-1.7,4-2.9,8.2-3.6,12.5c-0.6,3.8-1,7.7-1,11.6c0,1.2,0,3.1,0.1,5.9
			c0.1,2.8,0.2,5.9,0.5,9.3s0.7,7,1.2,10.6c0.5,3.4,1.2,6.7,2.2,10c0.7,2.7,1.9,5.2,3.4,7.5C686.7,377.7,688.6,378.8,690.7,378.8
			 M695.7,284.2c-0.5,0-0.6,0-3.8,1.1c-1.9,0.7-3.4,1.2-4.5,1.7c-6.1,2.4-11.9,5.4-17.4,9c-4.8,3.2-8.9,7.3-12.1,12.1
			c-3.2,4.9-5.5,10.2-6.9,15.9c-1.6,6.7-2.3,13.7-2.2,20.6v3.1c0,1.7,0,3.4,0.1,5s0.1,3.3,0.1,4.8v2.9c0,0.8,0.4,1.6,1.1,2.1
			c1.2,0.7,2.2,1.7,3,2.9c0.8,1.4,1.5,2.8,2,4.3c0.6,1.6,1.1,3.3,1.6,5c0.5,1.9,1.3,3.7,2.4,5.4c0.7,1.2,2.2,2.1,5.3,3.2
			c2.4,0.8,5.4,1.7,9,2.7s7.3,2,11.3,3c4,1,7.9,2,11.6,2.8s6.9,1.5,9.6,2c2,0.4,4,0.7,6,0.8h1c0.4,0,0.8-0.1,1.2-0.3
			c5-2.7,9.9-5.5,14.6-8.4c4.8-2.9,9.2-6.5,13.1-10.5c3.9-4.1,7-8.8,9.3-13.9c2.5-5.8,3.7-12,3.6-18.2c0.1-8.5-1.5-16.9-4.7-24.7
			c-2.9-7-7.3-13.4-12.9-18.6c-5.5-5.1-11.9-9-18.8-11.7c-7.2-2.8-14.9-4.2-22.6-4.1 M690.7,376.3c-1.3,0-2.5-0.8-3.1-1.9
			c-1.4-2.1-2.4-4.4-3.1-6.7c-0.9-3.2-1.6-6.4-2.1-9.6c-0.5-3.6-0.9-7.1-1.2-10.5s-0.4-6.5-0.5-9.2c-0.1-2.7-0.1-4.7-0.1-5.9
			c0-3.8,0.4-7.5,1-11.3c0.6-4.1,1.8-8.1,3.4-11.9c1.5-3.5,3.6-6.6,6.3-9.2c2.5-2.3,5.8-3.5,9.2-3.4c4.2-0.2,8.3,1.4,11.2,4.5
			c3.1,3.4,5.4,7.5,6.9,11.9c1.7,4.9,2.8,10,3.5,15.1c0.7,5.4,1.3,10.1,1.9,14.1c0.1,0.7,0.5,1.4,1.1,1.8c0,1.5,0.1,2.6,0.1,3.2
			c-0.3,2-0.9,4-1.8,5.8c-1.3,3.4-2.8,7-4.3,10.5s-3.2,6.8-4.8,9.7c-0.6,1.1-1.2,2.2-2,3.1L690.7,376.3z"/>
		<path class="st3" d="M776.5,370.5c1.4,2.7,3.5,5.1,6,6.9c2.5,1.8,5.3,3,8.2,3.7c3,0.7,6.2,0.4,9-0.8l-7.2,8.2l-53.8,1.9v-4
			c2.4-1.4,5.2-3.1,8.5-5.2c3.3-2.1,6.5-4.6,9.4-7.2c3-2.7,5.5-5.8,7.6-9.1c2.1-3.3,3.2-7.1,3.1-11v-87c0-1.7-1.3-3.5-3.9-5.1
			c-2.8-1.8-5.8-3.5-8.8-5c-3.3-1.6-6.5-3.2-9.6-4.6c-2.4-1-4.6-2.3-6.4-4.1c-0.1-0.7-0.2-1.3-0.3-2c0-0.3,0.1-0.7,0.2-1
			c0.1-0.3,0.1-0.7,0.2-1c1.8-0.1,4.7-0.3,8.7-0.8s8.3-1,12.8-1.6s8.9-1.2,12.8-1.8c4-0.6,6.9-1,8.7-1.3c1.3-0.5,2.4-1.2,3.4-2.1
			c1.1-1,2.3-1.7,3.7-2.1c2.7,0.4,5.2,1.2,7.6,2.4c4.2,1.8,8.2,3.8,12.1,6c4,2.2,7.8,4.7,11.4,7.5c3.4,2.6,5.1,4.9,5.1,6.9
			c0.1,1.9-0.3,3.9-1.2,5.6c-0.8,1.6-2.9,2.3-6.3,2.2c4.6,4.5,8.6,9.5,12.1,14.9c3.7,5.7,7.3,11.4,10.8,17.1
			c3.5,5.7,7.1,11.2,10.9,16.4c3.6,5,7.9,9.5,12.9,13.2V283c-0.9-1.2-1.6-2.6-2.1-4.1c-0.8-2.1-1.3-3.3-1.5-3.7v-4l3.6-12v-4
			c-0.8-1.4-1.4-2.9-1.9-4.4c-0.4-1.2-0.9-2.3-1.7-3.4c-0.6-0.1-1.2-0.2-1.8-0.3c-1.4,0-2.6,0.9-3,2.2c-0.6,1.6-1.1,3.2-1.5,4.8
			c-0.4,1.8-0.9,3.5-1.5,5.3c-0.5,1.7-1.6,3.1-3,4.1c-0.5-1-0.9-2.1-1-3.3c-0.3-1.5-0.6-3.1-1-4.7c-0.4-1.6-0.8-3.1-1-4.6
			c-0.2-1-0.4-2.1-0.5-3.1V240c1.7-0.1,3.3-0.4,4.9-0.7c2.5-0.4,5.1-0.9,7.8-1.4s5.2-1.1,7.6-1.6c2.4-0.5,4-0.9,4.8-1.2
			c1.3-0.5,2.4-1.2,3.4-2.1c1.1-1,2.4-1.7,3.7-2.1c1.3,0,2.7,0.1,4,0.4c2.1,0.3,4.3,0.5,6.6,0.8c2.2,0.2,4.4,0.6,6.6,1.1
			c2.1,0.5,3.5,0.8,4.3,1c-0.6,2.7-2.1,5.1-4.2,6.9c-1.5,1-3.4,1.6-5.2,1.5c-2-0.1-4.1-0.4-6-1.1c-2.1-0.7-4.2-1-6.4-0.9
			c0,11-0.6,22-1.8,32.9c-1.2,10.9-1.8,21.8-1.8,32.7c0,6.6-0.2,14.3-0.6,23.1c-0.4,8.9-0.3,17.8,0.3,26.7
			c-0.3,5.3,0.3,10.6,1.8,15.8c1.8,7.3,5.5,14,10.8,19.4l-1.8,0.1l-1.8,0.1c-1.3-0.6-2.6-1.2-3.7-2c-1-0.8-2.2-1.3-3.4-1.7
			c-0.2,0-0.8,0.7-1.8,2s-1.6,2-1.8,2c-2,0.3-3.2,0.5-3.6,0.5c-0.7,0-1.4,0-2.1-0.1c-0.5-0.1-1-0.1-1.5-0.1c-0.1-4.8-1.1-9.5-3-13.9
			c-2.2-5.8-2.7-2.2-6.5-8.9s-8-13.6-12.7-20.6s-9.3-13.8-13.9-20.1s-8.9-11.9-12.9-16.7c-3-3.7-6.2-7.3-9.6-10.7
			c-1.4-1.5-3.3-3.4-5.7-5.6c-2.4-2.2-4.7-4.3-7-6.3s-5.2-4.4-8.8-7.1l-3.6,0.1c-0.4,0-0.8,1.8-1.2,5.3c-0.4,3.5-0.9,7.9-1.5,13.2
			c-0.6,5.3-1.2,11.2-1.8,17.7s-1.1,12.7-1.5,18.5s-0.8,11.1-1,15.7s-0.4,7.7-0.4,9.2C774.3,364.7,775.1,367.7,776.5,370.5"/>
		<path class="st0" d="M878.7,231.3c0.7,0,2,0.1,3.9,0.4c2.1,0.3,4.3,0.5,6.6,0.8c2.2,0.2,4.4,0.6,6.6,1.1l4.3,1
			c-0.6,2.7-2.1,5.1-4.2,6.9c-1.5,1-3.2,1.5-5,1.5h-0.2c-2-0.1-4.1-0.4-6-1.1c-1.9-0.6-3.8-0.9-5.8-0.9h-0.6
			c0,10.9-0.5,21.8-1.7,32.6c-1.2,10.9-1.8,21.8-1.8,32.7c0,6.6-0.2,14.3-0.6,23.1c-0.4,8.9-0.3,17.8,0.3,26.7
			c-0.3,5.3,0.3,10.6,1.8,15.8c1.8,7.3,5.5,14,10.8,19.4l-1.8,0.1l-1.8,0.1c-1.3-0.6-2.5-1.2-3.7-2c-1-0.7-2.2-1.3-3.4-1.7l0,0
			c-0.2,0-0.8,0.7-1.8,2s-1.6,2-1.8,2c-2,0.3-3.2,0.4-3.6,0.5h-0.4c-0.5,0-1.1,0-1.7-0.1s-1.2-0.1-1.4-0.1h0
			c-0.1-4.8-1.1-9.5-3-13.9c-2.2-5.7-2.8-2.2-6.5-8.9s-8-13.6-12.7-20.6s-9.3-13.8-13.9-20.1s-8.9-11.9-12.9-16.7s-7.2-8.4-9.6-10.7
			c-1.4-1.5-3.3-3.3-5.7-5.6s-4.7-4.3-7-6.3c-2.3-2-5.2-4.4-8.8-7.1l-3.6,0.1c-0.4,0-0.8,1.8-1.2,5.3s-0.9,7.9-1.5,13.2
			s-1.2,11.2-1.8,17.7s-1.1,12.7-1.5,18.5s-0.7,11.1-1,15.7s-0.4,7.7-0.5,9.2c0,3.1,0.7,6.1,2.1,8.9c1.4,2.7,3.5,5.1,6,6.9
			c2.5,1.8,5.3,3,8.2,3.7c1.1,0.2,2.1,0.3,3.2,0.4c2,0,3.9-0.4,5.8-1.2l-7.2,8.2l-53.8,1.9v-4c2.4-1.4,5.2-3.1,8.5-5.2
			c3.3-2.1,6.5-4.6,9.4-7.2c3-2.7,5.5-5.8,7.6-9.1c2.1-3.3,3.2-7.1,3.1-11l-0.1-87c0-1.8-1.3-3.5-3.9-5.1c-2.9-1.8-5.8-3.5-8.8-5
			c-3.3-1.6-6.5-3.2-9.6-4.6c-2.4-1-4.5-2.3-6.4-4.1c-0.1-0.7-0.2-1.3-0.3-2c0-0.3,0.1-0.7,0.2-1c0.1-0.3,0.1-0.7,0.2-1
			c1.8-0.1,4.7-0.3,8.7-0.8s8.3-1,12.8-1.6s8.9-1.2,12.9-1.8s6.9-1,8.7-1.3c1.2-0.4,2.4-1.1,3.4-1.9c1.1-1,2.4-1.7,3.7-2.1h0.1
			c2.6,0.4,5.2,1.2,7.5,2.4c4.2,1.8,8.2,3.8,12.1,6c4,2.2,7.8,4.7,11.4,7.5c3.4,2.6,5.1,4.9,5.1,6.9c0.1,1.9-0.4,3.9-1.2,5.6
			c-0.7,1.5-2.6,2.2-5.7,2.2h-0.6c4.6,4.5,8.6,9.5,12.1,14.9c3.7,5.7,7.3,11.4,10.8,17.1c3.5,5.7,7.1,11.2,10.9,16.4
			c3.6,5,7.9,9.5,12.9,13.2v-43.5c-0.9-1.2-1.6-2.6-2.1-4c-0.8-2.1-1.3-3.3-1.5-3.8v-4l3.6-12v-4c-0.8-1.4-1.4-2.9-1.9-4.4
			c-0.4-1.2-0.9-2.3-1.7-3.4c-0.6-0.1-1.2-0.2-1.8-0.3l0,0c-1.4,0-2.6,0.9-3,2.2c-0.6,1.6-1.1,3.2-1.5,4.8c-0.4,1.8-0.9,3.6-1.5,5.3
			c-0.5,1.6-1.6,3-3,4c-0.5-1-0.9-2.1-1-3.2c-0.3-1.5-0.7-3.1-1-4.8c-0.3-1.6-0.8-3.1-1-4.6c-0.2-1-0.4-2.1-0.5-3.1v-7.9
			c1.7-0.1,3.3-0.4,4.9-0.7c2.5-0.4,5.1-0.9,7.8-1.4c2.7-0.5,5.2-1.1,7.6-1.6s4-0.9,4.8-1.1c1.3-0.5,2.4-1.2,3.5-2.1
			c1-0.9,2.3-1.6,3.6-2H878.7 M799.7,380.3L799.7,380.3 M878.7,228.8h-0.2c-1,0-2.2,0.5-5.1,2.6c-0.8,0.6-1.6,1.2-2.5,1.7l-0.2,0.1
			c-0.5,0.2-1.7,0.5-4.6,1.1c-2.3,0.5-4.8,1-7.6,1.6c-2.5,0.5-5.1,1-7.7,1.4c-1.5,0.3-3.1,0.5-4.6,0.6c-1.3,0-2.4,1.1-2.4,2.4v7.9
			c0,1.2,0.2,2.4,0.5,3.6c0.3,1.4,0.6,3,1.1,4.6s0.7,3.2,1,4.6c0.2,1.4,0.7,2.8,1.4,4.1c0.3,0.6,0.9,1,1.5,1.1
			c0.2,0,0.3,0.1,0.5,0.1c0.5,0,1-0.1,1.3-0.4c1.9-1.3,3.3-3.1,4-5.3c0.6-1.8,1.1-3.7,1.6-5.6c0.3-1.5,0.8-3,1.4-4.4
			c0.3-0.6,0.5-0.7,0.7-0.7l0.3,0.1c0.2,0.4,0.5,1,0.8,2c0.5,1.4,1.1,2.8,1.8,4.1v3l-3.5,11.6c-0.1,0.2-0.1,0.5-0.1,0.7v4
			c0,0.3,0.1,0.7,0.2,1c0.2,0.4,0.6,1.5,1.4,3.6c0.5,1.4,1.1,2.7,1.9,4v37.5c-3.1-2.9-6-6-8.4-9.5c-3.7-5.2-7.4-10.7-10.8-16.3
			c-3.4-5.6-7.1-11.5-10.8-17.1c-2.7-4.2-5.7-8.1-9-11.8c1.4-0.5,2.6-1.5,3.3-2.9c1.1-2.1,1.6-4.4,1.6-6.8c0-2.8-2-5.7-6-8.9
			c-3.7-2.8-7.6-5.4-11.7-7.7c-4-2.3-8.2-4.3-12.4-6.1c-2.6-1.4-5.5-2.2-8.5-2.6h-0.2c-1,0-2.2,0.5-5.1,2.6
			c-0.8,0.6-1.6,1.2-2.5,1.7c-1.8,0.3-4.6,0.7-8.5,1.3s-8.1,1.1-12.8,1.8c-4.3,0.6-8.6,1.1-12.8,1.6c-3.9,0.5-6.8,0.7-8.5,0.8
			c-1.3,0-2.4,1.1-2.4,2.4c0,0.1,0,0.2-0.1,0.5c-0.1,0.5-0.2,1-0.2,1.5c0,0.8,0.2,1.6,0.3,2.4c0.1,0.5,0.3,0.9,0.6,1.2
			c2.1,2,4.5,3.5,7.2,4.6c3.1,1.4,6.3,3,9.5,4.6c2.9,1.5,5.8,3.1,8.6,4.9c1.8,1.1,2.8,2.2,2.8,3.1v87c0,3.4-0.9,6.8-2.8,9.7
			c-2,3.2-4.4,6.1-7.2,8.6c-2.8,2.6-5.8,4.9-9.1,7c-3.3,2.1-6.1,3.8-8.4,5.2c-0.8,0.4-1.2,1.2-1.2,2.1v4c0,1.4,1.1,2.4,2.5,2.5h0.1
			l53.8-1.9c0.7,0,1.3-0.3,1.8-0.8l7.1-8.1c0.9-1,0.9-2.5,0-3.5c-0.4-0.4-1-0.7-1.7-0.7h0c-0.1,0-0.2,0-0.3,0
			c-0.2,0-0.5,0.1-0.7,0.2c-1.5,0.6-3.2,1-4.8,1c-0.9,0-1.8-0.1-2.7-0.3c-2.6-0.6-5.1-1.7-7.3-3.3c-2.2-1.6-4-3.6-5.2-6
			c-1.3-2.3-2-5-2-7.7c0-1.5,0.2-4.5,0.4-9.1s0.6-9.8,1-15.7s0.9-11.9,1.5-18.5c0.6-6.4,1.2-12.3,1.8-17.6l0.6-5.4l0.9-7.9
			c0.2-1.6,0.3-2.6,0.4-3.2h1.1c3.2,2.5,5.9,4.6,8,6.5c2.4,2.1,4.7,4.2,7,6.3c2.3,2.1,4.2,4,5.6,5.5c2.4,2.4,5.5,5.9,9.5,10.6
			s8.2,10.2,12.8,16.6s9.2,13,13.8,20s8.9,13.9,12.6,20.5c1,2.2,2.6,4,4.5,5.5c0.7,0.5,1,0.8,1.9,3c1.8,4.1,2.8,8.4,2.8,12.9
			c-0.1,1.3,1,2.5,2.3,2.6h0.3c0.2,0,0.5,0,1.2,0.1s1.4,0.1,2,0.1h0.5c0.4,0,1.2-0.1,3.8-0.5c1.3-0.1,2.1-1.1,3.5-3
			c0.2-0.2,0.3-0.4,0.5-0.6c0.4,0.2,0.9,0.5,1.5,0.9c1.3,0.9,2.7,1.6,4.2,2.2c0.2,0.1,0.5,0.1,0.8,0.1h0.1l1.8-0.1l1.8-0.1
			c1.3,0,2.4-1.2,2.4-2.5c0-0.6-0.3-1.2-0.7-1.7c-5-5.1-8.5-11.5-10.2-18.4c-1-2.9-1.5-5.9-1.4-8.9c0-1.4,0-3.3-0.2-6.4
			c-0.6-8.8-0.7-17.6-0.3-26.4c0.4-8.8,0.6-16.6,0.6-23.2c0-10.8,0.6-21.6,1.8-32.4c1.1-10.1,1.7-20.2,1.8-30.4
			c1.1,0.1,2.2,0.4,3.2,0.7c2.2,0.7,4.4,1.2,6.7,1.2h0.3c2.2,0,4.4-0.7,6.3-1.9c2.6-2.1,4.4-4.9,5.2-8.2c0.2-0.7,0.2-1.4-0.2-2
			c-0.3-0.6-0.9-1-1.6-1.2l-4.3-1c-2.3-0.5-4.5-0.9-6.8-1.1c-2.3-0.2-4.5-0.5-6.5-0.8C881.5,229,880.1,228.8,878.7,228.8"/>
		<path class="st3" d="M245.7,596.7v-2.5c0-1.1,0.2-3.3,0.5-6.6c0.4-3.3,0.8-6.8,1.2-10.4c0.5-3.7,0.9-7.1,1.4-10.4
			c0.5-3.3,0.8-5.6,1-6.9c-3.2-1.1-5.8-3.4-7.3-6.5c-1.8-3.4-3.2-7.1-4-10.8c-0.9-4-1.5-8.1-1.7-12.2c-0.3-4.1-0.4-7.6-0.4-10.6
			c4.4-0.2,8.6,1.4,11.8,4.5c3.1,3.3,5.6,7.2,7.4,11.4c2.1,4.8,3.9,9.8,5.5,14.8c1.5,5.1,3.5,10,5.7,14.8c2,4.3,4.8,8.2,8.3,11.4
			c3.7,3.1,8.4,4.8,13.2,4.5c0.2,0,0.9-0.7,2.1-1.9c0.7-0.8,1.4-1.6,2-2.5h4.4c1.3,0.1,2.7,0.3,4,0.7c2.1,0.5,4.3,1,6.7,1.5
			s4.6,1,6.7,1.5c1.3,0.3,2.7,0.6,4,0.7c1.2-0.5,2.3-1.2,3.3-2.1c1.4-1.1,2.7-2.3,4-3.6c1.3-1.3,2.4-2.6,3.6-4c0.8-1,1.5-2.1,2-3.3
			c2.1-5.3,1.4-11.2-1.8-15.9c-3.7-5.1-8.4-9.4-13.8-12.6c-6-3.8-12.8-7.7-20.4-11.5c-7.5-3.8-14.6-8.1-21.5-12.9
			c-6.5-4.5-12.2-10.1-16.9-16.5c-4.7-6.6-7.1-14.5-6.8-22.5c0-5.9,1-11.7,3.1-17.1c2-5.3,5-10.1,8.7-14.3c3.8-4.1,8.3-7.5,13.4-9.9
			c5.3-2.5,11.2-3.8,17.1-3.7c3.8,0,7.5,0.5,11.2,1.4c3.7,0.9,7.3,1.9,10.8,2.9c3.5,1,7.1,2,10.7,2.9c2.6,0.8,5.2,1.7,7.7,2.7
			c1.8,0.6,5,4.5,6.6,1.4s3.3-6.6,4.9-10.4c1.5-3.6,3.2-7,5.1-10.4c1.7-3.1,3.3-4.7,4.8-4.7c1.9-0.2,3.8,0.5,5,1.9
			c1,1.4,1.7,3,1.9,4.7c0.3,1.9,0.4,3.7,0.3,5.6c-0.1,1.9-0.1,3.5-0.1,4.8c0,5.1-0.4,10.1-1.2,15.1c-0.8,4.9-1.7,9.9-2.7,14.8
			c-1,4.9-2,9.9-2.9,14.9s-1.5,2.9-1.9,8.2c-0.4,0-0.8,0.1-1.2,0.1c-0.3,0.1-0.7,0.1-1,0.1c-1.5,0-3-1.2-4.8-3.6
			c-1.8-2.4-3.6-5.3-5.7-8.8s-4.5-7.3-7.1-11.5c-2.6-4.2-5.7-8-9.1-11.5c-3.5-3.5-7.4-6.4-11.8-8.8c-4.6-2.4-9.8-3.7-15-3.6
			c-2.2-0.1-4.4,0.3-6.4,1.1c-1.6,0.8-3.1,1.9-4.2,3.3c-1.5,1.7-2.8,3.6-4.1,5.5c-1.9,2.7-4,5.3-6.3,7.7c-0.2,1.1-0.3,1.7-0.3,1.9
			c0,0.7,0.1,1.5,0.3,2.2c2.7,4.7,5.7,9.1,9.1,13.3c3,3.5,6.3,6.8,10,9.6c3.8,3,7.9,5.7,12.2,8c4.5,2.5,9.7,5.1,15.7,7.8
			c2.4-1.1,5.2-0.4,6.8,1.6c2.6,2.4,5,5,7.2,7.7c2.2,2.7,4.8,5.2,7.7,7.3c2.3,1.9,5.6,2.1,8.1,0.4c3.5,5.5,6.1,11.5,7.6,17.8
			c1.1,6,1.7,12,1.6,18.1c0,0.7,0,1.7-0.1,2.9s-0.2,2.4-0.3,3.6c-0.1,1.2-0.2,2.2-0.3,3.1c-0.1,0.9-0.1,1.5-0.1,1.6l-25.7,29.9
			c-1.2-1.1-2.6-2-4.1-2.7c-1.3-0.9-2.8-1.4-4.4-1.7c-0.8,0.1-1.6,0.3-2.3,0.7l-4,1.5c-1.5,0.5-2.8,1-4.1,1.5
			c-0.8,0.3-1.6,0.6-2.5,0.7l-3.7,0.1c-2.3,0.1-4,0.2-5.1,0.2s-2.7,0-4.8-0.2l-3.4-0.1c-2.5-0.5-4.9-1.2-7.3-2
			c-2.9-0.9-5.7-1.8-8.5-2.7s-6-2.2-9.8-3.8v-4.4h-12.6l-8.7,21.4c-0.9-0.3-1.8-0.9-2.5-1.7c-0.8-0.7-1.4-1.7-1.6-2.7V596.7z"/>
		<path class="st0" d="M353.9,417.2c1.9-0.2,3.8,0.5,5.1,1.9c1,1.4,1.7,3,1.9,4.7c0.3,1.9,0.4,3.7,0.3,5.6c-0.1,1.9-0.1,3.5-0.1,4.8
			c0,5.1-0.4,10.1-1.2,15.1c-0.8,4.9-1.7,9.9-2.7,14.8c-1,4.9-2,9.9-2.9,14.9c-0.9,5-1.6,2.9-1.9,8.2c-0.4,0-0.8,0.1-1.2,0.1
			c-0.3,0.1-0.6,0.1-1,0.1c-1.5,0-3.1-1.2-4.8-3.6s-3.6-5.3-5.7-8.8c-2.1-3.5-4.5-7.3-7.1-11.5c-2.6-4.2-5.7-8-9.2-11.5
			c-3.5-3.5-7.4-6.4-11.8-8.8c-4.6-2.4-9.8-3.7-15-3.6c-2.2-0.1-4.4,0.3-6.4,1.1c-1.6,0.8-3.1,1.9-4.2,3.3c-1.5,1.7-2.9,3.6-4.1,5.5
			c-1.9,2.7-4,5.3-6.3,7.7c-0.2,1.1-0.3,1.7-0.3,1.9c0,0.7,0.1,1.5,0.3,2.2c2.7,4.7,5.7,9.1,9.1,13.3c3,3.5,6.3,6.8,10,9.6
			c3.8,3,7.9,5.7,12.1,8c4.5,2.5,9.7,5.1,15.7,7.8c0.7-0.4,1.4-0.5,2.2-0.5c1.8,0.1,3.4,0.9,4.6,2.2c2.6,2.4,5,4.9,7.2,7.6
			c2.2,2.7,4.8,5.2,7.6,7.3c2.3,1.9,5.6,2.1,8.1,0.4c3.5,5.5,6.1,11.5,7.7,17.8c1.2,6,1.7,12,1.6,18.1c0,0.7-0.1,1.7-0.1,2.9
			s-0.2,2.4-0.3,3.6s-0.2,2.2-0.3,3.2c-0.1,0.9-0.1,1.5-0.1,1.6l-25.7,29.9c-1.2-1.1-2.6-2-4.1-2.7c-1.3-0.9-2.8-1.4-4.4-1.7
			c-0.8,0.1-1.6,0.4-2.3,0.7c-1.2,0.5-2.5,1-4,1.5l-4.1,1.5c-0.8,0.3-1.6,0.6-2.5,0.7c-0.2,0-1.4,0-3.7,0.1c-2.3,0.1-4,0.1-5.1,0.1
			s-2.7,0-4.8-0.1s-3.2-0.1-3.4-0.1c-2.5-0.5-4.9-1.1-7.3-1.9c-2.9-0.9-5.8-1.8-8.5-2.7s-6-2.2-9.8-3.8v-4.4h-12.6l-8.8,21.4
			c-0.9-0.3-1.8-0.9-2.5-1.6c-0.8-0.7-1.4-1.7-1.6-2.8v-4.1c0-1.1,0.2-3.3,0.5-6.6s0.8-6.8,1.2-10.4s0.9-7.1,1.4-10.4
			c0.5-3.3,0.8-5.6,0.9-6.9c-3.2-1.1-5.7-3.5-7.2-6.5c-1.8-3.4-3.1-7.1-3.9-10.8c-0.9-4-1.5-8.1-1.8-12.2c-0.3-4.1-0.4-7.6-0.4-10.6
			c4.4-0.2,8.6,1.4,11.8,4.5c3.1,3.3,5.6,7.2,7.4,11.4c2.1,4.8,3.9,9.8,5.5,14.8c1.5,5.1,3.5,10,5.7,14.8c2,4.3,4.8,8.2,8.3,11.4
			c3.7,3.1,8.4,4.7,13.2,4.5c0.2,0,0.9-0.6,2-1.9c0.8-0.8,1.5-1.6,2.1-2.5h4.4c1.3,0.1,2.7,0.4,4,0.7c2.1,0.5,4.3,1,6.7,1.5
			s4.6,1,6.7,1.5c1.3,0.3,2.7,0.6,4,0.7c1.2-0.5,2.3-1.2,3.3-2.1c2.8-2.2,5.3-4.8,7.5-7.5c0.8-1,1.5-2.1,2-3.3
			c2.1-5.3,1.4-11.2-1.8-15.9c-3.7-5.1-8.4-9.4-13.8-12.6c-6-3.8-12.8-7.7-20.4-11.5c-7.5-3.8-14.7-8.1-21.5-12.9
			c-6.5-4.5-12.2-10.1-16.9-16.5c-4.7-6.6-7.1-14.4-6.8-22.5c0-5.9,1-11.7,3.1-17.1c2-5.3,5-10.1,8.8-14.3c3.8-4.1,8.3-7.5,13.4-9.9
			c5.3-2.5,11.2-3.8,17.1-3.7c3.8,0,7.6,0.5,11.2,1.4c3.6,0.9,7.2,1.9,10.8,2.9s7.1,2,10.6,2.9c2.6,0.8,5.2,1.7,7.7,2.7
			c1.3,0.4,3.3,2.6,4.9,2.6c0.8,0,1.4-0.5,1.7-1.2c1.6-3.1,3.3-6.6,4.9-10.4c1.5-3.6,3.2-7,5-10.4
			C350.8,418.8,352.4,417.2,353.9,417.2 M353.9,414.8c-3.2,0-5.5,3.4-6.9,5.9c-1.8,3.2-3.5,6.8-5.2,10.7c-1.6,3.7-3.1,7-4.7,10
			c-0.5-0.3-1-0.6-1.5-0.9c-0.7-0.6-1.5-1-2.3-1.3c-1.1-0.4-2-0.7-2.7-1c-1.7-0.7-3.4-1.3-5.2-1.7c-3.5-0.9-7.1-1.9-10.6-2.9
			s-7.2-2-10.9-2.9c-3.9-1-7.8-1.5-11.8-1.5c-6.3-0.1-12.4,1.3-18.1,3.9c-5.3,2.5-10.1,6-14.1,10.4c-4,4.4-7.1,9.5-9.2,15
			c-2.2,5.7-3.3,11.8-3.3,18c-0.2,8.6,2.3,17,7.3,24c4.9,6.6,10.8,12.3,17.5,17c6.9,4.9,14.2,9.2,21.8,13.1
			c7.5,3.8,14.2,7.6,20.1,11.4c5.1,3.1,9.6,7.2,13.1,12c2.8,4,3.3,9.1,1.5,13.7c-0.4,0.9-1,1.8-1.7,2.6c-1,1.3-2.2,2.6-3.4,3.8
			c-1.2,1.2-2.4,2.3-3.8,3.4c-0.7,0.6-1.4,1.1-2.2,1.5c-0.5-0.1-1.4-0.2-3-0.6c-2.1-0.4-4.3-0.9-6.7-1.5c-2.4-0.6-4.6-1.1-6.7-1.5
			c-1.5-0.4-3-0.6-4.5-0.7h-4.3c-0.9,0-1.8,0.5-2.2,1.4c0,0-0.3,0.4-1.7,1.9c-0.5,0.5-0.9,0.9-1.1,1.1c-4,0.1-7.8-1.3-10.8-3.9
			c-3.3-3-5.9-6.6-7.8-10.6c-2.2-4.7-4.1-9.5-5.6-14.5c-1.6-5.1-3.4-10.2-5.5-15.1c-1.9-4.5-4.6-8.6-7.9-12.1
			c-3.6-3.6-8.5-5.5-13.5-5.3c-1.3,0-2.4,1.1-2.4,2.4c0,3,0.1,6.6,0.4,10.7c0.3,4.2,0.9,8.4,1.8,12.6c0.9,4,2.3,7.8,4.2,11.5
			c1.5,2.9,3.8,5.3,6.7,6.8c-0.2,1.3-0.4,2.9-0.7,5c-0.4,3.3-0.9,6.8-1.4,10.5c-0.5,3.7-0.9,7.1-1.2,10.5s-0.6,5.6-0.6,6.8v4.1
			c0,0.2,0,0.3,0,0.5c0.3,1.5,1.2,2.9,2.3,4c1,1.1,2.2,1.9,3.6,2.3c0.2,0,0.4,0.1,0.6,0.1c1,0,1.9-0.6,2.3-1.5l8.1-19.9h8.5v1.9
			c0,1,0.6,1.9,1.5,2.2c3.9,1.7,7.3,3,10,3.9c2.7,0.9,5.6,1.8,8.5,2.8c2.5,0.8,5.1,1.5,7.7,2c0.1,0,0.3,0,0.4,0l3.3,0.1
			c2.1,0.1,3.7,0.2,4.9,0.2s2.9,0,5.2-0.2l3.6-0.1c1.1-0.1,2.2-0.4,3.3-0.8c1.3-0.5,2.7-1,4.1-1.5l4-1.5c0.5-0.2,1-0.4,1.5-0.5
			c1.1,0.3,2.2,0.7,3.1,1.3c1.3,0.6,2.5,1.4,3.5,2.3c0.5,0.5,1.1,0.7,1.7,0.7h0.1c0.7,0,1.3-0.3,1.8-0.8l25.7-29.9
			c0.4-0.4,0.6-1,0.6-1.6c0-0.2,0-0.7,0.1-1.4c0.1-0.9,0.2-2,0.3-3.2c0.1-1.2,0.2-2.4,0.3-3.6c0.1-1.2,0.1-2.3,0.1-3.1
			c0.1-6.2-0.5-12.5-1.7-18.6c-1.6-6.6-4.3-12.9-8-18.6c-0.7-1.1-2.2-1.5-3.4-0.8c-0.7,0.5-1.6,0.8-2.5,0.8c-1,0-2.1-0.4-2.9-1.1
			c-2.7-2-5.1-4.3-7.2-6.9c-2.3-2.8-4.8-5.4-7.4-7.9c-1.6-1.7-3.9-2.7-6.3-2.8c-0.7,0-1.5,0.1-2.2,0.3c-5.5-2.5-10.4-5-14.6-7.3
			c-4.1-2.3-8.1-4.8-11.8-7.7c-3.5-2.7-6.7-5.8-9.6-9.2c-3.2-3.9-6.1-8.2-8.7-12.6c-0.1-0.4-0.1-0.9-0.2-1.3l0.1-0.8
			c2.2-2.3,4.2-4.8,6-7.5c1.2-1.8,2.5-3.6,3.9-5.2c0.9-1.1,2.1-2,3.4-2.7c1.7-0.7,3.5-0.9,5.4-0.9c4.8-0.1,9.6,1,13.9,3.2
			c4.1,2.2,7.9,5,11.2,8.4c3.3,3.4,6.3,7.1,8.8,11.1c2.6,4.2,5,8.1,7.1,11.5c2.1,3.4,4.1,6.5,5.8,9c1.4,2.5,3.9,4.2,6.8,4.6
			c0.5,0,1-0.1,1.5-0.2c0.2-0.1,0.5-0.1,0.7-0.1c1.3,0,2.4-1,2.4-2.3c0-1.2,0.2-2.5,0.6-3.6c0.6-1.4,1-2.8,1.2-4.3
			c0.9-5,1.9-10,2.9-14.9s1.9-10,2.8-14.9c0.8-5.1,1.3-10.3,1.3-15.5c0-1.3,0-2.9,0.1-4.7c0.1-2,0-4.1-0.3-6.1
			c-0.3-2.1-1.1-4.1-2.4-5.8C359.2,415.6,356.6,414.6,353.9,414.8"/>
		<path class="st3" d="M395.6,507.1l0.5-30.2l-2.5-5.5c0,0.9,0,2.5,0,4.9s0,4.8,0,7.4s-0.1,5.1-0.2,7.4s-0.2,4-0.2,4.9
			c-0.1,1-0.5,2-1,2.8c-0.4,0.9-1,1.8-1.6,2.6c-0.4-4.1-0.7-8.5-1-13c-0.3-4.5-0.5-9.2-0.7-14c-0.1-4.7-0.2-9.4-0.3-14.2
			s0.1-9.3,0.5-13.7c-1.1-2.2-3-4-5.2-5c-2.3-1-4.6-2-6.9-3c-2.1-0.9-4.2-2-6-3.4c-1.8-1.6-2.7-3.9-2.5-6.3c2.2,0.1,4.4,0.3,6.6,0.7
			c2.4,0.4,4.7,1.6,6.6,3.2l30.7,0.6c0.3-1.4,1.6-2.5,3.9-3.2c2.4-0.8,5-1.4,7.5-1.8c2.6-0.4,5.2-0.6,7.8-0.8
			c2.5-0.1,4.1-0.1,4.8-0.1c0,2.2-0.5,4.4-1.5,6.4c-1,1.8-2.3,3.4-3.8,4.7c-1.6,1.4-3.4,2.5-5.3,3.4c-2,0.9-4,1.8-6,2.5
			c-1.7,8.9-3.6,18.4-5.6,28.2c-1.9,9.2-3,18.6-3.3,28c-0.1,3.7,0.7,7.4,2.4,10.8c1.6,3.4,3.8,6.6,6.5,9.3c2.6,2.7,5.7,4.9,9.1,6.6
			c3.1,1.6,6.5,2.5,10,2.6c3.2,0.2,6.3-0.5,9.1-2c2.2-1.4,4-3.3,5.3-5.5c1.4-2.4,2.4-4.9,3.1-7.6c0.8-2.8,1.6-5.6,2.5-8.5
			c0.9-2.8,1.9-5.5,3.2-8c1.3-2.5,3.2-4.6,5.6-6.2l-0.6,30.2c0.2-0.6,0.6-1.2,1.1-1.6c0.4-0.5,0.9-0.9,1.5-1.1
			c0.4-0.1,0.8-0.2,1.3-0.2c0.2,0,0.4,0.1,0.6,0.1c0.2,0.1,0.4,0.1,0.6,0.1c-0.8,1.4-1.4,2.9-1.8,4.4c-0.5,1.6-0.9,3.2-1.5,4.7
			c-0.5,1.4-1.1,2.8-1.8,4.2c-0.7,1.3-1.7,2.3-2.9,3c-9.5-0.3-18.3-0.5-26.3-0.4c-8,0.1-15.7,0.2-23.3,0.5l-22.9,0.7
			c-7.7,0.2-16,0.3-25,0.1l0.1-2.8c0-0.9,0.8-1.8,2.5-2.6c1.8-0.9,3.7-1.6,5.7-2.2c2.2-0.6,4.2-1.2,6.1-1.7c1.3-0.3,2.6-0.7,3.8-1.4
			c2-1.3,3.5-3.1,4.6-5.2c1-2,1.8-4,2.5-6.1c0.6-2,1.1-3.7,1.6-5.1C393.8,508.5,394.6,507.6,395.6,507.1"/>
		<path class="st0" d="M436.1,427.5h0.3c0,2.2-0.5,4.4-1.5,6.4c-1,1.8-2.3,3.4-3.8,4.7c-1.6,1.4-3.4,2.5-5.3,3.4
			c-1.9,0.9-3.9,1.8-5.9,2.5c-1.7,8.9-3.6,18.4-5.6,28.2c-2,9.2-3,18.6-3.3,28c-0.1,3.7,0.7,7.4,2.4,10.7c1.6,3.4,3.8,6.6,6.5,9.3
			c2.6,2.7,5.7,4.9,9.1,6.6c3.1,1.6,6.5,2.5,10,2.6h0.6c5.7,0.4,11.1-2.5,13.9-7.5c1.4-2.4,2.4-4.9,3.1-7.6c0.8-2.8,1.6-5.6,2.5-8.5
			c0.9-2.8,1.9-5.5,3.2-8c1.3-2.5,3.2-4.6,5.6-6.2l-0.5,30.2c0.2-0.6,0.6-1.1,1.1-1.6c0.4-0.5,0.9-0.9,1.5-1.1
			c0.4-0.1,0.8-0.2,1.3-0.2l0,0c0.2,0,0.4,0.1,0.6,0.1c0.2,0.1,0.4,0.1,0.6,0.1c-0.8,1.4-1.4,2.9-1.8,4.4c-0.5,1.6-1,3.1-1.5,4.7
			c-0.5,1.4-1.1,2.8-1.8,4.2c-0.7,1.3-1.7,2.3-2.9,3c-7.9-0.3-15.3-0.4-22.2-0.4c-1.4,0-2.7,0-4.1,0c-8,0.1-15.8,0.2-23.3,0.5
			l-22.9,0.7c-4.3,0.1-8.8,0.2-13.6,0.2c-3.7,0-7.5,0-11.4-0.1l0.1-2.8c0-0.9,0.9-1.8,2.5-2.6c1.8-0.9,3.7-1.6,5.7-2.2
			c2.1-0.7,4.2-1.2,6.1-1.7c1.3-0.3,2.6-0.7,3.8-1.4c2-1.3,3.5-3.1,4.6-5.2c1-2,1.8-4,2.5-6.1c0.6-2,1.1-3.7,1.6-5.1
			c0.2-1.1,1-2.1,2-2.6l0.6-30.2l-2.5-5.5c0,0.9,0,2.5,0,4.9s0,4.8,0,7.4s-0.1,5-0.2,7.4s-0.2,4-0.2,4.9c-0.1,1-0.5,2-1,2.9
			c-0.4,0.9-1,1.8-1.6,2.6c-0.3-4.1-0.7-8.5-1-13.1c-0.3-4.6-0.6-9.2-0.7-14c-0.1-4.7-0.2-9.4-0.3-14.2s0.1-9.3,0.5-13.7
			c-1.1-2.2-3-4-5.2-5c-2.3-1-4.5-2-6.9-3c-2.1-0.9-4.2-2-6-3.4c-1.8-1.6-2.7-3.9-2.4-6.3c2.2,0.1,4.4,0.3,6.6,0.7
			c2.4,0.4,4.7,1.6,6.6,3.2l30.7,0.6c0.3-1.3,1.6-2.4,3.9-3.2c2.4-0.8,5-1.4,7.5-1.8c2.6-0.4,5.2-0.6,7.8-0.8
			c2.2-0.1,3.7-0.1,4.5-0.1 M467.8,492L467.8,492 M436.2,424.9c-0.8,0-2.3,0-4.6,0.1c-2.7,0.1-5.4,0.4-8.1,0.8
			c-2.7,0.4-5.4,1-7.9,1.9c-1.8,0.5-3.4,1.6-4.6,3.1l-28.4-0.5c-2-1.6-4.4-2.7-7-3.2c-2.3-0.4-4.7-0.7-7-0.8l0,0
			c-0.6,0-1.2,0.3-1.7,0.7c-0.5,0.4-0.7,1.1-0.7,1.7c-0.3,3.2,1,6.2,3.4,8.3c2,1.6,4.2,2.8,6.6,3.8c2.3,0.9,4.6,1.9,6.8,3
			c1.5,0.7,2.8,1.9,3.7,3.3c-0.3,4.2-0.5,8.7-0.4,13.2c0,4.5,0.1,9.4,0.3,14.2s0.4,9.5,0.7,14.1c0.3,4.6,0.7,9,1,13.1
			c0.1,1,0.7,1.8,1.6,2.1c0.3,0.1,0.5,0.1,0.8,0.1c0.7,0,1.3-0.3,1.8-0.7c0.3-0.4,0.6-0.8,0.9-1.2l-0.1,3.7c-0.9,0.9-1.6,2-1.9,3.2
			l-1.6,5.1c-0.6,2-1.4,3.9-2.3,5.8c-0.8,1.7-2.1,3.2-3.7,4.2l-0.1,0.1c-0.9,0.5-1.9,0.8-2.9,1c-2,0.5-4.1,1.1-6.2,1.7
			c-2.1,0.6-4.1,1.4-6.1,2.3c-2.5,1.2-3.8,2.8-3.9,4.7v2.7c0,1.3,1,2.5,2.4,2.5c0,0,0,0,0,0l0,0c3.9,0.1,7.8,0.1,11.5,0.1
			c4.7,0,9.3-0.1,13.6-0.2l22.9-0.7c7.6-0.2,15.4-0.4,23.2-0.5h4.1c6.8,0,14.2,0.1,22.1,0.4h0.1c0.4,0,0.8-0.1,1.2-0.3
			c1.7-0.9,3-2.3,3.9-4c0.8-1.5,1.4-3,1.9-4.5c0.6-1.5,1.1-3.2,1.5-4.8c0.4-1.4,0.9-2.7,1.6-3.9c0.6-1.2,0.2-2.7-1-3.3c0,0,0,0,0,0
			c-0.3-0.2-0.6-0.3-1-0.3h-0.1c-0.4-0.1-0.9-0.2-1.3-0.2l0,0c-0.5,0-0.9,0.1-1.4,0.2l0.4-24.8v-0.2c0-1.3-1.1-2.4-2.4-2.5
			c0,0,0,0,0,0h-0.1c-0.5,0-0.9,0.2-1.3,0.4c-2.7,1.8-4.9,4.2-6.4,7.1c-1.3,2.7-2.5,5.5-3.4,8.4c-0.9,2.9-1.8,5.8-2.5,8.6
			c-0.7,2.4-1.6,4.8-2.9,7c-1.1,1.9-2.7,3.5-4.5,4.7c-2.2,1.2-4.7,1.8-7.2,1.6h-0.5c-3.1-0.1-6.2-0.9-9-2.3c-3.1-1.5-6-3.6-8.4-6.1
			c-2.5-2.5-4.5-5.4-6-8.6c-1.4-3-2.2-6.3-2.1-9.6c0.2-9.3,1.3-18.5,3.2-27.6c1.9-9.3,3.7-18.4,5.4-26.9c1.7-0.7,3.3-1.4,4.9-2.1
			c2.1-1,4-2.3,5.8-3.8c1.8-1.5,3.3-3.4,4.4-5.5c1.2-2.3,1.8-4.9,1.8-7.5c0-1.3-1.1-2.5-2.4-2.5L436.2,424.9z"/>
		<path class="st3" d="M529.4,541.8l8.3-21.9c0.8-1.5,0.7-3.4-0.3-4.8c-1.1-1.4-2.5-2.6-4.1-3.4c-1.6-0.9-3.3-1.6-5-2.1
			c-1-0.3-2-0.5-3-0.7c-0.6,0-1.7-0.1-3.3-0.2s-3.3-0.4-5.1-0.7c-1.8-0.3-3.5-0.6-5.1-0.9c-1.1-0.1-2.1-0.4-3.1-0.9
			c-0.2,0.6-0.5,1.6-1,2.9s-0.8,2.6-1.3,4c-0.5,1.4-0.9,2.7-1.2,4c-0.3,1.3-0.6,2.2-0.7,2.9v1.4c-0.2,1.5,0.4,3.1,1.6,4
			c1.1,0.7,2.4,1.3,3.6,1.7c1.3,0.4,2.5,1,3.6,1.6c1.2,0.8,1.8,2.2,1.6,3.7c0,2.1-0.5,3.4-1.4,3.7c-1.1,0.3-2.2,0.5-3.3,0.5h-1.8
			l-18.8,2.8h-2c-0.6-0.3-1.2-0.7-1.6-1.2c-0.6-0.6-1.3-1.2-2-1.9s-1.4-1.3-2-1.8c-0.4-0.4-1-0.7-1.6-0.8c-0.7-0.1-1.4,0.1-2,0.5
			c-0.4,0.3-0.9,0.7-1.2,1.1c-0.4,0.5-0.9,0.8-1.5,1.1c-0.8,0.3-1.7,0.5-2.6,0.5c-0.4,0-1.1,0-2.2-0.1c-1.1-0.1-1.8-0.1-2-0.1
			c0.9-1.9,2.1-3.6,3.7-5c1.4-1.2,2.9-2.1,4.6-2.6c1.6-0.5,3.3-0.8,4.9-0.9c1.7-0.1,3.3-0.1,4.8-0.1c1.6,0,3.1-0.3,4.5-0.9
			c1.5-0.7,2.8-1.8,3.6-3.2c1.2-2,2-4.1,2.4-6.4c0.6-3.5,0.9-7,0.9-10.5c-0.1,0-0.2-0.1-0.2-0.2s-0.1-0.2-0.2-0.2l-4.2,2.7
			c-0.5,0.1-0.9,0.2-1.4,0.2c-0.6,0-1.2-0.4-1.5-1c-0.4-0.8-0.8-1.6-1.1-2.4c-0.3-0.9-0.7-1.8-1-2.8c-0.3-0.8-0.7-1.6-1.2-2.3
			c0.6,0,1.6-0.1,3-0.2s2.9-0.4,4.4-0.7s3-0.6,4.3-0.9c1-0.2,2-0.5,2.9-0.9c1-0.3,2.1-1.7,3.1-4.1c1.1-2.6,2.1-5.4,2.9-8.1
			c0.9-3,1.7-5.9,2.4-8.8c0.5-2.2,1.2-4.3,2-6.4c0.3-0.4,0.5-0.9,0.8-1.4c0.4-0.8,0.9-1.6,1.4-2.5s1-1.8,1.4-2.6
			c0.3-0.5,0.5-1.1,0.6-1.7c-0.2-1-0.5-1.9-1-2.8c-0.5-0.8-0.8-1.8-1-2.7c0.2-2.6,0.9-5.1,1.9-7.5c0.9-2,1.8-3.9,2.8-5.8
			c1-2,1.8-4.1,2.5-6.3c0.8-3,1.2-6,1.1-9.1v-1.4c-0.4-0.9-0.7-1.8-1-2.7c-0.3-0.9-0.6-1.8-1-2.7c0.3,0,0.6-0.1,0.9-0.2
			c0.4-0.1,0.8-0.2,1.2-0.2c0.4,0,0.7,0.1,1.1,0.2c0.3,0.1,0.7,0.2,1,0.2c2,1.8,3.6,4,4.8,6.4c1,2,1.6,4.2,2.1,6.4
			c0.4,2.1,0.7,4.1,1,6c0.2,1.8,0.7,3.5,1.4,5.1c0.7,1.6,1.8,2.9,3.2,3.9c1.9,1.2,4.1,2,6.3,2.3c0,0.2,0,0.5,0.1,1.1
			s0.1,1.1,0.1,1.6c0,1-0.1,2-0.4,3c-0.3,0.8-0.6,1.5-0.9,2.2c-0.3,0.7-0.6,1.5-0.9,2.4c-0.3,1.1-0.5,2.3-0.4,3.4
			c-0.1,3,0.5,6,1.7,8.8c1,2.2,2.2,4.3,3.7,6.2c1.4,1.8,2.6,3.2,3.7,4.5c1,1,1.6,2.4,1.6,3.9v1.4l-2.1,5.5v1.4
			c0.1,1.9,0.9,3.7,2.4,5c1.6,1.5,3.2,3,5,4.3c1.6,1.2,3.1,2.6,4.4,4.1c1.2,1.1,1.5,2.9,0.8,4.3l10.4,16.5v2.8l8.3,8.2
			c-0.9,0.7-1.9,1.2-3,1.6c-1.6,0.6-2.6,1-3.2,1.1h-2.1c-2.4,0-4.7-0.5-6.9-1.5c-2.2-1-4.6-1.5-7-1.5c-1,0-2,0.1-3,0.5
			c-0.7,0.3-1.4,0.7-2,1.1c-0.6,0.4-1.2,0.8-1.8,1.1c-0.8,0.3-1.7,0.5-2.5,0.5c-0.8,0.1-1.5-0.3-1.9-0.9c-0.4-0.7-0.7-1.3-1-2.1
			c-0.3-0.7-0.6-1.4-1-2c-0.4-0.6-1.2-1-1.9-0.9c-1,0-2,0.3-2.9,0.9c-0.9,0.6-1.8,1.2-2.7,1.9c-0.9,0.7-1.9,1.3-2.9,1.9
			c-1,0.6-2.1,0.9-3.2,0.9h-1c-0.5-0.5-1-1-1.6-1.6c-0.6-0.6-0.8-1-0.5-1.1 M521.3,473.3c-3.3,3-5.6,6.8-6.9,11.1
			c-1.5,4.5-2.7,9-3.5,13.6h19.5c0-4.7-0.9-9.5-2.4-13.9c-0.8-2.2-1.7-4.3-2.9-6.3C524.1,476,522.8,474.5,521.3,473.3"/>
		<path class="st0" d="M523.1,420.6c0.3,0,0.7,0.1,1,0.2c0.3,0.1,0.7,0.2,1,0.2c2,1.8,3.6,4,4.8,6.4c1,2,1.6,4.2,2.1,6.4
			c0.4,2.1,0.7,4.1,1,6c0.2,1.8,0.7,3.5,1.4,5.1c0.7,1.6,1.8,2.9,3.2,3.9c1.9,1.2,4.1,2,6.3,2.3c0,0.2,0,0.5,0.1,1.1
			c0.1,0.6,0.1,1.1,0.1,1.6c0,1-0.1,2-0.4,3c-0.3,0.8-0.6,1.5-0.9,2.2s-0.6,1.5-0.9,2.4c-0.3,1.1-0.5,2.3-0.5,3.4
			c-0.1,3,0.5,6,1.7,8.8c1,2.2,2.3,4.3,3.7,6.2c1.4,1.8,2.6,3.2,3.7,4.5c1,1,1.6,2.4,1.6,3.9v1.4l-2.1,5.5v1.4c0,1.9,0.9,3.7,2.3,5
			c1.6,1.5,3.2,3,5,4.3c1.6,1.2,3.1,2.6,4.4,4.1c1.2,1.1,1.5,2.9,0.8,4.3l10.4,16.5v2.7l8.3,8.2c-0.9,0.7-1.9,1.2-3,1.6
			c-1.6,0.6-2.6,1-3.2,1.1h-2.1c-2.4,0-4.7-0.5-6.9-1.5c-2.2-1-4.6-1.5-7-1.5c-1,0-2,0.1-3,0.5c-0.7,0.3-1.4,0.7-2,1.1
			c-0.6,0.4-1.2,0.8-1.8,1.1c-0.8,0.3-1.7,0.5-2.5,0.5c-0.8,0.1-1.5-0.3-1.9-0.9c-0.4-0.7-0.7-1.3-1-2c-0.3-0.7-0.6-1.4-0.9-2.1
			c-0.4-0.6-1.2-1-1.9-0.9c-1,0-2,0.3-2.9,0.9c-0.9,0.6-1.8,1.3-2.7,2s-1.9,1.3-2.9,1.9c-1,0.6-2.1,0.9-3.2,0.9h-1
			c-0.5-0.5-1-1-1.6-1.6c-0.6-0.6-0.8-1-0.5-1.1l8.3-21.9c0.8-1.5,0.7-3.4-0.3-4.8c-1.1-1.4-2.5-2.6-4.1-3.4c-1.6-0.9-3.3-1.6-5-2.1
			c-1-0.3-2-0.5-3-0.7c-0.6,0-1.7-0.1-3.3-0.2s-3.3-0.4-5.1-0.7c-1.8-0.3-3.5-0.6-5.1-0.9c-1.1-0.1-2.1-0.4-3.1-0.9
			c-0.2,0.6-0.5,1.6-1,2.9s-0.8,2.6-1.3,4c-0.5,1.4-0.9,2.7-1.2,4c-0.4,1.3-0.6,2.2-0.7,2.8v1.4c-0.2,1.5,0.4,3.1,1.6,4
			c1.1,0.7,2.4,1.3,3.6,1.7c1.3,0.4,2.5,1,3.6,1.6c1.2,0.8,1.8,2.2,1.6,3.7c0,2.1-0.5,3.3-1.4,3.6c-1.1,0.3-2.2,0.5-3.3,0.5h-1.9
			l-18.8,2.8h-2c-0.6-0.3-1.2-0.6-1.6-1.1c-0.6-0.6-1.3-1.3-2-1.9s-1.4-1.3-2-1.8c-0.4-0.4-1-0.7-1.6-0.8c-0.7-0.1-1.4,0.1-2,0.5
			c-0.4,0.3-0.8,0.7-1.2,1.1c-0.4,0.5-0.9,0.9-1.5,1.1c-0.8,0.4-1.7,0.5-2.6,0.5c-0.4,0-1.1,0-2.2-0.1s-1.8-0.1-2-0.1
			c0.9-1.9,2.2-3.6,3.7-5c1.4-1.2,2.9-2.1,4.6-2.6c1.6-0.5,3.3-0.8,4.9-0.9c1.7-0.1,3.3-0.1,4.8-0.1c1.6,0,3.1-0.3,4.5-0.9
			c1.5-0.7,2.8-1.8,3.6-3.2c1.2-2,2-4.1,2.4-6.4c0.6-3.5,0.9-7,0.9-10.5c-0.1,0-0.2-0.1-0.2-0.2s-0.1-0.2-0.2-0.2l-4.2,2.8
			c-0.5,0.1-0.9,0.2-1.4,0.2c-0.6,0-1.2-0.4-1.5-1c-0.5-0.8-0.8-1.6-1.1-2.4c-0.3-0.9-0.7-1.8-1-2.7c-0.3-0.8-0.7-1.6-1.2-2.3
			c0.6,0,1.6-0.1,3-0.2s2.9-0.4,4.4-0.7s3-0.6,4.3-0.9c1-0.2,2-0.5,2.9-0.9c1-0.3,2.1-1.7,3.1-4.1c1.1-2.6,2.1-5.4,2.9-8.1
			c0.9-3,1.7-5.9,2.4-8.8c0.5-2.2,1.2-4.3,2-6.4c0.3-0.4,0.5-0.9,0.8-1.4c0.4-0.8,0.9-1.6,1.4-2.5s1-1.8,1.4-2.6
			c0.3-0.5,0.5-1.1,0.6-1.7c-0.2-1-0.5-1.9-1-2.8c-0.5-0.8-0.8-1.8-1-2.7c0.2-2.6,0.9-5.1,1.9-7.5c0.9-2,1.8-3.9,2.8-5.8
			c1-2,1.8-4.1,2.5-6.3c0.8-3,1.2-6.1,1.1-9.1v-1.4c-0.4-0.9-0.7-1.8-1-2.7c-0.3-0.9-0.6-1.9-1-2.8c0.3,0,0.6-0.1,0.9-0.2
			c0.4-0.1,0.8-0.2,1.2-0.2 M510.8,498h19.4c0-2.3-0.2-4.6-0.6-6.9c-0.4-2.4-1-4.8-1.8-7.1c-0.8-2.2-1.7-4.3-2.9-6.3
			c-0.9-1.7-2.2-3.2-3.7-4.5c-3.3,3-5.6,6.8-6.9,11.1C512.9,488.8,511.7,493.4,510.8,498 M523.3,418.3c-0.7,0-1.4,0.1-2,0.3
			l-0.4,0.1c-0.7,0.1-1.4,0.5-1.8,1.1c-0.4,0.7-0.5,1.6-0.1,2.4c0.4,0.8,0.7,1.6,0.9,2.4c0.4,1.1,0.7,1.9,0.9,2.5v0.8
			c0.1,2.8-0.2,5.7-1,8.4c-0.7,2.1-1.5,4.1-2.4,6c-0.9,1.9-1.9,3.9-2.8,5.9c-1.2,2.6-1.9,5.4-2.1,8.3c0,0.1,0,0.2,0,0.3
			c0.1,1.4,0.6,2.7,1.3,3.8c0.3,0.5,0.5,1.1,0.7,1.6c-0.1,0.2-0.2,0.5-0.3,0.7c-0.4,0.8-0.8,1.6-1.3,2.5s-1,1.8-1.4,2.6
			c-0.3,0.6-0.5,0.9-0.6,1.1c-0.1,0.1-0.2,0.3-0.3,0.5c-0.9,2.2-1.6,4.4-2.1,6.7c-0.8,2.9-1.6,5.8-2.4,8.7c-0.8,2.7-1.7,5.3-2.8,7.8
			c-1,2.3-1.7,2.8-1.7,2.8c-0.1,0-0.2,0.1-0.4,0.1c-0.7,0.3-1.5,0.6-2.3,0.7c-1.3,0.3-2.7,0.6-4.2,0.9s-2.9,0.5-4.2,0.7
			c-1.7,0.2-2.4,0.2-2.7,0.2c-1.3,0-2.4,1.1-2.5,2.4c0,0.5,0.2,1.1,0.5,1.5c0.4,0.5,0.7,1.1,0.9,1.7l0.1,0.3l0.9,2.5
			c0.4,1,0.8,1.9,1.3,2.8c0.7,1.4,2.1,2.2,3.6,2.2c0.7,0,1.3-0.1,2-0.3c0.3-0.1,0.5-0.2,0.7-0.3l0.6-0.4c-0.1,2-0.3,4.1-0.7,6.1
			c-0.3,2-1,3.8-2,5.5c-0.6,1-1.5,1.8-2.6,2.3c-1.1,0.5-2.3,0.7-3.5,0.7c-1.5,0-3.1,0-4.9,0.1c-1.9,0.1-3.8,0.4-5.6,1
			c-2,0.7-3.8,1.7-5.4,3.1c-1.8,1.6-3.3,3.6-4.4,5.8c-0.6,1.2-0.1,2.7,1.1,3.3c0.3,0.2,0.7,0.2,1.1,0.2c0.2,0,0.8,0,1.8,0.1
			c1,0.1,1.9,0.1,2.3,0.1c1.3,0.1,2.6-0.2,3.8-0.8c0.8-0.4,1.5-1,2.2-1.7c0.2-0.3,0.5-0.5,0.7-0.7c0.1,0,0.3,0,0.4,0
			c0.1,0.1,0.2,0.1,0.3,0.2c0.6,0.5,1.2,1.1,1.9,1.7c0.6,0.6,1.4,1.4,2,2c0.7,0.8,1.6,1.3,2.6,1.7c0.2,0.1,0.5,0.1,0.8,0.1h2.1h0.4
			l18.6-2.7h1.6c1.4,0,2.7-0.2,4.1-0.6c2-0.7,3.1-2.7,3.1-6c0.2-2.3-0.9-4.6-2.9-5.8c-1.3-0.7-2.6-1.3-4-1.8
			c-1.1-0.4-2.2-0.9-3.1-1.5c-0.3-0.2-0.5-0.9-0.5-1.9v-1.1c0.1-0.5,0.3-1.4,0.6-2.5c0.3-1.3,0.7-2.6,1.2-3.8
			c0.4-1.3,0.9-2.7,1.3-4.1l0.2-0.5l1.1,0.2c1.6,0.3,3.4,0.6,5.2,0.9c1.8,0.3,3.6,0.6,5.3,0.7c1.7,0.1,2.8,0.2,3.5,0.2
			c0,0,0.5,0.1,2.4,0.6c1.6,0.4,3.1,1.1,4.5,1.8c1.3,0.7,2.4,1.6,3.3,2.8c0.4,0.5,0.6,1.1,0.1,2.3l0,0.1l-8.2,21.6
			c-0.2,0.3-0.3,0.7-0.4,1c-0.1,1.1,0.4,2.2,1.3,3c0.6,0.6,1.1,1.2,1.6,1.7c0.5,0.4,1.1,0.7,1.7,0.7h1c1.6,0,3.1-0.4,4.5-1.3
			c1-0.7,2.1-1.3,3-2.1c0.9-0.7,1.8-1.3,2.6-1.9c0.4-0.3,0.9-0.5,1.4-0.5c0.2,0.5,0.4,0.9,0.6,1.4c0.3,0.8,0.7,1.6,1.1,2.4
			c0.8,1.4,2.4,2.2,4,2.2c1.2,0,2.4-0.3,3.5-0.8c0.8-0.4,1.6-0.9,2.3-1.4c0.4-0.3,0.9-0.6,1.4-0.8c0.7-0.2,1.4-0.3,2.1-0.3
			c2.1,0,4.1,0.4,6,1.3c2.5,1.1,5.2,1.7,7.9,1.7h2.1c0.2,0,0.4,0,0.6-0.1c0.7-0.2,1.8-0.6,3.5-1.2c1.4-0.5,2.7-1.2,3.9-2.1
			c1-0.9,1-2.4,0.1-3.4c0,0-0.1-0.1-0.1-0.1l-7.6-7.5v-1.7c0-0.5-0.1-0.9-0.4-1.3l-9.8-15.5c0.4-2-0.2-4.1-1.6-5.6
			c-1.4-1.6-3-3.1-4.7-4.4c-1.7-1.3-3.2-2.7-4.8-4.2c-1-0.8-1.5-2-1.6-3.3v-0.9l1.9-5.1c0.1-0.3,0.2-0.6,0.2-0.9v-1.4
			c0-2.1-0.8-4-2.3-5.5c-1-1.1-2.3-2.6-3.6-4.3c-1.4-1.8-2.5-3.7-3.4-5.7c-1-2.5-1.5-5.1-1.4-7.8c0-0.9,0.1-1.8,0.3-2.7
			c0.2-0.7,0.5-1.5,0.8-2.2s0.6-1.5,0.9-2.2c0.4-1.2,0.6-2.5,0.6-3.8c0-0.5,0-1.1-0.1-1.8c0-0.5-0.1-0.8-0.1-0.9
			c0-1.2-0.9-2.2-2.1-2.4c-1.9-0.2-3.7-0.8-5.3-1.8c-1.1-0.8-1.9-1.8-2.4-2.9c-0.6-1.4-1-2.9-1.2-4.4c-0.2-2-0.6-4-1-6.2
			c-0.5-2.4-1.2-4.8-2.3-7c-1.3-2.7-3.1-5.1-5.3-7.1c-0.5-0.4-1.1-0.7-1.7-0.7c-0.1-0.1-0.2-0.1-0.3-0.1c-0.6-0.2-1.2-0.3-1.8-0.4
			 M513.6,495.5c0.7-3.3,1.7-6.8,2.9-10.4c0.9-3.1,2.5-6,4.6-8.5c0.6,0.7,1.1,1.5,1.6,2.3c1.1,1.9,2,3.8,2.7,5.9
			c0.8,2.2,1.3,4.4,1.7,6.7c0.2,1.4,0.4,2.7,0.5,4L513.6,495.5z"/>
		<path class="st3" d="M582.2,538.2c-0.3-2,0.4-4,1.7-5.5c1.3-1.1,2.9-2,4.5-2.5c1.9-0.6,3.8-1.1,5.8-1.4c2-0.3,3.9-1,5.7-1.9
			c1.8-1,3.3-2.5,4.2-4.3c1.2-2.7,1.6-5.7,1.2-8.6l2.3,2.6c0.6-1.3,1-2.6,1.2-4c0.4-2,0.7-3.4,0.8-4.2v-1.4
			c-0.2-2.4-0.7-4.7-1.4-6.9c-0.9-2.8-2-5.7-3.3-8.6c-1.3-3-2.6-5.8-4-8.5s-2.6-4.9-3.5-6.5c-0.9-1.5-2.2-3.7-3.9-6.8
			c-1.7-3.1-3.4-6.2-5.2-9.3c-1.8-3.1-3.4-5.9-4.9-8.4c-1.5-2.5-2.4-4-2.8-4.6c-1.2-1.9-2.9-3.5-4.9-4.4c-1.8-0.8-3.7-1.5-5.5-2.1
			c-1.8-0.6-3.5-1.5-5-2.6c-1.8-1.7-2.9-4-3.1-6.4l11.3-0.4c-0.5-0.9-0.9-1.7-1.2-2.7c-0.4-0.9-0.8-1.8-1.2-2.6v-1.4v-1.3
			c2.4,1.6,4.5,3,6.2,4.3c1.6,1.2,3.4,2.3,5.2,3.2c1.8,0.9,3.8,1.5,5.8,1.9c2.7,0.5,5.5,0.7,8.3,0.5l1.9-0.1c0.8-0.4,1.6-1,2.3-1.5
			c0.6-0.6,1.4-1,2.1-1.3c0.3,0,0.7,0.4,1.3,1.3s1,1.3,1.1,1.3c0.7,0,1.3,0.1,2,0.2c0.9,0.1,1.9,0.2,3,0.3c1.1,0.1,2,0.2,2.9,0.2
			s1.5,0.1,1.9,0c0.1,0.9-0.2,1.9-0.8,2.6c-0.5,0.7-1.2,1.4-1.8,2c-0.7,0.6-1.3,1.3-1.8,2.1c-0.6,0.9-0.8,1.9-0.8,2.9
			c0.1,2.5,0.5,5,1.1,7.5c0.7,2.6,1.5,5.2,2.4,7.8c0.9,2.6,2,5.1,3.2,7.5c1.2,2.4,2.4,4.7,3.4,6.7l4.4-2.9c0,0.2,0.1,0.5,0.2,0.7
			c0.1,0.2,0.2,0.4,0.2,0.7c-0.1,0.5-0.2,0.9-0.3,1.4c-0.2,0.6-0.5,1.1-0.9,1.6c-0.3,0.5-0.8,0.9-1.3,1.2c0.2,0,0.4,0,0.7,0.1
			c0.2,0.1,0.3,0.1,0.5,0.1c1.1,0,2.1-0.5,2.9-1.3c0.8-0.9,1.5-1.9,2-3c0.5-1.1,1-2.4,1.5-3.6s0.9-2.4,1.2-3.3l8.4-16.4
			c-0.8-0.2-1.5-0.7-1.9-1.4c-0.3-0.5-0.4-1.1-0.3-1.7c0-0.6,0.2-1.3,0.3-1.9c0.2-0.7,0.2-1.4,0.2-2.1c-1.1,0-2.2,0.2-3.3,0.5
			c-0.8,0.2-1.5,0.5-2.2,0.9c-0.7,0.3-1.5,0.6-2.2,0.9c-1,0.3-2.1,0.4-3.1,0.5c-0.4-4.5,1.6-8.8,5.3-11.4l1.9-0.1
			c0.9,0,1.8-0.1,2.7-0.2c0.9-0.1,1.8-0.2,2.5-0.2l1.9-0.1l2.4-0.1c1,0,2,0,2.9,0s1.7,0,2.3,0h1.3c1.7,0.3,3.5,0.5,5.2,0.6
			c2.1,0.1,4,0.3,5.9,0.5c1.9,0.2,3.5,0.3,4.9,0.5s2.1,0.4,2.1,0.5l0.1,2.7l-11,8.5l0-1.6c-1.2,0.2-2.3,0.8-3,1.8
			c-1.1,1.3-2.1,2.7-2.9,4.1c-0.9,1.6-1.7,3.3-2.6,5s-1.6,3.2-2.3,4.5c-1.1,2-2.5,4.7-4.2,8c-1.7,3.3-3.4,6.6-5,9.9
			c-1.6,3.3-3.5,7.3-5.7,12.2c0,0.3,0,1.2,0,2.6s-0.1,3.1-0.1,5s-0.1,3.8-0.1,5.6s0,3.3,0,4.4c0,0.8,0.1,1.9,0.2,3.6
			s0.3,3.4,0.4,5.1c0.2,1.8,0.3,3.6,0.4,5.3c0.1,1.7,0.2,2.9,0.2,3.5c2,0.4,4,1,5.9,1.7c2,0.7,3.9,1.7,5.7,2.9
			c1.8,1.2,3.3,2.8,4.6,4.6c1.3,1.9,2.2,4,2.5,6.3c-0.3,0-0.6,0.1-0.9,0.1c-0.4,0.1-0.9,0.1-1.3,0.2c-0.9,0-1.7,0-2.5-0.2
			c-0.8-0.2-1.5-1-2.1-2.5l-29.3,1l-2.1,5.4l-0.1-2.7c0-0.2-0.5-0.4-1.5-0.6s-2.2-0.5-3.7-0.8s-3-0.5-4.5-0.6
			c-1.3-0.2-2.6-0.2-3.9-0.2c-0.6,0-1.8,0-3.4,0c-1.6,0-3.4-0.1-5.3-0.2c-1.9-0.1-3.6-0.1-5.3-0.2
			C583.8,538.2,582.8,538.2,582.2,538.2"/>
		<path class="st0" d="M570.9,423.6c2.4,1.6,4.5,3,6.3,4.3c1.6,1.2,3.4,2.3,5.2,3.2c1.8,0.9,3.8,1.5,5.8,1.9
			c2.1,0.4,4.2,0.6,6.3,0.5h2l1.9-0.1c0.8-0.4,1.6-1,2.3-1.5c0.6-0.6,1.3-1,2.1-1.3l0,0c0.2,0,0.7,0.4,1.3,1.3
			c0.6,0.9,0.9,1.3,1.1,1.3h0.1c0.4,0,1,0.1,1.9,0.2s2,0.2,3,0.4s2,0.2,2.9,0.2c0.7,0,1.2,0.1,1.6,0.1h0.3c0.1,0.9-0.2,1.9-0.8,2.6
			c-0.6,0.7-1.2,1.4-1.8,2c-0.7,0.6-1.3,1.3-1.8,2.1c-0.6,0.9-0.8,1.9-0.8,3c0.1,2.5,0.5,5,1.1,7.5c0.7,2.6,1.5,5.2,2.4,7.8
			c0.9,2.6,2,5.1,3.2,7.5c1.2,2.4,2.3,4.7,3.4,6.8l4.4-2.9c0,0.2,0.1,0.5,0.2,0.7c0.1,0.2,0.2,0.4,0.2,0.7c-0.1,0.5-0.2,0.9-0.3,1.4
			c-0.2,0.6-0.5,1.1-0.9,1.6c-0.3,0.5-0.8,0.9-1.3,1.2h0.1c0.2,0,0.4,0,0.6,0.1c0.1,0,0.3,0.1,0.5,0.1l0,0c1.1,0,2.1-0.5,2.9-1.3
			c0.8-0.9,1.5-1.9,2-3c0.5-1.1,1-2.4,1.5-3.6s0.9-2.4,1.2-3.3l8.6-16.5c-0.8-0.2-1.5-0.7-1.9-1.4c-0.3-0.5-0.4-1.1-0.3-1.7
			c0-0.6,0.2-1.3,0.3-1.9c0.2-0.7,0.2-1.4,0.2-2.1c-1.1,0-2.2,0.2-3.3,0.5c-0.8,0.2-1.5,0.5-2.2,0.9c-0.7,0.3-1.5,0.6-2.2,0.9
			c-1,0.3-2,0.4-3.1,0.4c-0.4-4.5,1.6-8.8,5.3-11.4l1.9-0.1c0.9,0,1.8-0.1,2.7-0.2s1.8-0.2,2.5-0.2l1.9-0.1l2.4-0.1h1.3
			c0.6,0,1.1,0,1.6,0c0.5,0,1.2,0,1.6,0h0.7l1.3-0.1c1.7,0.3,3.5,0.5,5.2,0.6c2.1,0.2,4.1,0.3,6,0.5s3.5,0.3,4.9,0.5
			s2.1,0.3,2.1,0.5l0.1,2.8l-11,8.5l0-1.6c-1.2,0.2-2.3,0.8-3,1.8c-1.1,1.3-2.1,2.7-2.9,4.1c-0.9,1.6-1.8,3.3-2.6,5
			s-1.6,3.2-2.3,4.5c-1.1,2-2.5,4.7-4.2,8c-1.7,3.3-3.4,6.6-5,9.9c-1.6,3.3-3.5,7.3-5.7,12.2c0,0.3,0,1.2,0,2.6s-0.1,3.1-0.1,5
			c-0.1,1.9-0.1,3.8-0.1,5.6s0,3.3,0,4.4c0,0.8,0.1,2,0.2,3.6s0.3,3.4,0.4,5.2c0.2,1.8,0.3,3.5,0.5,5.2c0.1,1.7,0.2,2.9,0.2,3.5
			c2,0.4,4,1,5.9,1.7c2,0.8,3.9,1.8,5.7,3c1.8,1.2,3.3,2.8,4.6,4.5c1.3,1.9,2.1,4,2.4,6.3c-0.3,0-0.6,0.1-0.9,0.1
			c-0.4,0.1-0.9,0.1-1.3,0.2h-0.4c-0.7,0-1.5-0.1-2.2-0.2c-0.8-0.2-1.5-1-2-2.5l-29.3,1l-2.1,5.5l-0.1-2.7c0-0.1-0.5-0.4-1.5-0.6
			c-1-0.3-2.2-0.5-3.7-0.8s-3-0.5-4.5-0.6c-1.1-0.1-2.2-0.2-3.4-0.2h-0.5h-1.5H596c-1.6,0-3.4-0.1-5.3-0.2s-3.6-0.1-5.3-0.2h-3.2
			c-0.3-2,0.3-4,1.7-5.5c1.3-1.1,2.9-2,4.5-2.5c1.9-0.6,3.8-1.1,5.8-1.4c2-0.3,3.9-1,5.7-1.9c1.8-1,3.3-2.5,4.2-4.3
			c1.2-2.7,1.6-5.7,1.2-8.6l2.3,2.6c0.6-1.3,1-2.6,1.2-4c0.4-2,0.7-3.4,0.8-4.2l0-1.4c-0.2-2.4-0.7-4.7-1.4-6.9
			c-0.9-2.8-2-5.7-3.3-8.6c-1.3-3-2.6-5.8-4-8.5c-1.4-2.7-2.6-4.9-3.5-6.5c-0.9-1.5-2.2-3.7-3.9-6.8c-1.7-3.1-3.4-6.2-5.2-9.3
			l-4.9-8.3c-1.5-2.5-2.4-4-2.8-4.6c-1.2-1.9-2.9-3.5-4.9-4.4c-1.8-0.8-3.7-1.5-5.5-2.1c-1.8-0.6-3.5-1.5-5-2.6
			c-1.8-1.7-2.9-4-3.1-6.4l11.3-0.4c-0.5-0.9-0.9-1.7-1.2-2.7c-0.3-0.9-0.8-1.8-1.2-2.6l0-1.3L570.9,423.6 M571,421.1
			c-1.4,0-2.5,1.1-2.5,2.4v0c0,0,0,0,0,0.1v1.4v1.3c0,0.4,0.1,0.8,0.4,1.2c0.3,0.6,0.6,1.1,0.8,1.7l-7.6,0.3c-1.3,0-2.4,1.2-2.4,2.5
			c0,0,0,0,0,0c0,0.1,0,0.3,0,0.4c0.3,3,1.7,5.8,4,7.9c1.7,1.3,3.7,2.3,5.7,3c1.8,0.6,3.6,1.2,5.4,2c1.6,0.8,2.9,2,3.8,3.5
			c0.4,0.5,1.3,2,2.7,4.5l0.6,1c1.3,2.2,2.7,4.7,4.3,7.3c1.8,3,3.5,6.1,5.1,9.2s3,5.5,4,7s2,3.7,3.4,6.3s2.7,5.5,4,8.4
			s2.3,5.7,3.2,8.4c0.7,2,1.2,4.1,1.3,6.2v1.1c-0.1,0.7-0.3,1.9-0.7,3.5c-0.4-0.2-0.8-0.3-1.2-0.3c-0.3,0-0.6,0.1-0.9,0.2
			c-1,0.4-1.6,1.4-1.5,2.4c0.3,2.5,0,5-1,7.3c-0.7,1.4-1.8,2.5-3.2,3.3c-1.6,0.8-3.3,1.3-5,1.7c-2.1,0.4-4.1,0.9-6.1,1.5
			c-2,0.6-3.8,1.6-5.4,3c-1.9,1.9-2.8,4.6-2.5,7.3c0,0.6,0.3,1.3,0.8,1.7c0.5,0.4,1.1,0.7,1.7,0.7h3.2c1.6,0,3.4,0.1,5.2,0.2
			c1.8,0.1,3.7,0.2,5.4,0.2h1.9c0.7,0,1.2,0,1.6,0h0.4c1,0,2.1,0.1,3.1,0.2c1.5,0.2,3,0.4,4.4,0.6s2.4,0.4,3.2,0.7v1.1
			c0,1.2,0.9,2.1,2,2.3c0.1,0,0.3,0,0.4,0c1,0,1.9-0.6,2.3-1.6l1.5-4l26.1-0.9c0.6,1.2,1.7,2,3,2.4c0.9,0.2,1.8,0.3,2.8,0.3h0.4
			c0.6,0,1.1-0.1,1.7-0.2c0.2,0,0.4-0.1,0.6-0.1c1.3-0.1,2.3-1.2,2.3-2.5c0,0,0,0,0,0c0-0.1,0-0.2,0-0.3c-0.3-2.7-1.3-5.2-2.9-7.4
			c-1.4-2-3.2-3.7-5.2-5.1c-1.9-1.3-4-2.4-6.2-3.2c-1.4-0.5-2.9-1-4.4-1.4c0-0.5-0.1-1-0.1-1.7c-0.1-1.8-0.3-3.6-0.5-5.3
			c-0.2-1.8-0.3-3.5-0.4-5.1s-0.2-2.8-0.2-3.5c0-1,0-2.5,0-4.3s0-3.7,0.1-5.5s0.1-3.6,0.1-5c0-0.9,0-1.6,0-2.1
			c2.1-4.5,3.9-8.4,5.5-11.7s3.2-6.6,4.9-9.9s3.1-6,4.1-8c0.7-1.2,1.5-2.8,2.4-4.6s1.6-3.3,2.5-4.9c0.7-1.3,1.5-2.5,2.4-3.5l0.4,0.2
			c0.3,0.1,0.7,0.2,1,0.2c0.5,0,1.1-0.2,1.5-0.5l11-8.5c0.6-0.5,1-1.2,1-2l-0.1-2.7c-0.1-2.3-2.5-2.6-4.2-2.8
			c-1.4-0.2-3.1-0.4-5-0.5c-1.9-0.2-3.9-0.3-6-0.5c-1.7-0.1-3.3-0.3-4.9-0.6c-0.1,0-0.3,0-0.5,0H650h-0.5H648h-1.5
			c-0.6,0-1.2,0-1.7,0h-1.4h-0.9l-1.5,0h-0.6H639c-0.8,0-1.7,0.1-2.7,0.2c-0.8,0.1-1.7,0.2-2.5,0.2h-1.1h-0.8c-0.5,0-1,0.2-1.4,0.5
			c-4.3,3.2-6.6,8.4-6,13.7c0,1.3,1.1,2.4,2.5,2.4h0.1c1.3,0,2.5-0.2,3.7-0.5c0.9-0.3,1.7-0.6,2.6-1c0.5-0.2,1.1-0.5,1.6-0.6
			c-0.1,0.3-0.1,0.7-0.1,1c-0.1,1,0.1,2.1,0.6,3c0.2,0.4,0.5,0.8,0.9,1.1l-7.5,14.5c0,0.1-0.1,0.2-0.1,0.2c-0.4,0.9-0.8,2-1.2,3.4
			c-0.3,0.8-0.6,1.5-0.8,2.2c-0.5-1.2-2-1.8-3.2-1.3c-0.1,0.1-0.3,0.1-0.4,0.2l-2.2,1.4c-0.7-1.4-1.4-2.8-2.2-4.3
			c-1.2-2.4-2.2-4.8-3.1-7.3c-0.9-2.5-1.7-5-2.3-7.5c-0.6-2.3-0.9-4.6-1-7c0-0.5,0.1-1,0.3-1.5c0.4-0.6,0.9-1.2,1.5-1.7
			c0.8-0.7,1.5-1.4,2.1-2.3c0.9-1.2,1.4-2.7,1.3-4.2c0-1.3-1.1-2.4-2.4-2.4h-0.3c-0.3,0-0.8,0-1.5-0.1c-0.8,0-1.8-0.1-2.8-0.2
			c-1-0.1-2-0.2-3-0.3l-1.1-0.1c-0.1-0.1-0.1-0.2-0.2-0.3c-0.6-1.3-1.9-2.2-3.3-2.4c-1,0-1.8,0.4-3.6,1.8c-0.8,0.6-1.3,0.9-1.5,1.1
			h-1.3c-0.7,0-1.3,0-1.9,0c-1.9,0-3.9-0.1-5.8-0.5c-1.8-0.4-3.6-0.9-5.2-1.7c-1.7-0.8-3.3-1.9-4.8-3c-1.8-1.3-3.8-2.7-6.4-4.4
			c-0.4-0.3-0.9-0.4-1.3-0.4"/>
		<path class="st3" d="M718.6,542.1c-13.7,1-27.5,0-41-2.7c0-0.2,0-0.5-0.1-0.7c-0.1-0.2-0.1-0.5-0.1-0.7c-0.1-1.8,0.9-3.4,2.5-4.1
			c1.7-0.8,3.5-1.4,5.3-1.8c1.8-0.4,3.6-1.1,5.3-1.9c1.6-0.9,2.6-2.6,2.5-4.5v-60.3c0.6-0.8,1.1-1.8,1.5-2.7
			c0.6-1.4,0.9-2.3,1.1-2.7v-1.4c0.2-3.3-0.4-6.6-1.9-9.6c-1.2-1.9-2.8-3.5-4.7-4.7c-1.9-1.1-3.8-2.3-5.9-3.4
			c-2.3-1.4-4.1-3.3-5.4-5.6c-0.3-0.4-0.5-0.9-0.4-1.4h8.1l69.2,1.4l7.7-13.7h2.6c0.6,0,1,0.6,1.4,1.8c0.4,1.4,0.7,2.9,0.9,4.4
			c0.2,1.7,0.3,3.5,0.4,5.4s0.1,3.6,0.1,5.1v3.9c0,0.8,0,2.4-0.1,4.8s-0.1,4-0.1,4.8c-1.7-0.1-3.4,0.6-4.5,2c-1.1,1.4-1.9,3-2.5,4.7
			c-0.7,1.8-1.3,3.7-1.8,5.5c-0.5,1.7-1.5,3.2-2.8,4.3v-16.4l-3.8,5.5l-5.1-11h-22c0.2,1.4,0.5,2.8,1.1,4.1c0.7,1.3,0.8,2.7,0.4,4.1
			c-0.1,0.5-0.4,0.9-0.8,1.3c-0.5,0.5-1.1,1.1-1.7,1.7c-0.6,0.6-1.2,1.1-1.7,1.6s-0.8,0.8-1,0.9c-1.2,1.7-2,3.6-2.4,5.6
			c-0.6,2.5-1.2,5.1-1.8,7.7c-0.5,2.3-1.3,4.5-2.4,6.6c-0.9,1.8-2.2,2.5-3.7,2l2.6,2.8c0.1,0.1,0.9,0.1,2.4,0c1.4-0.1,3.1-0.4,5-0.7
			c1.9-0.3,3.8-0.6,5.8-1s3.5-0.7,4.8-1c1.3-0.3,2.4-1.3,3-2.5c0.8-1.5,1.3-3.1,1.6-4.8c0.4-2,0.6-3.9,0.7-5.9
			c0.1-2.1,0.2-4.1,0.2-5.9v-5.5h4.7c0.3,0,0.6,0.6,0.8,1.8s0.6,2.7,0.9,4.5s0.5,3.6,0.6,5.5s0.2,3.5,0.2,4.7c0,1-0.2,1.9-0.3,2.9
			c-0.2,1.3-0.4,2.6-0.6,4c-0.2,1.3-0.5,2.7-0.8,4c-0.4,1.3-0.6,2.2-0.8,2.9l-2.6-2.7c-0.4,0-1,0.3-1.6,1c-0.5,0.4-0.8,1.1-1,1.7
			c0,1.9,0.3,3.9,0.7,5.7c0.5,2,1.1,4.1,1.7,6.2c0.6,2.1,1.2,4.3,1.8,6.4c0.6,2.1,0.9,4.2,0.9,6.4v5.5c-1.4-2.4-2.4-4.9-3-7.7
			c-0.7-3.1-1.5-6.2-2.3-9.1c-0.8-2.8-2-5.4-3.7-7.6c-1.8-2.2-4.5-3.4-7.4-3.2c-2.1-0.1-4.2,0.4-6.1,1.3c-1.8,0.9-3.7,1.3-5.7,1.3
			V512l5.1-2.7c-0.7,2.5-0.9,5.2-0.5,7.8c0.3,2.5,1.2,5,2.4,7.2c1.2,2.1,2.9,4,5,5.4c2,1.4,4.4,2.1,6.8,2c0.9,0,1.7-0.1,2.6-0.2
			c1-0.2,1.6-0.2,1.7-0.2l17.9-19.1c0,0.2,0,0.5,0.1,0.7c0.1,0.2,0.1,0.5,0.1,0.7c0,0.5-0.1,0.9-0.2,1.4c-1.3,2.9-2.9,5.7-4.8,8.2
			c-1.7,2.4-2.6,5.3-2.5,8.2h2.1c0.9-0.4,1.8-1.1,2.5-1.8c1.3-1.2,2.8-2.7,4.5-4.5s3.2-3.6,4.8-5.5c1.6-1.9,2.8-3.5,3.6-4.7
			c0.6-0.9,1-1.9,1.2-3c0.4-1.4,0.7-2.9,1-4.5s0.5-3.2,0.6-4.8s0.2-3,0.2-4.2h3c0,4.9-0.6,9.8-1.8,14.6c-1.2,4.7-1.8,9.5-1.8,14.4
			c0,1.3,0.1,2.6,0.2,3.9c0.2,1.4,1.2,2.5,2.6,2.7c-2.5,2.4-5.8,3.8-9.2,3.8c-4.3,0.4-8.9,0.6-13.9,0.8c-5.1,0.2-10.1,0.6-15.2,1.3
			c-4.7,0.5-9.2,2.3-13,5.1h2.6L718.6,542.1z"/>
		<path class="st0" d="M764.8,421.5c0.6,0,1,0.6,1.4,1.8c0.4,1.4,0.7,2.9,0.8,4.4c0.2,1.7,0.4,3.5,0.4,5.4s0.1,3.6,0.1,5.1v3.9
			c0,0.8,0,2.4-0.1,4.8s-0.1,4-0.1,4.8c-1.7-0.1-3.4,0.6-4.5,1.9c-1.1,1.4-1.9,3-2.5,4.7c-0.7,1.8-1.3,3.6-1.8,5.5
			c-0.5,1.7-1.4,3.2-2.8,4.3v-16.4l-3.8,5.5l-5.1-11h-22c0.1,1.4,0.5,2.8,1.1,4.1c0.7,1.3,0.8,2.7,0.4,4.1c-0.1,0.5-0.4,0.9-0.7,1.3
			c-0.5,0.5-1.1,1.1-1.7,1.7s-1.2,1.1-1.7,1.6s-0.8,0.8-1,0.9c-1.2,1.7-2,3.6-2.3,5.6c-0.6,2.5-1.2,5.1-1.8,7.6
			c-0.5,2.3-1.3,4.5-2.4,6.6c-0.4,1.2-1.5,2.1-2.8,2.2c-0.3,0-0.6,0-0.9-0.1l2.6,2.8c0.1,0.1,0.3,0.1,0.7,0.1c0.6,0,1.1,0,1.6-0.1
			c1.4-0.1,3.1-0.4,5-0.7c1.9-0.3,3.9-0.6,5.8-1c1.9-0.4,3.5-0.7,4.8-1c1.3-0.3,2.4-1.3,3-2.5c0.8-1.5,1.3-3.1,1.6-4.8
			c0.4-2,0.6-3.9,0.7-5.9c0.2-2.1,0.2-4.1,0.2-5.9v-5.5h4.7c0.3,0,0.5,0.6,0.8,1.8s0.6,2.7,0.8,4.5s0.5,3.6,0.7,5.5s0.2,3.5,0.2,4.7
			c0,1-0.1,1.9-0.3,2.9c-0.2,1.3-0.4,2.6-0.6,4c-0.2,1.3-0.5,2.7-0.8,4c-0.4,1.3-0.6,2.2-0.7,2.9l-2.6-2.7c-0.6,0.1-1.2,0.5-1.6,1
			c-0.5,0.4-0.9,1-1,1.7c0,1.9,0.3,3.8,0.8,5.7c0.5,2,1.1,4,1.7,6.2s1.2,4.3,1.8,6.4c0.6,2.1,0.8,4.2,0.9,6.4v5.5
			c-1.4-2.4-2.5-4.9-3-7.7c-0.7-3.1-1.5-6.2-2.3-9.1c-0.8-2.8-2-5.4-3.8-7.7c-1.8-2.2-4.5-3.4-7.4-3.2c-2.1-0.1-4.2,0.4-6.1,1.3
			c-1.8,0.9-3.7,1.3-5.7,1.3V512l5.1-2.8c-0.7,2.5-0.9,5.2-0.5,7.8c0.3,2.5,1.2,5,2.5,7.2c1.3,2.1,3,4,5,5.4c2,1.4,4.4,2.1,6.8,2
			c0.9,0,1.7-0.1,2.6-0.2c1-0.2,1.6-0.2,1.7-0.2l17.9-19.1c0,0.2,0,0.5,0.1,0.7c0.1,0.2,0.1,0.5,0.1,0.7c0,0.5-0.1,0.9-0.2,1.4
			c-1.3,2.9-2.9,5.7-4.8,8.2c-1.7,2.4-2.6,5.3-2.5,8.2h2.1c0.3,0,1.1-0.6,2.5-1.8c1.4-1.2,2.8-2.7,4.5-4.5s3.2-3.6,4.8-5.5
			s2.8-3.5,3.6-4.7c0.6-0.9,1-1.9,1.2-3c0.3-1.4,0.7-2.9,1-4.5s0.5-3.2,0.6-4.8s0.2-3,0.2-4.2h3c0,4.9-0.6,9.8-1.8,14.6
			c-1.2,4.7-1.8,9.5-1.8,14.4c0,1.3,0.1,2.6,0.2,3.9c0.1,1.4,1.2,2.5,2.6,2.8c-2.5,2.4-5.7,3.7-9.2,3.8c-4.3,0.4-8.9,0.6-13.9,0.8
			c-5.1,0.2-10.1,0.6-15.2,1.3c-4.1,0.5-8,1.8-11.5,4l-1.5-1.6c-3.6,0.2-7.1,0.3-10.6,0.3c-10.2,0-20.4-1-30.4-3.1
			c0-0.2-0.1-0.5-0.1-0.7c-0.1-0.2-0.1-0.4-0.1-0.7c-0.1-1.8,0.9-3.4,2.5-4.1c1.7-0.8,3.5-1.4,5.3-1.8c1.9-0.4,3.6-1.1,5.3-1.9
			c1.6-0.8,2.6-2.6,2.5-4.5v-60.3c0.6-0.8,1.1-1.8,1.5-2.7c0.6-1.4,0.9-2.3,1.1-2.8v-1.4c0.2-3.3-0.4-6.6-1.9-9.6
			c-1.2-1.9-2.8-3.5-4.7-4.7c-1.9-1.2-3.8-2.3-5.9-3.4c-2.3-1.3-4.2-3.3-5.4-5.6c-0.3-0.4-0.5-0.9-0.4-1.4h8.1l69.2,1.4l7.7-13.7
			H764.8 M770.8,498.2L770.8,498.2 M718.7,509.2L718.7,509.2 M720.2,543.8l1,1.1h-2.6C719.1,544.5,719.6,544.2,720.2,543.8
			 M764.7,419.1h-2.6c-0.9,0-1.7,0.5-2.1,1.2l-7,12.4l-67.7-1.3h-8.2c-1.3,0-2.4,1.1-2.4,2.4l0,0l0,0c0,1,0.3,2,0.9,2.8
			c1.5,2.6,3.7,4.8,6.2,6.3c2,1.1,4,2.3,5.8,3.4c1.6,1,2.9,2.3,3.9,3.9c1.3,2.6,1.8,5.4,1.5,8.3v1c-0.1,0.4-0.4,1-0.9,2.2
			c-0.2,0.7-0.6,1.4-1,2c-0.4,0.5-0.6,1.1-0.7,1.7v60.3c0,1.5-0.5,2-1.1,2.3c-1.5,0.8-3.1,1.4-4.8,1.7c-2,0.5-3.9,1.1-5.8,2
			c-2.5,1.1-4,3.6-3.9,6.3c0,0.4,0.1,0.8,0.2,1.3v0.2c0,1.1,0.8,2.1,1.9,2.3c10.2,2.1,20.5,3.2,30.9,3.1c2.7,0,5.4-0.1,8.1-0.2
			c0,0.3,0,0.6,0.1,1c0.3,1,1.3,1.7,2.3,1.6h2.6c1,0,1.9-0.6,2.2-1.5c0.2-0.4,0.2-0.8,0.2-1.2c2.6-1.3,5.5-2.1,8.4-2.5
			c4.9-0.7,9.9-1.1,14.9-1.2c5-0.2,9.7-0.4,14-0.8c4.1-0.1,7.9-1.7,10.8-4.6c0.9-1,0.8-2.6-0.2-3.4c0,0,0,0,0,0
			c-0.3-0.2-0.6-0.4-0.9-0.5c-0.8-0.2-0.8-0.4-0.8-0.6c-0.1-1.2-0.2-2.4-0.2-3.6c0-4.7,0.6-9.3,1.8-13.9c1.3-4.9,1.9-10,1.9-15.1
			v-0.2c0-1.4-1.1-2.5-2.5-2.5l0,0h-3c-1.3,0-2.4,1.1-2.4,2.5c0,1.1-0.1,2.5-0.2,4s-0.3,3.1-0.6,4.6s-0.6,3-0.9,4.3
			c-0.1,0.8-0.4,1.5-0.8,2.2c-0.8,1.1-2,2.7-3.5,4.5c-1.5,1.9-3.1,3.7-4.7,5.4s-3,3.1-4.3,4.3l-0.1,0.1c0.3-1.2,0.8-2.2,1.5-3.2
			c2-2.7,3.7-5.6,5.1-8.7c0.1-0.2,0.2-0.4,0.2-0.6c0.1-0.6,0.2-1.2,0.3-1.8c0-0.4-0.1-0.8-0.2-1.2c0-0.1,0-0.2-0.1-0.2
			c0-1-0.6-1.9-1.5-2.2c-0.3-0.1-0.6-0.2-0.8-0.2c-0.7,0-1.4,0.3-1.8,0.8l-17.3,18.6l-0.9,0.1c-0.7,0.1-1.5,0.2-2.2,0.2
			c-1.9,0-3.9-0.5-5.5-1.6c-1.7-1.2-3.1-2.8-4.2-4.6c-2.3-3.9-2.9-8.6-1.7-12.9c0.1-0.3,0.1-0.5,0.1-0.8c0-1.3-1.1-2.4-2.4-2.4l0,0
			h-0.2c-0.4,0-0.8,0.1-1.1,0.3l-1.5,0.8v-13.3c1.5-0.2,3-0.7,4.3-1.4c1.6-0.7,3.3-1.1,5-1c2.1-0.2,4.1,0.7,5.4,2.2
			c1.5,2.1,2.6,4.4,3.3,6.9c0.8,2.9,1.6,5.9,2.3,9c0.6,3,1.7,5.8,3.3,8.4c0.5,0.7,1.2,1.1,2.1,1.1c0.2,0,0.5,0,0.7-0.1
			c1-0.3,1.7-1.3,1.8-2.4V512c0-2.4-0.3-4.7-0.9-7c-0.6-2.2-1.2-4.4-1.8-6.5s-1.2-4.1-1.7-6.1c-0.4-1.4-0.6-2.9-0.7-4.4l0.9,0.9
			c0.5,0.5,1.1,0.8,1.8,0.8c0.2,0,0.4,0,0.6-0.1c0.9-0.2,1.6-0.9,1.8-1.8c0.1-0.6,0.4-1.5,0.7-2.8c0.4-1.4,0.7-2.8,0.9-4.3
			c0.2-1.4,0.4-2.7,0.6-4c0.2-1.1,0.3-2.2,0.4-3.2c0-1.3-0.1-2.9-0.2-4.9s-0.4-3.9-0.7-5.7s-0.6-3.4-0.9-4.6s-0.9-3.7-3.2-3.7H737
			c-1.4,0-2.5,1.1-2.5,2.4c0,0,0,0,0,0v5.5c0,1.7-0.1,3.7-0.2,5.8c-0.1,1.9-0.4,3.8-0.7,5.6c-0.3,1.4-0.7,2.8-1.4,4.1
			c-0.2,0.6-0.7,1.1-1.4,1.2c-1.3,0.3-2.9,0.6-4.7,1c-1.9,0.4-3.8,0.7-5.7,1c-1.6,0.3-3.1,0.5-4.4,0.6c0.3-0.4,0.5-0.8,0.7-1.2
			c1.1-2.3,2-4.7,2.5-7.1c0.7-2.6,1.3-5.2,1.8-7.7c0.3-1.6,0.9-3.2,1.8-4.5c0.1-0.1,0.4-0.4,0.8-0.7s1.1-1,1.7-1.6s1.3-1.2,1.8-1.8
			c0.6-0.6,1.1-1.4,1.3-2.2c0.5-1.9,0.3-3.9-0.5-5.6c-0.1-0.3-0.2-0.6-0.3-0.9h17.4l4.5,9.6c0.4,0.8,1.1,1.3,2,1.4h0.2
			c0.5,0,1-0.2,1.4-0.4v9c0,1.3,1.1,2.4,2.5,2.4c0.6,0,1.1-0.2,1.6-0.6c1.7-1.4,2.9-3.3,3.6-5.5c0.5-1.7,1.1-3.5,1.8-5.4
			c0.5-1.4,1.2-2.8,2.1-4c0.6-0.7,1.6-1.1,2.5-1c1.3,0,2.4-1.1,2.4-2.4l0,0c0-0.8,0-2.3,0.1-4.7s0.1-4.1,0.1-4.9v-3.9
			c0-1.5,0-3.2-0.1-5.2s-0.2-3.9-0.5-5.6c-0.2-1.6-0.5-3.2-0.9-4.7C767.6,419.6,766,419,764.7,419.1"/>
		<path class="st3" d="M859.9,573c-0.6-0.7-1.1-1.6-1.4-2.5l-16.7-42.7c-0.9-1.9-2.1-4.3-3.5-7.3s-2.8-5.8-4.2-8.5
			c-1.4-2.7-2.6-5-3.8-6.9c-0.5-1-1.1-2-1.9-2.8l-9.9,0.1l0.3,55.6c-0.3,2.2,1.1,4.3,3.2,5c2.3,0.7,4.6,1.3,7,1.7
			c2.4,0.4,4.8,1.2,7,2.3c2.3,1.4,3.5,3.9,3.2,6.6c-12.5,0.1-25,1.2-37.4,3.2c-9.4,2-19,3-28.6,3h-3c-1.5,0-3,0-4.5-0.2
			s-3.1-0.2-4.5-0.2h-2.8c1.4-3.1,3.8-5.6,6.8-7.2c3.2-1.7,6.6-3,10.2-3.8c3.7-0.8,10.9-1.4,11-1.5l0,0c0-5.4,0.4-10.7,1.3-16
			c0.9-5.2,1.3-10.4,1.3-15.7v-7.1c-0.4-6.4-0.8-14.7-1.2-24.9s-0.8-20.1-1.1-29.6c-0.3-9.5-0.8-21.3-1.4-35.3l-1.8-16.7
			c-0.7,0-0.4-5.7-2.7-6.1s2.4,0.3-0.2,0s-5-0.8-7.2-1.2c-1.9-0.1-3.8-0.4-5.7-0.8c-1.9-0.7-3.8-1.5-5.5-2.6c-1.7-1.1-7.4-3.6-7.4-7
			c9.6-0.1,19.2,0.7,28.6,2.3c9.2,1.6,11,6.3,20.4,6.3h2.7c1,0,2-0.2,2.9-0.5c0.9-0.5,1.6-1.3,1.8-2.3c0.4-1.9,0.5-3.8,0.2-5.7
			c4.6,1.8,9.3,3.1,14.2,3.7c5.6,0.8,11.4,1.6,17.5,2.4c6.1,0.8,12.1,2,18,3.5c5.7,1.4,11.1,3.8,16,7c4.8,3.3,8.7,7.7,11.5,12.8
			c3.2,6.5,4.8,13.6,4.5,20.8c0.1,5.1-0.9,10.1-3,14.8c-1.9,4.3-4.5,8.4-7.5,12c-3,3.6-6.5,6.9-10.3,9.7c-3.5,2.6-7.2,5-11,7.2
			c0,0.4-0.1,0.7-0.3,1.1c-0.1,0.3-0.2,0.7-0.3,1.1c0.1,0.7,0.3,1.4,0.6,2.1c0.7,1.5,1.5,3,2.4,4.4c1.2,2,2.5,4.1,3.9,6.4
			c1.4,2.2,2.8,4.4,4.2,6.4s2.3,3.4,2.9,4.1H873h-1.7c-0.5-0.2-1.7-0.8-3.4-1.8c-1.3-0.5-2.4-1.4-3.2-2.5v4.3l16.8,21.2l6.6-4.3
			c3,5.7,6.3,11.3,9.8,16.7c2,3.1,4.7,5.7,7.9,7.6c3,1.6,6.4,2.6,9.8,3c3.8,0.5,8.9,1.3,15.6,2.4c1.3,0.2,2.2,1.4,2.9,3.4
			c0.6,1.7,0.9,3.4,1,5.2l-23.7,0.1l-3.3,6.4l-11,0.1c0.1-1.8-0.4-3.6-1.4-5.2c-0.9-1.3-2-2.3-3.2-3.2c-1.2-0.8-2.5-1.4-3.9-1.8
			c-1.2-0.3-2.5-0.5-3.7-0.5c-0.9,0-2.4,0-4.5-0.2s-4.4-0.2-7-0.1s-4.9,0.1-7,0.2s-3.6,0.2-4.5,0.2
			C861.1,574.3,860.4,573.7,859.9,573 M816.2,483.6c1,1.7,2.4,3,4.2,3.9c1.7,0.8,3.4,1.4,5.2,1.8c1.4,0.3,2.9,0.5,4.4,0.5
			c3.1-0.1,6.2-0.5,9.2-1.1c4.2-0.8,8.4-2,12.4-3.6c3.9-1.6,7.6-3.8,10.8-6.5c3-2.4,4.7-6.1,4.6-10l0.5-12.1c-0.1-2.1-0.6-4.1-1.3-6
			l-6.5-16c0-2.4-2-4.3-6.1-5.7c-4.4-1.5-8.8-2.6-13.4-3.3c-4.9-0.8-11.4-1.5-19.7-2.2c0,2.4,0.2,4.7,0.7,7c0.5,2,1,4,1.5,6
			s1.1,4,1.5,6c0.5,2.2,0.7,4.4,0.7,6.6c0.1,2.6-0.4,5.1-1.3,7.5c-0.9,1.9-2,3.8-3.1,5.5c-1.3,1.9-2.4,4-3.4,6.1
			c-1.2,2.8-1.9,5.7-2.2,8.7C814.6,479,815,481.5,816.2,483.6"/>
		<path class="st0" d="M755.8,404c9.2,0,18.5,0.7,27.6,2.3c9.1,1.6,11,6.3,20.2,6.3h0.2h2.8c1,0,2-0.2,2.9-0.5
			c0.9-0.5,1.6-1.3,1.8-2.3c0.4-1.9,0.5-3.8,0.2-5.7c4.6,1.8,9.3,3,14.2,3.6c5.6,0.8,11.4,1.6,17.5,2.4c6.1,0.8,12.1,1.9,18,3.5
			c5.7,1.4,11.1,3.7,16,7c4.8,3.3,8.7,7.7,11.5,12.8c3.2,6.5,4.8,13.6,4.5,20.8c0.1,5.1-0.9,10.1-3,14.8c-1.9,4.3-4.5,8.4-7.5,12
			c-3,3.6-6.5,6.9-10.3,9.7c-3.5,2.6-7.2,5-11,7.2c0,0.4-0.1,0.7-0.3,1.1c-0.1,0.3-0.2,0.7-0.3,1.1c0.1,0.7,0.3,1.4,0.6,2.1
			c0.7,1.5,1.5,3,2.4,4.4c1.2,2,2.5,4.1,3.9,6.4c1.4,2.3,2.8,4.4,4.2,6.4c1.4,2,2.4,3.4,2.9,4.1h-3.3c-0.5-0.2-1.7-0.8-3.5-1.8
			c-1.3-0.5-2.3-1.4-3.2-2.5v4.3l16.8,21.3l6.6-4.3c3,5.7,6.3,11.3,9.9,16.7c2,3.1,4.7,5.7,7.9,7.6c3,1.6,6.4,2.6,9.8,3
			c3.8,0.5,9,1.3,15.6,2.4c1.3,0.2,2.3,1.4,2.9,3.4c0.6,1.7,0.9,3.4,1,5.2l-23.7,0.1l-3.3,6.4l-11,0.1c0.1-1.8-0.4-3.6-1.4-5.2
			c-0.9-1.2-2-2.3-3.2-3.2c-1.2-0.8-2.5-1.4-3.9-1.8c-1.2-0.3-2.4-0.5-3.7-0.5h-0.2c-0.9,0-2.4-0.1-4.4-0.2s-3.9-0.1-6.1-0.1h-0.9
			c-2.6,0-4.9,0.1-7,0.2s-3.6,0.2-4.5,0.2c-0.8-0.4-1.4-1-1.9-1.8c-0.7-0.7-1.1-1.6-1.4-2.5l-16.7-42.7c-0.9-1.9-2.1-4.3-3.5-7.3
			c-1.4-3-2.8-5.8-4.2-8.5c-1.4-2.7-2.7-5-3.8-6.9c-0.5-1-1.1-2-1.9-2.8l-9.9,0.1l0.3,55.6c-0.3,2.2,1.1,4.3,3.2,5
			c2.3,0.7,4.6,1.3,7,1.8c2.4,0.4,4.8,1.2,7,2.3c2.3,1.4,3.5,3.9,3.2,6.6c-12.5,0.1-25,1.1-37.4,3.2c-9.4,2-19,3-28.6,3h-3h-0.3
			c-1.4,0-2.8-0.1-4.2-0.2s-2.9-0.2-4.2-0.2h-3.1c1.4-3.1,3.8-5.6,6.8-7.2c3.2-1.7,6.6-3,10.2-3.8c3.6-0.7,7.3-1.2,11-1.4l0,0
			c0-5.4,0.4-10.7,1.3-16c0.9-5.2,1.3-10.4,1.3-15.7l0-7.1c-0.4-6.4-0.8-14.7-1.2-24.9c-0.4-10.2-0.8-20.1-1.1-29.6
			c-0.3-9.5-0.8-21.2-1.4-35.3l-1.8-16.7c-0.7,0-0.4-5.7-2.7-6.1l-0.4-0.1h0.2l0.8,0.1l-1.3-0.2c0.1,0,0.2,0,0.2,0
			c-2.5-0.3-4.8-0.7-6.9-1.2c-1.9-0.1-3.8-0.4-5.7-0.8c-1.9-0.7-3.8-1.6-5.5-2.6c-1.7-1-7.4-3.6-7.4-7L755.8,404 M829.9,489.7
			L829.9,489.7c3.2-0.1,6.2-0.5,9.3-1.1c4.2-0.8,8.4-2,12.4-3.6c3.9-1.6,7.6-3.8,10.8-6.5c3-2.4,4.7-6.1,4.6-10l0.5-12.2
			c-0.1-2.1-0.6-4.1-1.3-6l-6.6-16c0-2.4-2-4.3-6.1-5.7c-4.4-1.5-8.8-2.6-13.4-3.3c-4.9-0.8-11.4-1.5-19.7-2.2c0,2.4,0.2,4.7,0.7,7
			c0.5,2,1,4,1.5,6s1.1,4,1.5,6c0.5,2.2,0.7,4.4,0.7,6.6c0.1,2.6-0.3,5.1-1.3,7.5c-0.9,1.9-2,3.8-3.1,5.5c-1.3,1.9-2.4,4-3.4,6.1
			c-1.2,2.8-2,5.7-2.2,8.8c-0.9,4.4,1.3,8.9,5.3,10.9c1.7,0.8,3.4,1.4,5.2,1.8C827,489.5,828.5,489.7,829.9,489.7 M755.8,401.5h-1
			c-1.4,0-2.4,1.1-2.4,2.5v0c0,4.2,4.8,6.9,7.6,8.5c0.4,0.2,0.7,0.4,1,0.6c1.8,1.1,3.7,2.1,5.8,2.8c1.1,0.4,2.2,0.7,3.4,0.6
			c1,0,1.9,0.1,2.9,0.3c2.1,0.5,4.4,0.8,7,1.2c0.2,0.8,0.4,1.6,0.5,2.4c0.1,0.8,0.3,1.5,0.6,2.3l1.7,16c0.6,13.9,1.1,25.7,1.4,35.2
			c0.3,10,0.7,19.9,1.1,29.6c0.4,10.2,0.8,18.6,1.2,24.9v7.1c0,5.1-0.4,10.2-1.3,15.2c-0.8,4.7-1.3,9.5-1.3,14.2
			c-3.1,0.3-6.1,0.7-9.1,1.3c-3.7,0.8-7.4,2.2-10.8,4c-3.5,1.8-6.2,4.7-7.9,8.3c-0.6,1.2-0.1,2.7,1.1,3.2c0,0,0,0,0,0
			c0.3,0.2,0.7,0.2,1,0.2l0,0h2.8h0.3c1.3,0,2.7,0,4.1,0.2s2.9,0.2,4.4,0.2h0.3h3c8.8,0.1,17.6-0.8,26.2-2.5l2.8-0.5
			c12.2-2.1,24.6-3.1,37-3.2c1.3,0,2.4-1.1,2.4-2.4v0l0,0c0.4-3.6-1.4-7-4.6-8.8c-2.4-1.2-5-2-7.7-2.5c-2.3-0.4-4.5-1-6.7-1.7
			c-0.7-0.2-1.5-0.7-1.5-2.7l-0.3-53.2h6.3c0.2,0.4,0.5,0.9,1,1.6c1.1,1.9,2.3,4.1,3.7,6.8c1.4,2.6,2.8,5.6,4.1,8.5
			c1.4,2.9,2.5,5.3,3.5,7.2l16.7,42.4c0.4,1.2,1,2.3,1.8,3.2c0.7,1.1,1.7,1.9,2.9,2.5c0.3,0.1,0.6,0.2,1,0.2l0,0
			c1,0,2.6-0.1,4.7-0.2s4.4-0.2,6.9-0.2h0.9c2.1,0,4.1,0,6,0.1s3.5,0.2,4.5,0.2h0.2c1,0,2.1,0.2,3.1,0.4c1.1,0.3,2.1,0.8,3.1,1.4
			c1,0.7,1.9,1.6,2.6,2.6c0.7,1.1,1,2.4,0.9,3.8c0,1.3,1.1,2.4,2.5,2.4l0,0l11-0.1c0.9,0,1.8-0.5,2.2-1.3l2.6-5.1l22.2-0.1
			c1.3,0,2.4-1.1,2.4-2.5c0,0,0,0,0,0l0,0c-0.1-2-0.4-4-1.1-5.9c-1.2-3.7-3.3-4.8-4.8-5c-6.6-1.1-11.9-2-15.7-2.4
			c-3.1-0.3-6.1-1.2-8.9-2.7c-2.8-1.7-5.3-4.1-7.1-6.9c-3.5-5.3-6.8-10.8-9.7-16.4c-0.4-0.8-1.3-1.3-2.2-1.3c-0.5,0-0.9,0.1-1.3,0.4
			l-4.7,3.1L869.1,525c0.7,0.4,1.1,0.5,1.3,0.6c0.3,0.1,0.6,0.2,0.9,0.2h3.3c1.3,0,2.4-1.1,2.4-2.5c0-0.5-0.2-1.1-0.5-1.5
			c-0.4-0.5-1.2-1.5-2.8-4c-1.4-2-2.7-4.1-4.1-6.3c-1.4-2.2-2.7-4.4-3.9-6.4c-0.8-1.3-1.5-2.6-2.2-4c-0.2-0.7-0.3-1.1-0.4-1.3
			l0.1-0.2c0-0.1,0.1-0.2,0.1-0.3c3.6-2.1,7-4.3,10.3-6.8c4-2.9,7.6-6.3,10.8-10.1c3.2-3.8,5.8-8,7.9-12.5c2.2-5,3.3-10.4,3.1-15.8
			c0.3-7.6-1.4-15.2-4.8-22c-2.9-5.4-7.1-10.1-12.2-13.6c-5.1-3.4-10.8-5.9-16.8-7.4c-6-1.5-12.2-2.7-18.3-3.5
			c-6.3-0.8-12-1.6-17.5-2.4c-4.7-0.6-9.2-1.8-13.6-3.5c-1.2-0.5-2.7,0-3.2,1.3c-0.1,0.3-0.2,0.6-0.2,1c0,0.1,0,0.1,0,0.2
			c0.2,1.6,0.2,3.2-0.1,4.8c-0.2,0.6-0.4,0.8-0.4,0.8c-0.6,0.3-1.3,0.4-1.9,0.4h-2.9c-3.5,0-7-0.9-10-2.7c-3.1-1.7-6.4-2.9-9.8-3.5
			C774.5,402.3,765.1,401.5,755.8,401.5 M829.9,489.7v-2.4c-1.3,0-2.6-0.2-3.9-0.5c-1.6-0.3-3.1-0.8-4.6-1.5c-1.3-0.7-2.4-1.7-3.2-3
			c-0.9-1.6-1.1-3.5-0.8-5.4c0.2-2.8,0.8-5.5,1.9-8c0.9-2,2-3.9,3.2-5.8c1.2-1.9,2.3-3.8,3.3-5.8c1.1-2.7,1.7-5.6,1.6-8.6
			c0-2.4-0.3-4.8-0.8-7.1c-0.5-2.1-1-4.2-1.6-6.1s-1.1-4-1.5-5.9c-0.3-1.2-0.5-2.5-0.6-3.7c6.9,0.6,12.5,1.2,16.8,2
			c4.4,0.7,8.7,1.8,13,3.2c1.7,0.6,4.4,1.8,4.4,3.4c0,0.3,0.1,0.6,0.2,0.9l6.6,16c0.6,1.6,1,3.4,1.1,5.1l-0.5,12
			c0.1,3.2-1.3,6.2-3.8,8.2c-3.1,2.5-6.5,4.6-10.2,6.1c-3.8,1.6-7.8,2.7-11.9,3.5c-2.9,0.6-5.8,0.9-8.8,1.1L829.9,489.7z"/>
		<path class="st0" d="M823,484c0.8,1.6,2.1,3,3.6,3.9c1.4,0.8,3,1.4,4.6,1.8c1.3,0.3,2.6,0.5,3.8,0.5c2.7-0.1,5.4-0.5,8-1.1
			c3.7-0.8,7.4-2,10.8-3.6c3.5-1.6,6.7-3.8,9.5-6.5c2.7-2.6,4.1-6.2,4-10l0.5-12.2c-0.1-2-0.5-4.1-1.1-6l-5.7-16
			c0-2.4-1.8-4.3-5.3-5.7c-3.8-1.5-7.7-2.6-11.7-3.3c-4.2-0.8-10-1.5-17.2-2.2c0,2.3,0.2,4.7,0.6,7c0.4,2,0.9,4,1.4,6
			c0.5,2,0.9,4,1.3,6c0.4,2.2,0.6,4.4,0.6,6.6c0.1,2.5-0.3,5.1-1.2,7.5c-0.8,1.9-1.7,3.8-2.7,5.5c-1.1,2-2.1,4-3,6.1
			c-1.1,2.8-1.7,5.7-1.9,8.7C821.5,479.5,821.9,481.9,823,484"/>
	</g>
</g>
</svg>
